<?xml version="1.0" standalone="no"?>
<!DOCTYPE svg PUBLIC "-//W3C//DTD SVG 20010904//EN"
        "http://www.w3.org/TR/2001/REC-SVG-20010904/DTD/svg10.dtd">
<svg xmlns="http://www.w3.org/2000/svg"
     width="256.000000pt" height="256.000000pt" viewBox="0 0 256.000000 256.000000"
     preserveAspectRatio="xMidYMid meet">
    <g transform="translate(0.000000,256.000000) scale(0.100000,-0.100000)"
       fill="#000000" stroke="none">
        <path d="M1044 2425 c-247 -38 -471 -157 -656 -347 -97 -100 -180 -221 -227
-332 -24 -54 -24 -56 -13 -56 4 0 17 19 29 43 59 121 231 307 368 396 88 58
235 123 342 153 67 19 104 22 268 22 216 1 307 -16 439 -78 207 -97 437 -295
528 -451 64 -112 66 -117 104 -224 86 -241 85 -492 -3 -736 -43 -121 -62 -159
-124 -251 -130 -193 -308 -339 -516 -420 -63 -25 -90 -40 -76 -42 33 -5 226
63 294 103 33 19 63 35 66 35 9 0 108 76 179 136 55 48 184 199 193 227 2 7
10 19 17 28 30 34 108 214 137 315 54 186 43 522 -22 669 -5 11 -25 58 -45
105 -82 192 -245 393 -418 517 -86 61 -247 139 -340 162 -164 42 -360 52 -524
26z"/>
        <path d="M640 2145 c0 -25 59 -134 102 -189 79 -100 232 -219 378 -291 40 -21
127 -55 194 -77 66 -22 156 -59 198 -84 42 -24 82 -44 88 -44 25 0 -3 98 -48
165 -14 22 -75 90 -135 152 -113 118 -142 165 -154 250 l-6 48 -13 -30 c-19
-45 -17 -117 6 -179 21 -54 90 -136 170 -200 34 -26 34 -27 5 -13 -16 8 -77
29 -135 47 -249 77 -501 244 -605 403 -41 61 -45 65 -45 42z"/>
        <path d="M620 2018 c0 -30 53 -122 97 -169 91 -97 299 -248 415 -301 26 -12
48 -25 48 -30 0 -4 6 -8 13 -8 22 0 150 -81 182 -115 41 -43 60 -68 68 -88 11
-29 37 -20 37 12 0 95 -98 196 -260 269 -36 16 -107 52 -159 81 -51 29 -103
57 -115 64 -11 7 -23 14 -26 17 -3 3 -32 23 -65 45 -100 64 -169 129 -195 184
-24 49 -40 64 -40 39z"/>
        <path d="M650 1875 c0 -28 126 -235 143 -235 6 0 1 -7 -11 -16 -44 -31 -27
-98 47 -176 46 -49 50 -56 44 -90 -9 -57 3 -86 63 -148 36 -38 52 -63 48 -73
-22 -59 74 -154 189 -185 51 -14 47 1 -10 33 -53 31 -113 91 -113 114 0 8 5
30 12 48 12 33 12 35 -35 74 -26 23 -55 55 -63 71 -15 29 -15 32 5 59 12 15
21 36 21 46 0 10 -34 49 -75 86 -41 38 -75 74 -75 82 0 7 14 18 30 24 17 5 30
13 30 16 0 18 -33 64 -49 70 -22 7 -143 134 -169 178 -14 24 -32 36 -32 22z"/>
        <path d="M1633 1590 c-61 -37 -30 -77 35 -46 34 17 37 16 60 -1 14 -10 36 -33
50 -51 l25 -32 -32 0 c-18 0 -41 -5 -52 -10 -47 -26 -62 -112 -34 -204 23 -76
20 -110 -16 -151 -17 -19 -35 -35 -40 -35 -5 0 -28 -8 -52 -19 -23 -10 -64
-26 -90 -36 -127 -46 -178 -163 -127 -296 10 -29 17 -55 15 -60 -7 -11 24
-176 41 -217 8 -20 25 -47 36 -59 24 -26 58 -31 58 -8 0 8 -27 71 -60 141 -33
69 -60 129 -60 132 0 4 21 -14 48 -40 70 -68 170 -128 213 -128 31 0 22 16
-38 67 -161 135 -215 220 -193 303 14 51 56 87 142 119 85 32 139 69 167 115
32 54 33 81 6 161 -29 87 -31 134 -10 175 12 23 22 30 46 30 17 0 39 -5 50
-10 11 -6 24 -8 29 -5 13 8 -56 135 -89 162 -33 29 -85 30 -128 3z"/>
        <path d="M177 1293 c-14 -23 -19 -198 -8 -293 40 -331 215 -624 466 -781 190
-118 455 -148 738 -84 223 50 445 196 587 383 82 108 165 298 183 415 9 60 -7
42 -32 -36 -13 -39 -32 -90 -43 -112 -24 -47 -106 -175 -122 -190 -6 -5 -26
-27 -43 -48 -97 -112 -294 -234 -438 -271 -190 -48 -439 -45 -600 9 -194 64
-384 210 -502 386 -66 98 -85 136 -121 249 -40 127 -44 147 -51 275 -3 61 -9
105 -14 98z"/>
        <path d="M1231 698 c-24 -29 -51 -69 -62 -89 -44 -86 -50 -199 -10 -199 14 0
21 16 34 82 10 49 32 114 57 163 22 45 40 85 40 88 0 18 -20 2 -59 -45z"/>
        <path d="M1302 663 c-33 -78 -42 -123 -42 -208 0 -84 14 -128 43 -133 15 -3
17 8 18 100 0 57 6 145 13 196 14 106 2 123 -32 45z"/>
    </g>
</svg>
