<?xml version="1.0" standalone="no"?>
<!DOCTYPE svg PUBLIC "-//W3C//DTD SVG 1.1//EN" "http://www.w3.org/Graphics/SVG/1.1/DTD/svg11.dtd" >
<svg xmlns="http://www.w3.org/2000/svg" version="1.1">
    <metadata>
        Created by FontForge 20190801 at Thu Oct 13 20:40:50 2011
        By Jimmy Wärting
        Copyright 1990-2011 by Bitstream Inc.. All rights reserved.
    </metadata>
    <defs>
        <font id="Flareserif821BT-Roman" horiz-adv-x="1262">
            <font-face
                    font-family="Flareserif 821"
                    font-weight="400"
                    font-stretch="normal"
                    units-per-em="2048"
                    panose-1="2 0 5 3 5 0 0 2 0 3"
                    ascent="1638"
                    descent="-410"
                    x-height="1075"
                    cap-height="1550"
                    bbox="-125 -483 2666 2025"
                    underline-thickness="170"
                    underline-position="-182"
                    unicode-range="U+0020-2122"
            />
            <missing-glyph horiz-adv-x="1229"
                           d="M102 -362v1806h1024v-1806h-1024zM217 -248h795v1577h-795v-1577z"/>
            <glyph glyph-name=".notdef" horiz-adv-x="1229"
                   d="M102 -362v1806h1024v-1806h-1024zM217 -248h795v1577h-795v-1577z"/>
            <glyph glyph-name="exclam" unicode="!" horiz-adv-x="702"
                   d="M182 156q0 33 13 63.5t35.5 53.5t53.5 37t66 14t66 -13.5t53.5 -36t35.5 -53.5t13 -65q0 -36 -13.5 -67.5t-36 -54t-53.5 -35.5t-65 -13q-35 0 -65.5 13t-53 36t-36 54t-13.5 67zM350 416q-35 38 -56.5 84.5t-33.5 102.5t-16 122.5t-4 144.5v387q0 76 -21 151.5
t-63 141.5h387q-37 -58 -59.5 -133.5t-22.5 -159.5v-387q0 -78 -4.5 -144.5t-16.5 -122.5t-34 -102.5t-56 -84.5z"/>
            <glyph glyph-name="dollar" unicode="$"
                   d="M692 -55q0 -45 25 -129h-180q12 42 17 74t5 55v98q-108 5 -201 17.5t-174 35.5l23 299q49 -78 138 -125t214 -59v481q-105 38 -182.5 80t-128.5 91.5t-76 109t-25 131.5q0 82 27.5 150.5t80 119.5t129.5 82t175 39v14q0 56 -22 111h182q-11 -26 -17.5 -56t-9.5 -61
q66 0 141.5 -6t161.5 -20l-30 -275q-70 69 -135.5 100t-131.5 31h-6v-448q107 -39 185.5 -84t130.5 -99t77 -118.5t25 -141.5q0 -173 -103.5 -272.5t-314.5 -124.5v-100zM690 217q45 3 82 19t63 42.5t40 62t14 77.5q0 86 -48 138.5t-151 86.5v-426zM557 1327
q-90 -5 -138 -55t-48 -133q0 -134 186 -201v389z"/>
            <glyph glyph-name="percent" unicode="%" horiz-adv-x="1886"
                   d="M418 1567q84 -2 154.5 -34.5t120.5 -91t78 -141t28 -182.5q0 -107 -29.5 -192t-80 -145t-118.5 -92t-145 -32q-75 0 -140 32t-113 90.5t-75.5 141t-27.5 183.5q0 95 24 174.5t69 139t109.5 98t145.5 51.5zM250 1104q0 -65 16 -118.5t42 -91.5t60 -58.5t70 -20.5
q39 0 72 19t57 55.5t37.5 90.5t13.5 124q0 71 -14.5 127.5t-40.5 95.5t-61 59.5t-76 20.5q-36 0 -68 -20.5t-56 -59t-38 -95t-14 -128.5zM1434 893q84 -2 154.5 -34.5t120.5 -91t78 -140.5t28 -183q0 -107 -29.5 -192t-80.5 -144.5t-120 -91.5t-149 -32q-72 0 -135.5 31.5
t-111.5 89.5t-76 140t-28 183q0 95 24.5 175t69.5 140t109.5 98.5t145.5 51.5zM1266 434q0 -65 16 -118.5t43 -91.5t61 -58.5t70 -20.5q39 0 71.5 19t56 55.5t37 90.5t13.5 124q0 72 -15 128t-40.5 95t-61 59.5t-75.5 20.5q-36 0 -68 -20t-56 -59t-38 -95.5t-14 -128.5z
M1440 1565q-75 -89 -125 -191l-590 -1210q-44 -92 -59 -178h-220q73 84 125 190l590 1210q22 44 36 89t22 90h221z"/>
            <glyph glyph-name="ampersand" unicode="&#x26;" horiz-adv-x="1735"
                   d="M1174 223q-112 -115 -252.5 -174t-315.5 -59q-120 0 -217 30t-165.5 83t-105 125.5t-36.5 156.5q0 105 60 195t184 172q-107 81 -107 233q0 70 25 128.5t69.5 101t106 66.5t133.5 24q78 0 140.5 -21.5t106.5 -59.5t67.5 -92t23.5 -118q0 -79 -33.5 -137t-105.5 -109
q70 -22 168.5 -80t218.5 -166q45 97 68.5 214.5t23.5 254.5q0 17 -1 42t-3 57q-69 -2 -125.5 -9t-100.5 -18v215h623v-215q-45 11 -100 18t-123 9v-54q0 -176 -28 -330.5t-87 -291.5q118 -107 234 -180t235 -111l-207 -137q-32 1 -70 18.5t-83.5 48.5t-100 74t-120.5 96z
M1038 350q-259 232 -557 322q-188 -117 -188 -271q0 -52 21 -94t61 -71.5t98.5 -45.5t132.5 -16q141 0 249.5 45t182.5 131zM553 821q82 32 119 75.5t37 111.5q0 31 -10.5 57.5t-29.5 45.5t-45.5 29.5t-58.5 10.5q-35 0 -64.5 -12t-51 -33t-34 -49.5t-12.5 -61.5
q0 -32 10.5 -60.5t30 -51.5t47 -39.5t62.5 -22.5z"/>
            <glyph glyph-name="parenleft" unicode="(" horiz-adv-x="807"
                   d="M842 1513q-102 -17 -169.5 -48.5t-107.5 -88.5q-60 -86 -85 -272t-25 -475t25 -475.5t85 -274.5q40 -57 107.5 -88.5t169.5 -48.5q-54 -25 -105 -38t-102 -13q-122 0 -201.5 54t-126 168t-65.5 291.5t-19 424.5q0 246 19 423t65.5 291t126 168t201.5 54q51 0 102 -13.5
t105 -38.5z"/>
            <glyph glyph-name="parenright" unicode=")" horiz-adv-x="807"
                   d="M-35 -258q102 17 169 48.5t106 88.5q58 86 84 273.5t26 476.5t-26 475t-84 272q-39 57 -106 88.5t-169 48.5q54 26 104 39t101 13q121 0 201 -54t126.5 -168t65.5 -291t19 -423q0 -247 -19 -424.5t-65.5 -291.5t-126.5 -168t-201 -54q-51 0 -101 12.5t-104 38.5z"/>
            <glyph glyph-name="asterisk" unicode="*" horiz-adv-x="1176"
                   d="M463 817l-338 -57l219 262l-217 274l336 -59l125 328l125 -324l340 55l-219 -266l219 -270l-342 53l-121 -319zM588 1171q-29 0 -54.5 -11.5t-45 -31t-31 -45.5t-11.5 -55t11.5 -55t31 -45.5t45 -31t54.5 -11.5q30 0 56 11t45.5 30.5t30.5 45.5t11 56q0 29 -11.5 55
t-31 45.5t-45.5 31t-55 11.5z"/>
            <glyph glyph-name="comma" unicode="," horiz-adv-x="631"
                   d="M8 -289q172 313 172 582q0 32 -2.5 67.5t-7.5 75.5h309q-24 -331 -319 -725h-152z"/>
            <glyph glyph-name="hyphen" unicode="-" horiz-adv-x="764"
                   d="M530 649q44 0 81 6.5t71 20.5v-252q-34 14 -71 20.5t-81 6.5h-299q-84 0 -151 -27v252q34 -14 71 -20.5t80 -6.5h299z"/>
            <glyph glyph-name="period" unicode="." horiz-adv-x="631"
                   d="M147 156q0 33 13 63.5t35.5 53.5t53.5 37t66 14q36 0 66.5 -13.5t53 -36t35.5 -53.5t13 -65q0 -36 -13 -67.5t-36 -54t-53.5 -35.5t-65.5 -13t-65.5 13t-53 36t-36 54t-13.5 67z"/>
            <glyph glyph-name="slash" unicode="/" horiz-adv-x="645"
                   d="M170 39q-35 -103 -35 -186v-21.5t2 -21.5h-262q31 45 63 108t60 148l416 1269q17 53 27 99.5t10 91.5v19t-2 20h262q-31 -45 -64 -108t-61 -148z"/>
            <glyph glyph-name="zero" unicode="0"
                   d="M625 -14q-116 0 -217 53.5t-175.5 154t-117.5 245t-43 325.5q0 155 28 284.5t86 235.5q36 66 85.5 118t106.5 88.5t118.5 55.5t121.5 19q125 0 230 -54t181 -156t118.5 -248.5t42.5 -330.5q0 -155 -32.5 -283.5t-100.5 -236.5q-85 -134 -194.5 -202t-237.5 -68zM627 209
q70 0 129 38t101 111t65.5 180t23.5 246q0 136 -22 240t-63.5 174.5t-99.5 106.5t-130 36q-73 0 -132 -36.5t-101 -107.5t-64.5 -176t-22.5 -243t23 -244t64.5 -178.5t99.5 -109.5t129 -37z"/>
            <glyph glyph-name="one" unicode="1"
                   d="M451 0q37 94 52 193t15 210v838h-180l412 340v-1178q0 -111 14 -210t51 -193h-364z"/>
            <glyph glyph-name="two" unicode="2"
                   d="M430 188q261 0 438.5 19t274.5 67v-274h-1123q186 224 329 406t240.5 325t148 248.5t50.5 177.5q0 96 -55.5 146.5t-161.5 50.5q-49 0 -89.5 -17t-70 -48.5t-45.5 -75.5t-16 -99q0 -29 5 -64t16 -77l-219 135q-2 11 -2 22.5v22.5q0 87 33.5 162t92 130.5t138.5 87.5
t174 32q100 0 182.5 -29.5t141 -82t90.5 -125.5t32 -159q0 -87 -43 -184.5t-122 -216t-190.5 -261t-248.5 -319.5z"/>
            <glyph glyph-name="three" unicode="3"
                   d="M739 899q75 -18 135 -55.5t101.5 -91t63.5 -122t22 -147.5q0 -112 -38.5 -204t-110 -157.5t-173 -101.5t-227.5 -36q-244 0 -422 129l150 278q54 -114 131 -168.5t186 -54.5q60 0 111 22t87.5 62.5t57.5 97t21 125.5q0 61 -23 111t-66 84.5t-104.5 53.5t-138.5 19
q-20 0 -43 -1.5t-49 -6.5l358 635q-144 -1 -256.5 -5.5t-195.5 -16.5t-136 -33t-78 -55v290h1006z"/>
            <glyph glyph-name="four" unicode="4"
                   d="M932 332q0 -45 1.5 -87t9 -83t22.5 -81t43 -81h-361q26 39 41.5 78.5t23 80.5t9.5 84t2 89v203h-653v227q51 42 99 95t99 116l258 327q46 58 164 250h264q-14 -55 -18 -118t-4 -138v-573q63 0 124 6.5t120 22.5v-246q-57 15 -118 23t-126 8v-203zM723 721v549l-432 -549
h432z"/>
            <glyph glyph-name="five" unicode="5"
                   d="M240 369q21 -45 54 -81t75 -62t90.5 -40t99.5 -14q62 0 113 21t87.5 59t56.5 90.5t20 116.5q0 137 -92.5 213t-264.5 76q-48 0 -100 -7t-111 -24v598q0 66 -6.5 123.5t-23.5 111.5h870l-84 -243q-56 40 -174 52.5t-305 12.5h-64v-473q25 3 49.5 3.5t47.5 0.5
q115 0 205 -29t151.5 -84t94 -134t32.5 -179q0 -109 -38.5 -199.5t-110 -155t-172.5 -100.5t-226 -36q-248 0 -405 116z"/>
            <glyph glyph-name="six" unicode="6"
                   d="M1073 1550q-74 -65 -143.5 -146.5t-138.5 -178.5l-211 -297q31 3 57 5.5t49 2.5q94 0 174 -35t138.5 -96.5t92 -144.5t33.5 -179q0 -97 -35.5 -184t-103.5 -156q-74 -75 -168 -115t-201 -40q-104 0 -193 36.5t-155 101t-103.5 152t-37.5 189.5q0 69 18.5 137t53.5 131
q57 102 145 225t197 281q30 43 55.5 82.5t44.5 77t31 75t14 76.5h387zM629 197q57 0 104.5 19.5t82 55.5t54 86.5t19.5 112.5q0 60 -18.5 109.5t-52 84.5t-80 54.5t-103.5 19.5q-61 0 -111.5 -21.5t-87 -59.5t-56.5 -90t-20 -113q0 -57 19.5 -104.5t55 -81.5t85 -53
t109.5 -19z"/>
            <glyph glyph-name="seven" unicode="7"
                   d="M508 1346q-63 0 -116.5 -5t-99 -17.5t-84 -34t-71.5 -54.5v315h1028l-458 -1130q-45 -112 -64.5 -197.5t-19.5 -138.5q0 -20 4 -41t10 -43h-393q60 77 115 178.5t108 229.5l383 938h-342z"/>
            <glyph glyph-name="eight" unicode="8"
                   d="M350 823q-86 63 -128 139t-42 173q0 92 35 170.5t95.5 136.5t143.5 90.5t179 32.5q97 0 177 -31.5t137.5 -87.5t89.5 -132t32 -165q0 -105 -43.5 -188t-128.5 -136q111 -52 165 -144t54 -232q0 -99 -37 -183.5t-103 -146.5t-157.5 -97.5t-200.5 -35.5q-106 0 -193.5 33
t-150 92t-97 141t-34.5 180q0 254 207 391zM637 889q50 0 91 17t70.5 47.5t45.5 74t16 96.5q0 113 -60 176.5t-163 63.5q-54 0 -99.5 -18t-78 -49.5t-50.5 -74.5t-18 -94q0 -53 19 -97t52.5 -75.5t78.5 -49t96 -17.5zM633 201q57 0 104.5 18t81.5 51t53 78.5t19 100.5
q0 54 -19 98.5t-54 76.5t-84.5 50t-110.5 18q-58 0 -104.5 -18.5t-79.5 -50.5t-50.5 -75.5t-17.5 -94.5q0 -52 19.5 -97.5t54 -80t82.5 -54.5t106 -20z"/>
            <glyph glyph-name="nine" unicode="9"
                   d="M629 1352q-56 0 -103.5 -19.5t-82 -55.5t-53.5 -86.5t-19 -111.5q0 -58 18 -106.5t51 -83.5t79.5 -54.5t103.5 -19.5q60 0 110 21t86 59t56 89.5t20 113.5q0 56 -19.5 102.5t-54.5 80.5t-84 52.5t-108 18.5zM258 0q66 69 124.5 145.5t109.5 161.5l204 338
q-68 -18 -133 -18q-95 0 -174 30.5t-135.5 86.5t-87.5 135.5t-31 177.5q0 110 39.5 203t108.5 161t163.5 106t204.5 38q103 0 189 -33.5t147.5 -94t96 -146t34.5 -189.5q0 -80 -22 -156t-60 -154t-89 -161.5t-109 -177.5q-39 -63 -73.5 -117t-59.5 -102.5t-39.5 -92.5
t-14.5 -86q0 -12 0.5 -25t3.5 -30h-397z"/>
            <glyph glyph-name="colon" unicode=":" horiz-adv-x="702"
                   d="M182 156q0 33 13 63.5t35.5 53.5t53.5 37t66 14t66 -13.5t53.5 -36t35.5 -53.5t13 -65q0 -36 -13.5 -67.5t-36 -54t-53.5 -35.5t-65 -13q-35 0 -65.5 13t-53 36t-36 54t-13.5 67zM182 924q0 33 13 63t35.5 53t53.5 36.5t66 13.5t66 -13t53.5 -35.5t35.5 -53t13 -64.5
q0 -36 -13.5 -67.5t-36 -54t-53.5 -35.5t-65 -13q-35 0 -65.5 13t-53 36t-36 54t-13.5 67z"/>
            <glyph glyph-name="semicolon" unicode=";" horiz-adv-x="702"
                   d="M43 -289q172 313 172 582q0 32 -2.5 68.5t-7.5 74.5h307q-24 -331 -319 -725h-150zM203 924q0 33 13 63t35.5 53t53 36.5t66.5 13.5q35 0 66 -13t53.5 -35.5t35.5 -53t13 -64.5q0 -36 -13.5 -67.5t-36 -54t-53.5 -35.5t-65 -13q-35 0 -65.5 13t-53 36t-36 54t-13.5 67z
"/>
            <glyph glyph-name="question" unicode="?" horiz-adv-x="1124"
                   d="M209 156q0 33 13 63.5t35.5 53.5t53.5 37t66 14t66 -13.5t53.5 -36t35.5 -53.5t13 -65q0 -36 -13.5 -67.5t-36 -54t-53.5 -35.5t-65 -13q-35 0 -65.5 13t-53 36t-36 54t-13.5 67zM354 432q-14 51 -22 90t-8 70q0 32 5.5 52.5t17 34.5t29.5 24t44 22q21 10 46 20t52.5 23
t57 29t59.5 39q96 72 96 233q0 64 -21 117.5t-59.5 91.5t-91 59t-115.5 21q-71 0 -132.5 -29t-118.5 -86l8 285q81 18 146.5 27.5t115.5 9.5q112 0 207.5 -39.5t165 -107.5t108.5 -160t39 -197q0 -87 -27 -156t-80.5 -125t-134 -103.5t-188.5 -90.5q-35 -14 -65 -25.5
t-55 -27.5t-45 -40t-34 -61z"/>
            <glyph glyph-name="A" unicode="A" horiz-adv-x="1464"
                   d="M344 274q-31 -65 -47 -120.5t-16 -108.5q0 -11 1 -22.5t3 -22.5h-369q119 151 231 379l598 1204l580 -1249q34 -74 87 -157t124 -177h-397q6 40 6 72q0 49 -13 87t-30 77l-105 243h-555zM915 659l-186 441l-203 -441h389z"/>
            <glyph glyph-name="B" unicode="B" horiz-adv-x="1128"
                   d="M123 0q37 94 52 193t15 210v744q0 111 -15 210t-52 193h260q136 0 233.5 -15t159.5 -50q102 -59 155.5 -144t53.5 -184q0 -108 -56.5 -194t-164.5 -140q287 -160 287 -397q0 -95 -40 -173t-117 -134.5t-190.5 -87.5t-261.5 -31h-319zM426 836q70 10 126 37.5t95 68.5
t59.5 93t20.5 112q0 54 -21.5 100.5t-61 81t-95 54.5t-123.5 20v-567zM426 141q14 -2 26.5 -2h24.5q72 0 129.5 22t98 61t62 93t21.5 119q0 64 -25.5 124t-72.5 108.5t-114 82.5t-150 46v-654z"/>
            <glyph glyph-name="C" unicode="C" horiz-adv-x="1503"
                   d="M1384 98q-143 -57 -273.5 -84.5t-248.5 -27.5q-143 0 -267.5 41t-229.5 123q-138 106 -210.5 260.5t-72.5 341.5q0 192 74 351t215 271q240 195 608 195q165 0 375 -51l-2 -273q-91 66 -200.5 99.5t-229.5 33.5q-128 0 -232 -42.5t-177.5 -122.5t-114 -194.5
t-40.5 -258.5q0 -134 39 -241.5t111 -183.5t173 -116.5t226 -40.5q127 0 245 45t238 137z"/>
            <glyph glyph-name="D" unicode="D" horiz-adv-x="1391"
                   d="M438 145q140 0 262 64q78 40 140.5 98t106 129.5t66.5 154.5t23 173q0 126 -42 235t-121 192.5t-192 138t-255 71.5v-1256h12zM123 0q37 94 52 193t15 210v744q0 111 -15 210t-52 193h182q148 0 276 -14.5t244 -60.5q111 -45 200.5 -116t152 -162t96 -198t33.5 -223
q0 -112 -26 -213t-74.5 -187t-118 -155t-156.5 -117q-57 -32 -118.5 -52t-128.5 -31.5t-141 -16t-155 -4.5h-266z"/>
            <glyph glyph-name="E" unicode="E" horiz-adv-x="1085"
                   d="M123 0q37 94 52 193t15 210v744q0 111 -15 210t-52 193h848l-121 -250q-77 50 -178 72.5t-228 22.5h-18v-535h481l-141 -225q-62 32 -146.5 50t-193.5 26v-564q15 0 30.5 -1t30.5 -1q149 0 287 27.5t275 83.5l-117 -256h-809z"/>
            <glyph glyph-name="F" unicode="F" horiz-adv-x="1014"
                   d="M426 403q0 -111 15 -210t53 -193h-371q37 94 52 193t15 210v744q0 111 -15 210t-52 193h883l-121 -250q-78 50 -179 72.5t-231 22.5h-49v-535h514l-139 -225q-71 37 -163.5 54t-211.5 22v-308z"/>
            <glyph glyph-name="G" unicode="G" horiz-adv-x="1616"
                   d="M1485 84q-144 -50 -282.5 -74t-266.5 -24q-197 0 -355 54.5t-269 154.5t-170.5 241.5t-59.5 315.5q0 196 77.5 360t229.5 285q103 81 247.5 124.5t328.5 43.5q197 0 419 -56l-2 -262q-207 133 -467 133q-134 0 -240 -41t-179 -117.5t-111.5 -187t-38.5 -248.5
q0 -134 43 -245t121 -190.5t187.5 -123t242.5 -43.5q71 0 139 10t138 31v207q0 57 -3.5 106t-14 91.5t-30.5 80t-53 72.5h391q-23 -34 -38 -105t-15 -177v-189q0 -66 7 -121.5t24 -105.5z"/>
            <glyph glyph-name="H" unicode="H" horiz-adv-x="1507"
                   d="M1081 1147q0 111 -15 210t-52 193h370q-37 -94 -51 -193t-14 -210v-744q0 -111 14 -210t51 -193h-370q37 94 52 193t15 210v285h-655v-285q0 -111 15 -210t53 -193h-371q37 94 52 193t15 210v744q0 111 -15 210t-52 193h371q-38 -94 -53 -193t-15 -210v-264h655v264z"/>
            <glyph glyph-name="I" unicode="I" horiz-adv-x="616"
                   d="M494 1550q-38 -94 -53 -193t-15 -210v-744q0 -111 15 -210t53 -193h-371q37 94 52 193t15 210v744q0 111 -15 210t-52 193h371z"/>
            <glyph glyph-name="J" unicode="J" horiz-adv-x="750"
                   d="M629 1550q-37 -94 -51.5 -193t-14.5 -210v-854q0 -76 -3 -142t-13.5 -124t-31.5 -109t-58 -96q-57 -69 -135.5 -106.5t-163.5 -37.5q-10 0 -20 0.5t-21 2.5l-148 18q90 45 154 92.5t106 106.5q54 78 75.5 202.5t21.5 302.5v951h-29q-81 0 -157 -8.5t-150 -26.5l65 231
h574z"/>
            <glyph glyph-name="K" unicode="K" horiz-adv-x="1360"
                   d="M494 1550q-38 -94 -53 -193t-15 -210v-275l418 504q37 45 55.5 84t18.5 74v16h415q-167 -122 -272 -250l-369 -440l443 -567q66 -85 130.5 -159t135.5 -134h-416v16q0 50 -23 107t-71 117l-465 587v-424q0 -111 15 -210t53 -193h-371q37 94 52 193t15 210v744
q0 111 -15 210t-52 193h371z"/>
            <glyph glyph-name="L" unicode="L" horiz-adv-x="985"
                   d="M494 1550q-38 -94 -53 -193t-15 -210v-1000q176 16 323.5 49.5t272.5 90.5q-37 -79 -67.5 -150t-55.5 -137h-776q37 94 52 193t15 210v744q0 111 -15 210t-52 193h371z"/>
            <glyph glyph-name="M" unicode="M" horiz-adv-x="1911"
                   d="M436 403q0 -111 14.5 -210t51.5 -193h-369q37 94 51.5 193t14.5 210v983l-162 164h362q2 -43 23 -75.5t49 -67.5l481 -616l486 616q29 37 48.5 69t22.5 74h344q-69 -57 -108 -156.5t-39 -236.5v-754q0 -111 14 -210t52 -193h-371q37 94 52 193t15 210v707l-520 -643
l-512 645v-709z"/>
            <glyph glyph-name="N" unicode="N" horiz-adv-x="1597"
                   d="M403 403q0 -111 14.5 -210t51.5 -193h-346q37 94 52 193t15 210v924l-184 223h395v-10q0 -29 7 -52.5t18.5 -44.5t26.5 -41.5t30 -41.5l707 -985v772q0 111 -14 210t-52 193h346q-37 -94 -52 -193t-15 -210v-762q0 -112 7.5 -207.5t27.5 -177.5h-318q-6 46 -21 87t-40 75
l-656 903v-662z"/>
            <glyph glyph-name="O" unicode="O" horiz-adv-x="1741"
                   d="M1655 784q0 -180 -64 -332t-188 -264q-112 -100 -247 -151t-288 -51q-142 0 -271 45t-241 135q-133 108 -203.5 265.5t-70.5 350.5q0 294 180 504q116 134 277 206.5t350 72.5q158 0 290 -52.5t238 -152.5q116 -112 177 -257t61 -319zM895 172q108 0 200 40t159 112.5
t105 174.5t38 226q0 116 -28 216.5t-79 180.5q-80 127 -193 192.5t-249 65.5q-108 0 -200 -41.5t-158.5 -116t-104 -179t-37.5 -230.5q0 -116 31.5 -219.5t93.5 -194.5q74 -109 184 -168t238 -59z"/>
            <glyph glyph-name="P" unicode="P" horiz-adv-x="1143"
                   d="M426 713q183 6 277 94t94 250q0 180 -85 264t-266 84h-20v-692zM420 1550q146 0 245 -15.5t150 -41.5q127 -65 188.5 -163.5t61.5 -237.5q0 -106 -32.5 -190.5t-95.5 -144t-154 -91t-208 -31.5q-70 0 -149 12v-244q0 -111 15 -210t53 -193h-371q37 94 52 193t15 210v744
q0 111 -15 210t-52 193h297z"/>
            <glyph glyph-name="Q" unicode="Q" horiz-adv-x="1796"
                   d="M1337 111q93 -147 192.5 -252t203.5 -170l-136 -25q-14 -3 -27.5 -3.5t-27.5 -0.5q-114 0 -239 83t-271 251q-40 -5 -75 -6.5t-66 -1.5q-102 0 -192 19.5t-156 53.5q-234 120 -347.5 298t-113.5 425q0 297 186 504q122 136 287.5 207.5t362.5 71.5q164 0 301.5 -51.5
t248.5 -153.5q121 -112 182.5 -257.5t61.5 -320.5q0 -109 -25 -208t-72.5 -184.5t-117.5 -156t-160 -122.5zM924 172q115 0 212.5 40.5t168 113.5t110 175t39.5 224q0 115 -28.5 216t-82.5 181q-83 127 -204 192.5t-265 65.5q-115 0 -211.5 -41.5t-166.5 -116.5t-109 -179.5
t-39 -229.5q0 -116 32.5 -219.5t98.5 -194.5q78 -108 193 -167.5t252 -59.5z"/>
            <glyph glyph-name="R" unicode="R" horiz-adv-x="1245"
                   d="M426 768q87 12 155 40.5t114.5 71t71 98.5t24.5 122q0 68 -25 124t-72 96t-114.5 62t-153.5 23v-637zM426 403q0 -111 15 -210t53 -193h-371q37 94 52 193t15 210v744q0 111 -15 210t-52 193h258q330 0 493.5 -111t163.5 -341q0 -136 -79.5 -234.5t-235.5 -152.5
q116 -190 250.5 -367t292.5 -344h-230q-24 0 -76.5 44t-130 133t-179 223t-224.5 315v-312z"/>
            <glyph glyph-name="S" unicode="S" horiz-adv-x="1067"
                   d="M188 383q53 -100 129.5 -151.5t176.5 -51.5q49 0 89.5 14.5t69 41t44.5 63t16 80.5q0 60 -22 102.5t-61 76.5t-93.5 65t-118.5 69q-74 44 -128.5 86t-90.5 89.5t-54 104.5t-18 130q0 97 36 181.5t99 147t149 98.5t187 36q60 0 128.5 -13t145.5 -41l-10 -270
q-49 62 -115 93.5t-145 31.5q-52 0 -94.5 -15.5t-72.5 -44t-46 -68t-16 -87.5q0 -49 16.5 -87t48.5 -70.5t78.5 -63.5t106.5 -66q63 -37 125.5 -74.5t119.5 -93.5q51 -49 78 -117t27 -153q0 -101 -36 -182.5t-104.5 -138.5t-169 -88t-229.5 -31q-65 0 -128 11.5t-126 33.5z
"/>
            <glyph glyph-name="T" unicode="T" horiz-adv-x="1204"
                   d="M481 1380q-148 -5 -268 -25.5t-219 -68.5l69 264h1172l-100 -260q-82 50 -185 70t-233 20v-977q0 -111 15 -210t52 -193h-370q37 94 52 193t15 210v977z"/>
            <glyph glyph-name="U" unicode="U" horiz-adv-x="1561"
                   d="M1151 172q-247 -188 -467 -188q-82 0 -164 25t-158 75q-42 26 -75 61t-56 78q-19 35 -30 70.5t-16.5 72.5t-7 74.5t-1.5 77.5v629q0 111 -14 210t-51 193h368q-37 -94 -51 -193t-14 -210v-561q0 -94 6 -161.5t35 -111.5q46 -71 127 -111t178 -40q75 0 144.5 28t125.5 80
q35 34 54 71t28 78.5t10.5 88t1.5 100.5v539q0 111 -14 210t-51 193h368q-37 -94 -51 -193t-14 -210v-744q0 -111 14 -210t51 -193h-276v172z"/>
            <glyph glyph-name="V" unicode="V" horiz-adv-x="1413"
                   d="M197 1118q-48 131 -107 237.5t-137 194.5h424q-6 -45 -6 -82q0 -127 71 -325l275 -774l346 909q17 45 25 87t8 79q0 26 -5 52t-16 54h391q-132 -170 -252 -479l-419 -1071h-195z"/>
            <glyph glyph-name="W" unicode="W" horiz-adv-x="1939"
                   d="M641 0h-170l-303 1110q-40 146 -78.5 255.5t-89.5 184.5h395q-12 -38 -19 -77.5t-7 -77.5q0 -47 7 -97t19 -104l187 -780l381 1155l380 -1155l193 723q20 74 32.5 137.5t12.5 122.5q0 34 -5.5 72t-14.5 81h370q-33 -58 -57.5 -116t-44 -115t-35.5 -113t-31 -110
l-305 -1096h-201l-311 920z"/>
            <glyph glyph-name="X" unicode="X" horiz-adv-x="1325"
                   d="M1104 291q45 -74 106.5 -148t139.5 -143h-459q18 46 18 84q0 78 -49 158l-203 331l-161 -258q-57 -91 -85 -166.5t-28 -132.5v-16h-410q87 80 170 181t158 225l234 380l-285 461q-114 187 -240 303h414q-3 -12 -3.5 -22.5t-0.5 -18.5q0 -13 4.5 -35.5t15 -52.5t27 -66.5
t41.5 -76.5l162 -270l174 295q35 61 52 119.5t17 111.5v16h365q-82 -105 -141 -188.5t-95 -144.5l-245 -418z"/>
            <glyph glyph-name="Y" unicode="Y" horiz-adv-x="1147"
                   d="M803 1321q26 45 38.5 91.5t12.5 88.5q0 28 -6 49h356q-52 -72 -92 -131.5t-68 -107.5l-346 -602v-306q0 -111 14.5 -210t51.5 -193h-369q37 94 51.5 193t14.5 210v306l-355 598q-38 66 -82.5 127t-95.5 116h391q-5 -18 -6.5 -32t-1.5 -25q0 -31 13 -71.5t41 -88.5
l223 -397z"/>
            <glyph glyph-name="Z" unicode="Z" horiz-adv-x="1214"
                   d="M748 1374q-19 0 -38.5 1t-37.5 1q-196 0 -348.5 -38.5t-270.5 -118.5l121 331h926l-678 -1360q28 -2 55 -2h53q99 0 188.5 7.5t169.5 24t152.5 44t137.5 66.5l-125 -330h-1006z"/>
            <glyph glyph-name="bracketleft" unicode="[" horiz-adv-x="807"
                   d="M295 1550h395v-161h-198v-1522h198v-162h-395v1845z"/>
            <glyph glyph-name="backslash" unicode="\" horiz-adv-x="645"
                   d="M70 1309q-47 143 -123 256h260q-2 -10 -2 -20v-19q0 -45 10 -91.5t27 -99.5l415 -1269q23 -73 54 -136t69 -120h-262q2 11 2 21.5v21.5q0 83 -35 186z"/>
            <glyph glyph-name="bracketright" unicode="]" horiz-adv-x="807"
                   d="M510 -295h-395v162h200v1522h-200v161h395v-1845z"/>
            <glyph glyph-name="grave" unicode="`" horiz-adv-x="1024"
                   d="M455 1550l204 -348h-131l-295 348h222z"/>
            <glyph glyph-name="a" unicode="a" horiz-adv-x="934"
                   d="M203 1049q65 20 125.5 30.5t120.5 10.5q162 0 247.5 -83t85.5 -247v-490q0 -154 58 -270h-260v154q-48 -36 -92 -72t-85 -74q-33 -12 -69 -12q-60 0 -112.5 20.5t-91 56.5t-61 84t-22.5 103q0 73 33.5 126.5t100.5 99.5t167 89.5t232 96.5q0 9 1 19t1 18q0 219 -205 219
q-54 0 -110 -19.5t-117 -56.5zM580 477h-273q-18 -45 -27.5 -84.5t-9.5 -77.5q0 -153 195 -153q26 0 54.5 2.5t60.5 7.5v305z"/>
            <glyph glyph-name="b" unicode="b" horiz-adv-x="1118"
                   d="M96 0q58 116 58 270v942q0 155 -58 271q75 15 155 32t167 35q-47 -127 -47 -409v-269q40 44 77 86.5t72 85.5q34 17 70.5 25t75.5 8q84 0 153.5 -31t119 -88.5t76.5 -139.5t27 -183q0 -143 -50 -264.5t-144 -206.5q-53 -48 -109 -80t-118 -50.5t-130 -26t-145 -7.5h-250z
M371 178q34 -12 67 -19t68 -7q75 0 134.5 26t101 76t63.5 122.5t22 164.5q0 84 -20.5 151t-57 113.5t-87 71t-109.5 24.5q-46 0 -91 -17t-91 -53v-653z"/>
            <glyph glyph-name="c" unicode="c" horiz-adv-x="909"
                   d="M768 6q-35 -11 -71.5 -15.5t-78.5 -4.5q-125 0 -225 38.5t-170.5 108t-108.5 166t-38 213.5q0 126 42.5 232.5t119.5 183.5t186 120.5t242 43.5q51 0 104.5 -7.5t112.5 -21.5l-19 -246q-57 63 -116 94t-132 31q-71 0 -128 -26t-97 -75t-62 -119.5t-22 -158.5
q0 -98 25 -174.5t72 -129t114 -80t152 -27.5q55 0 111 12t112 37z"/>
            <glyph glyph-name="d" unicode="d" horiz-adv-x="1165"
                   d="M791 844q-83 76 -201 76t-207 -80q-84 -137 -84 -336q0 -81 24 -145.5t69 -109.5t109 -69t144 -24q45 0 80 10.5t66 32.5v645zM791 1212q0 78 -13.5 145t-42.5 126q75 14 154.5 30.5t167.5 36.5q-25 -81 -37 -183t-12 -226v-871q0 -78 13 -144.5t42 -125.5h-272v168
q-143 -170 -316 -170q-80 0 -151.5 33t-125.5 92.5t-86 141t-32 179.5q0 125 43 235t125 195q42 44 90.5 78t99.5 57.5t101.5 35.5t95.5 12q37 0 75.5 -7t80.5 -20v182z"/>
            <glyph glyph-name="e" unicode="e" horiz-adv-x="991"
                   d="M319 508q0 -164 67.5 -251t188.5 -87q60 0 134 22t165 62l-102 -225q-130 -43 -246 -43q-106 0 -187.5 35.5t-137 105.5t-84.5 172.5t-29 237.5q0 128 31.5 230.5t88.5 174t137.5 110t178.5 38.5q181 0 276 -124t95 -370v-43.5t-2 -44.5h-574zM748 639v18q0 295 -203 295
q-209 0 -228 -313h431z"/>
            <glyph glyph-name="f" unicode="f" horiz-adv-x="616"
                   d="M387 270q0 -78 14 -144.5t43 -125.5h-327q29 59 43 126t14 144v654h-106l106 151q-2 19 -2 35.5v32.5q0 199 96.5 304t274.5 105q80 0 182 -30l-35 -226q-32 53 -70.5 78t-91.5 25q-40 0 -67 -15t-43.5 -46t-23.5 -77.5t-7 -109.5v-94h244v-133h-244v-654z"/>
            <glyph glyph-name="g" unicode="g" horiz-adv-x="1038"
                   d="M326 375q-106 46 -158.5 128.5t-52.5 196.5q0 85 29.5 156.5t82 124t125 82t158.5 29.5q65 0 121.5 -15.5t111.5 -46.5h293v-133h-190q29 -50 44 -99t15 -102q0 -78 -28 -142.5t-80.5 -110t-128.5 -70.5t-172 -25q-34 0 -65 3t-62 11q-33 -43 -33 -92q0 -32 22 -51
q20 -5 38 -6.5t32 -1.5q53 0 116 3t138 3q148 0 219.5 -48.5t71.5 -162.5q0 -48 -20 -96t-56 -91t-86 -78t-111 -56q-29 -11 -112.5 -19t-220.5 -8q-26 0 -54 1t-59 1q-43 15 -73 30.5t-48.5 33.5t-26.5 41t-8 55q0 6 1 19.5t3 35.5q63 38 118.5 83t103.5 99
q-115 22 -171.5 49.5t-56.5 69.5q0 25 17 43.5t48 39t73 47.5t92 69zM358 55q-24 -32 -36.5 -60t-12.5 -54q0 -60 49 -91.5t146 -31.5q127 0 194.5 38.5t67.5 100.5q0 53 -38.5 77.5t-117.5 24.5q-40 0 -102.5 -2t-149.5 -2zM535 473q37 0 69 15t55.5 43.5t36.5 69.5t13 93
q0 59 -17.5 109t-47 86.5t-68.5 57t-82 20.5q-40 0 -73.5 -15t-58 -43t-38 -69t-13.5 -92q0 -60 17.5 -110.5t48 -87t71.5 -57t87 -20.5z"/>
            <glyph glyph-name="h" unicode="h" horiz-adv-x="1112"
                   d="M367 270q0 -78 14 -144.5t43 -125.5h-328q58 116 58 270v942q0 155 -58 271q75 15 155 32t167 35q-25 -81 -38 -183t-13 -226v-242q35 29 74 67t81 83q35 21 73 31t83 10q65 0 123.5 -25.5t95.5 -67.5q21 -24 34 -48.5t19.5 -49t8.5 -49t2 -49.5v-531q0 -78 14 -144.5
t43 -125.5h-328q58 116 58 270v465q0 90 -48.5 134t-150.5 44q-88 0 -182 -55v-588z"/>
            <glyph glyph-name="i" unicode="i" horiz-adv-x="537"
                   d="M115 1382q0 32 12 60t32.5 49t48.5 33t60 12t60 -12t49 -33t33 -49t12 -60t-12 -60t-33 -48.5t-49 -32.5t-60 -12t-59.5 12t-48.5 33t-33 48.5t-12 59.5zM162 807q0 152 -58 268h328q-29 -59 -43 -125t-14 -143v-537q0 -78 14 -144.5t43 -125.5h-328q58 116 58 270v537z
"/>
            <glyph glyph-name="j" unicode="j" horiz-adv-x="502"
                   d="M102 1382q0 32 12 60t33 49t49 33t60 12t60 -12t49 -33t33 -49t12 -60t-12 -60t-33 -48.5t-49 -32.5t-60 -12t-60 12t-49 33t-33 48.5t-12 59.5zM362 188q0 -77 -5.5 -146.5t-23.5 -134t-52.5 -126t-92.5 -123.5h-192q49 54 79.5 109t47 114t22 123.5t5.5 136.5v666
q0 152 -58 268h328q-58 -116 -58 -268v-619z"/>
            <glyph glyph-name="k" unicode="k" horiz-adv-x="999"
                   d="M418 1550q-25 -81 -38 -183t-13 -226v-535l268 332q54 66 57 137h328q-68 -54 -111.5 -94t-64.5 -66l-246 -305l270 -436q62 -99 158 -174h-369q2 6 2 13v14q0 67 -38 127l-254 415v-299q0 -78 14 -144.5t43 -125.5h-328q58 116 58 270v942q0 155 -58 271q75 15 155 32
t167 35z"/>
            <glyph glyph-name="l" unicode="l" horiz-adv-x="530"
                   d="M422 1550q-25 -81 -37 -183t-12 -226v-871q0 -78 13 -144.5t42 -125.5h-326q58 116 58 270v942q0 155 -58 271q75 15 154 32t166 35z"/>
            <glyph glyph-name="m" unicode="m" horiz-adv-x="1645"
                   d="M721 715q0 103 -44 156t-124 53q-53 0 -95.5 -24.5t-82.5 -74.5v-557q0 -77 14 -143t43 -125h-328q58 116 58 268v535q0 74 -14.5 140.5t-43.5 131.5h271v-201q31 56 61 97t64 68t73.5 40t90.5 13q198 0 260 -220q32 58 63 99.5t65.5 68.5t75 39.5t93.5 12.5
q130 0 201 -82t71 -238v-504q0 -77 14 -143t43 -125h-327q29 59 43 125t14 143v447q0 103 -42.5 156t-123.5 53q-53 0 -96.5 -24.5t-83.5 -74.5v-557q0 -77 14 -143t43 -125h-327q57 117 57 268v447z"/>
            <glyph glyph-name="n" unicode="n" horiz-adv-x="1118"
                   d="M375 270q0 -78 14 -144.5t43 -125.5h-328q58 116 58 270v537q0 152 -58 268h271v-176q35 29 73 67t80 83q69 41 156 41q65 0 124.5 -25.5t96.5 -67.5q21 -24 33.5 -47t18.5 -46.5t8 -47t2 -47.5v-539q0 -78 14 -144.5t43 -125.5h-328q58 116 58 270v465q0 90 -48.5 134
t-150.5 44q-86 0 -180 -55v-588z"/>
            <glyph glyph-name="o" unicode="o" horiz-adv-x="1176"
                   d="M571 1092q124 -4 221 -42.5t164 -107t102.5 -164.5t35.5 -215q0 -143 -49 -253t-152 -193q-96 -65 -180.5 -98t-159.5 -33q-68 0 -137.5 22.5t-134.5 69.5q-96 68 -148.5 178.5t-52.5 249.5q0 118 34 218.5t98 177t154.5 126t204.5 64.5zM702 150q44 26 79.5 65.5t61 88
t39 105.5t13.5 117q0 91 -27 167.5t-72 131t-103.5 85t-121.5 30.5q-54 0 -102 -26t-84 -73.5t-57 -115t-21 -150.5q0 -95 28 -173t79 -134t121.5 -87t154.5 -31h12z"/>
            <glyph glyph-name="p" unicode="p" horiz-adv-x="1139"
                   d="M375 872q42 51 80.5 89.5t77 65t77.5 39.5t82 13q75 0 141.5 -36t116.5 -102t79.5 -160.5t29.5 -211.5q0 -120 -32.5 -219t-87.5 -170.5t-128.5 -111t-155.5 -39.5q-71 0 -137 31.5t-143 91.5v-224q0 -77 14 -144t43 -126h-328q58 116 58 270v879q0 80 -15 145.5
t-43 122.5h271v-203zM375 231q42 -26 82 -39.5t82 -13.5q65 0 119.5 26.5t93.5 75t60.5 118t21.5 155.5q0 81 -20 146t-55.5 110.5t-85.5 69.5t-110 24q-94 0 -188 -72v-600z"/>
            <glyph glyph-name="q" unicode="q" horiz-adv-x="1128"
                   d="M965 -72q0 -77 14 -144t43 -126h-328q58 116 58 270v299l-156 -174q-61 -28 -123 -28q-87 0 -158.5 32t-123.5 92.5t-80.5 147.5t-28.5 197q0 134 48 244.5t137.5 189t216 121.5t284.5 43q43 0 103 -6t139 -15q-23 -69 -34 -130.5t-11 -115.5v-897zM752 918
q-45 8 -81.5 12t-64.5 4q-145 0 -224 -101t-79 -288q0 -167 67.5 -246.5t211.5 -79.5q48 0 88.5 10t81.5 33v656z"/>
            <glyph glyph-name="r" unicode="r" horiz-adv-x="752"
                   d="M375 862q33 59 62.5 102.5t61.5 72t69 42t85 13.5q35 0 68.5 -7.5t64.5 -21.5l-43 -252q-29 45 -73 68.5t-97 23.5q-108 0 -198 -90v-543q0 -78 14 -144.5t43 -125.5h-328q58 116 58 270v537q0 80 -15 145.5t-43 122.5h271v-213z"/>
            <glyph glyph-name="s" unicode="s" horiz-adv-x="868"
                   d="M117 315q62 -99 135.5 -147.5t148.5 -48.5q32 0 58.5 10t45.5 27.5t29.5 42.5t10.5 55q0 40 -15.5 68t-44 51.5t-67.5 46t-86 51.5q-102 63 -151.5 134t-49.5 165q0 70 28.5 129t81.5 102t128 67t168 24q54 0 106.5 -11t108.5 -32l-2 -207q-107 106 -228 106
q-72 0 -113.5 -38t-41.5 -101q0 -40 15 -68t42 -50.5t64 -43t81 -45.5q53 -31 92.5 -63t66 -68.5t39.5 -78t13 -91.5q0 -71 -29 -129t-84 -100t-134 -65t-179 -23q-59 0 -121 10t-131 29z"/>
            <glyph glyph-name="t" unicode="t" horiz-adv-x="692"
                   d="M377 383q0 -59 5 -99.5t19 -66.5t40.5 -37.5t68.5 -11.5q88 0 201 49l-86 -184q-104 -49 -236 -49q-79 0 -124 22t-67.5 67t-28 112t-5.5 157v582h-137q83 93 169.5 195.5t180.5 217.5v-280h268v-133h-268v-541z"/>
            <glyph glyph-name="u" unicode="u" horiz-adv-x="1118"
                   d="M743 807q0 77 -13 143t-42 125h326q-29 -59 -42.5 -125t-13.5 -143v-537q0 -78 13.5 -144.5t42.5 -125.5h-271v178q-48 -42 -92 -86t-86 -90q-28 -9 -54 -13.5t-54 -4.5q-57 0 -107 14.5t-90 40.5q-39 25 -61 53.5t-32.5 60.5t-12.5 68.5t-2 77.5v508q0 152 -58 268h328
q-29 -59 -43 -125t-14 -143v-467q0 -90 48 -133t150 -43q45 0 88.5 12.5t91.5 40.5v590z"/>
            <glyph glyph-name="v" unicode="v" horiz-adv-x="977"
                   d="M133 807q-25 78 -55 144.5t-78 123.5h336q-9 -31 -14 -58.5t-5 -51.5q0 -29 7 -60.5t18 -66.5l180 -590l183 604q12 40 18 79t6 81q0 15 -1 30.5t-3 32.5h260q-87 -139 -137 -303l-232 -772h-229z"/>
            <glyph glyph-name="w" unicode="w" horiz-adv-x="1470"
                   d="M743 754l-194 -754h-209l-205 768q-31 118 -67 194t-68 113h344q-12 -42 -18.5 -73t-6.5 -56t3 -48t8 -46l133 -586l207 809h176l215 -792l133 530q11 45 17 84t6 68q0 27 -7.5 54t-21.5 56h291q-84 -107 -140 -325l-188 -750h-203z"/>
            <glyph glyph-name="x" unicode="x" horiz-adv-x="977"
                   d="M176 881q-37 60 -74.5 108t-81.5 86h357q-5 -21 -6.5 -38t-1.5 -31q0 -23 6.5 -47t21.5 -50l117 -194l98 151q26 41 39 80t13 74q0 11 -1.5 24.5t-5.5 30.5h322q-48 -45 -90.5 -100t-87.5 -123l-187 -287l211 -346q41 -65 84 -119.5t92 -99.5h-350q6 21 6 45
q0 57 -41 125l-131 223l-131 -209q-15 -23 -22.5 -48t-7.5 -48q0 -17 2.5 -38.5t7.5 -49.5h-338q56 59 100 113.5t78 105.5l219 320z"/>
            <glyph glyph-name="y" unicode="y" horiz-adv-x="999"
                   d="M129 817q-40 93 -81.5 157t-78.5 101h355q-11 -41 -11 -69t6.5 -62t20.5 -70l186 -471l160 426q20 51 28.5 94.5t8.5 75.5q0 17 -2 36t-8 40h315q-34 -45 -60 -91.5t-47.5 -93.5t-40.5 -93.5t-38 -91.5l-221 -527q-90 -213 -162.5 -342.5t-120.5 -177.5h-272
q111 105 198 231.5t150 278.5z"/>
            <glyph glyph-name="z" unicode="z" horiz-adv-x="877"
                   d="M492 932q-28 2 -54 3t-51 1q-96 0 -170.5 -15t-136.5 -51l39 205h676l-433 -923q26 -4 51 -4.5t48 -0.5q97 0 180 21t156 68l-62 -236h-680z"/>
            <glyph glyph-name="Euro" unicode="&#x20ac;"
                   d="M59 850q-31 0 -59 -5t-57 -18l82 185q21 -13 41.5 -18t42.5 -5h49q34 138 101 246t162.5 182.5t217.5 113t266 38.5q78 0 158 -13.5t168 -37.5l-2 -281q-171 133 -361 133q-84 0 -158.5 -26t-136 -74.5t-106.5 -119.5t-70 -161h598q17 0 41.5 5t53.5 18l-84 -185
q-43 25 -78 25h-553q-2 -17 -2 -35v-35v-34t2 -48h497q37 0 89 25l-84 -184q-17 12 -34.5 17t-37.5 5h-408q17 -87 58 -156.5t98.5 -118t129 -74.5t148.5 -26q59 0 113 12t106.5 35t105 57t108.5 79l-11 -273q-125 -55 -236.5 -83.5t-213.5 -28.5q-124 0 -231 38.5
t-192 112.5t-145 181.5t-90 244.5h-86q-31 0 -59 -6t-57 -18l82 186q21 -12 41.5 -18.5t42.5 -6.5h22q0 10 -1 19t-1 18q0 10 0.5 38.5t5.5 76.5z"/>
            <glyph glyph-name="quotesinglbase" unicode="&#x201a;" horiz-adv-x="659"
                   d="M70 -72q76 120 119.5 206.5t43.5 154.5q0 38 -11 74t-36 73h299q2 -8 2 -16.5v-16.5q0 -106 -61.5 -221t-179.5 -254h-176z"/>
            <glyph glyph-name="florin" unicode="&#x192;"
                   d="M1077 1311q-29 38 -62 56.5t-65 18.5q-42 0 -70.5 -17t-48.5 -51.5t-33 -87.5t-24 -126l-18 -131q68 2 126 8t109 18l-16 -204q-54 21 -109 31t-112 10h-17l-65 -494q-23 -174 -52.5 -303t-76 -213.5t-115 -126t-168.5 -41.5q-91 0 -184 43l43 209q20 -37 50.5 -56.5
t66.5 -19.5q56 0 89 34t53.5 104t35 177t32.5 252l56 435q-63 -2 -120.5 -11t-107.5 -24l27 211q53 -20 102 -29.5t99 -9.5h14q21 154 51.5 265t78 183t116 106t166.5 34q49 0 95.5 -10.5t94.5 -28.5z"/>
            <glyph glyph-name="quotedblbase" unicode="&#x201e;" horiz-adv-x="1114"
                   d="M70 -72q76 120 119.5 206.5t43.5 154.5q0 38 -11 74t-36 73h299q2 -8 2 -16.5v-16.5q0 -106 -61.5 -221t-179.5 -254h-176zM524 -72q77 120 121.5 206.5t44.5 154.5q0 74 -49 147h301q2 -8 2 -16.5v-16.5q0 -106 -63 -221t-181 -254h-176z"/>
            <glyph glyph-name="ellipsis" unicode="&#x2026;" horiz-adv-x="2048"
                   d="M174 156q0 33 13 63.5t35.5 53.5t53.5 37t66 14t66 -13.5t53.5 -36t35.5 -53.5t13 -65q0 -36 -13.5 -67.5t-36 -54t-53.5 -35.5t-65 -13q-35 0 -65.5 13t-53 36t-36 54t-13.5 67zM856 156q0 33 13 63.5t35.5 53.5t53.5 37t66 14t66 -13.5t53.5 -36t35.5 -53.5t13 -65
q0 -36 -13.5 -67.5t-36 -54t-53.5 -35.5t-65 -13q-35 0 -65.5 13t-53 36t-36 54t-13.5 67zM1540 156q0 33 13 63.5t35.5 53.5t53.5 37t66 14t66 -13.5t53.5 -36t35.5 -53.5t13 -65q0 -36 -13.5 -67.5t-36 -54t-53.5 -35.5t-65 -13q-35 0 -65.5 13t-53 36t-36 54t-13.5 67z
"/>
            <glyph glyph-name="dagger" unicode="&#x2020;" horiz-adv-x="1290"
                   d="M748 94q0 -137 18.5 -238.5t50.5 -164.5h-348q32 65 51 165.5t19 237.5v692h-207q-62 0 -126 -10.5t-130 -32.5v265q65 -22 129 -31.5t127 -9.5h207v180q0 137 -19 237.5t-51 165.5h348q-32 -63 -50.5 -164.5t-18.5 -238.5v-180h208q63 0 126 9.5t128 31.5v-265
q-130 43 -254 43h-208v-692z"/>
            <glyph glyph-name="daggerdbl" unicode="&#x2021;" horiz-adv-x="1290"
                   d="M748 473h208q126 0 254 43v-266q-130 43 -254 43h-208v-199q0 -137 18.5 -238.5t50.5 -164.5h-348q32 65 51 165.5t19 237.5v199h-207q-62 0 -126 -10.5t-130 -32.5v266q128 -43 256 -43h207v445h-207q-122 0 -256 -44v267q128 -43 256 -43h207v49q0 137 -19 237.5
t-51 165.5h348q-32 -63 -50.5 -164.5t-18.5 -238.5v-49h208q126 0 254 43v-267q-66 22 -129 33t-125 11h-208v-445z"/>
            <glyph glyph-name="circumflex" unicode="&#x2c6;" horiz-adv-x="1024"
                   d="M621 1550l188 -348h-131l-166 209l-168 -209h-129l188 348h218z"/>
            <glyph glyph-name="perthousand" unicode="&#x2030;" horiz-adv-x="2740"
                   d="M418 1567q84 -2 154.5 -34.5t120.5 -91t78 -141t28 -182.5q0 -107 -29.5 -192t-80 -145t-118.5 -92t-145 -32q-75 0 -140 32t-113 90.5t-75.5 141t-27.5 183.5q0 95 24 174.5t69 139t109.5 98t145.5 51.5zM250 1104q0 -65 16 -118.5t42 -91.5t60 -58.5t70 -20.5
q39 0 72 19t57 55.5t37.5 90.5t13.5 124q0 71 -14.5 127.5t-40.5 95.5t-61 59.5t-76 20.5q-36 0 -68 -20.5t-56 -59t-38 -95t-14 -128.5zM1434 893q84 -2 154.5 -34.5t120.5 -91t78 -140.5t28 -183q0 -107 -29.5 -192t-80.5 -144.5t-120 -91.5t-149 -32q-72 0 -135.5 31.5
t-111.5 89.5t-76 140t-28 183q0 95 24.5 175t69.5 140t109.5 98.5t145.5 51.5zM1266 434q0 -65 16 -118.5t43 -91.5t61 -58.5t70 -20.5q39 0 71.5 19t56 55.5t37 90.5t13.5 124q0 72 -15 128t-40.5 95t-61 59.5t-75.5 20.5q-36 0 -68 -20t-56 -59t-38 -95.5t-14 -128.5z
M1440 1565q-75 -89 -125 -191l-590 -1210q-44 -92 -59 -178h-220q73 84 125 190l590 1210q22 44 36 89t22 90h221zM2288 893q84 -2 154 -34.5t119.5 -91t77 -140.5t27.5 -183q0 -107 -29 -192t-80 -144.5t-120 -91.5t-149 -32q-72 0 -135.5 31.5t-111 89.5t-75 140
t-27.5 183q0 95 24.5 175t69.5 140t109.5 98.5t145.5 51.5zM2492 449q0 64 -16 117.5t-42.5 91t-60.5 58.5t-71 21q-38 0 -70.5 -19t-56.5 -55.5t-37.5 -90t-13.5 -123.5q0 -72 15 -128.5t40.5 -95.5t60.5 -59.5t76 -20.5q36 0 68 20.5t56 59.5t38 95.5t14 128.5z"/>
            <glyph glyph-name="guilsinglleft" unicode="&#x2039;" horiz-adv-x="721"
                   d="M666 973q-31 -28 -60.5 -61.5t-60.5 -71.5l-238 -303l238 -301q31 -39 60.5 -73.5t60.5 -60.5h-287q0 3 1 6.5t1 6.5q0 28 -21 62.5t-59 82.5l-221 277l221 278q38 48 59 83t21 63q0 3 -1 6t-1 6h287z"/>
            <glyph glyph-name="OE" unicode="&#x152;" horiz-adv-x="2099"
                   d="M1204 1354q-72 12 -135 19t-117 7q-144 0 -256 -39.5t-189 -114t-117 -182t-40 -243.5q0 -143 44 -259.5t123.5 -199.5t191 -128.5t245.5 -45.5q45 0 107.5 6.5t142.5 20.5v1159zM1382 0q-102 0 -220.5 -8t-254.5 -8q-191 0 -344 55t-260 156.5t-165 245.5t-58 321
q0 312 188 530q113 130 276.5 198.5t370.5 68.5q82 0 215 -4.5t322 -4.5h533l-121 -250q-147 95 -406 95h-16v-535h479l-139 -225q-62 32 -146.5 50t-193.5 26v-564q15 0 30.5 -1t30.5 -1q149 0 286 27.5t273 83.5l-114 -256h-566z"/>
            <glyph glyph-name="quoteleft" unicode="&#x2018;" horiz-adv-x="659"
                   d="M578 1550q-77 -119 -121.5 -205t-44.5 -155q0 -77 49 -148h-301q-2 8 -2 16.5v16.5q0 106 62 221.5t181 253.5h177z"/>
            <glyph glyph-name="quoteright" unicode="&#x2019;" horiz-adv-x="659"
                   d="M115 1042q38 60 69 111t52.5 95.5t33 82.5t11.5 72q0 38 -12.5 74t-37.5 73h301q2 -8 2.5 -16t0.5 -16q0 -107 -63 -222t-181 -254h-176z"/>
            <glyph glyph-name="quotedblleft" unicode="&#x201c;" horiz-adv-x="1114"
                   d="M578 1550q-77 -119 -121.5 -205t-44.5 -155q0 -77 49 -148h-301q-2 8 -2 16.5v16.5q0 106 62 221.5t181 253.5h177zM1032 1550q-38 -60 -69 -110.5t-52.5 -94.5t-33 -82.5t-11.5 -72.5q0 -75 49 -148h-301q-2 10 -2 19v18q0 94 59 209.5t185 261.5h176z"/>
            <glyph glyph-name="quotedblright" unicode="&#x201d;" horiz-adv-x="1114"
                   d="M115 1042q38 60 69 111t52.5 95.5t33 82.5t11.5 72q0 38 -12.5 74t-37.5 73h301q2 -8 2.5 -16t0.5 -16q0 -107 -63 -222t-181 -254h-176zM569 1042q77 120 121.5 206.5t44.5 154.5q0 74 -49 147h301q2 -8 2 -16v-16q0 -107 -61.5 -222t-179.5 -254h-179z"/>
            <glyph glyph-name="endash" unicode="&#x2013;" horiz-adv-x="1024"
                   d="M0 635h1024v-170h-1024v170z"/>
            <glyph glyph-name="emdash" unicode="&#x2014;" horiz-adv-x="2048"
                   d="M0 635h2048v-170h-2048v170z"/>
            <glyph glyph-name="tilde" unicode="&#x2dc;" horiz-adv-x="1024"
                   d="M813 1487q-22 -110 -68.5 -167.5t-132.5 -57.5q-17 0 -33.5 2.5t-33.5 7.5l-84 22q-19 5 -35 9t-29 4q-34 0 -54.5 -17t-31.5 -51h-100q40 219 192 219q17 0 38.5 -4t45.5 -10l88 -25q14 -3 26 -4.5t26 -1.5q31 0 53.5 18.5t32.5 55.5h100z"/>
            <glyph glyph-name="guilsinglright" unicode="&#x203a;" horiz-adv-x="721"
                   d="M55 102q31 26 59.5 60.5t59.5 73.5l240 301l-240 303q-31 38 -59.5 71.5t-59.5 61.5h287q0 -3 -1 -6.5t-1 -8.5q0 -26 20 -60.5t58 -82.5l221 -278l-221 -277q-38 -48 -58 -82.5t-20 -60.5q0 -5 1 -8.5t1 -6.5h-287v0z"/>
            <glyph glyph-name="oe" unicode="&#x153;" horiz-adv-x="1753"
                   d="M678 150q40 26 73.5 65t57 87.5t36.5 104.5t13 117q0 93 -25 169.5t-67 131.5t-97 85t-114 30q-51 0 -96 -25.5t-78.5 -73t-53.5 -115t-20 -151.5q0 -96 26.5 -174.5t74.5 -134t114.5 -86t145.5 -30.5h10zM862 117q-93 -65 -173 -98t-154 -33q-65 0 -133 22.5t-130 69.5
q-92 68 -142 177.5t-50 250.5q0 119 33 219.5t94 177t148.5 125.5t195.5 64q133 -4 230.5 -49t166.5 -138q60 94 144 139.5t196 45.5q183 0 278 -124t95 -370v-43.5t-2 -44.5h-576q0 -164 68.5 -251t189.5 -87q60 0 134 22t165 62l-102 -225q-133 -43 -246 -43
q-130 0 -219 48t-143 150zM1513 639v16q0 297 -204 297q-209 0 -228 -313h432z"/>
            <glyph glyph-name="Ydieresis" unicode="&#x178;" horiz-adv-x="1147"
                   d="M803 1321q26 45 38.5 91.5t12.5 88.5q0 28 -6 49h356q-52 -72 -92 -131.5t-68 -107.5l-346 -602v-306q0 -111 14.5 -210t51.5 -193h-369q37 94 51.5 193t14.5 210v306l-355 598q-38 66 -82.5 127t-95.5 116h391q-5 -18 -6.5 -32t-1.5 -25q0 -31 13 -71.5t41 -88.5
l223 -397zM634 1817q0 24 10 45.5t26.5 38t38.5 26t46 9.5q25 0 46.5 -9.5t37.5 -25.5t25.5 -37.5t9.5 -46.5q0 -54 -33 -87.5t-86 -33.5q-25 0 -47 9t-38.5 25t-26 38.5t-9.5 48.5zM270 1817q0 24 9.5 45.5t26 38t38.5 26t47 9.5q24 0 46 -9.5t38 -25.5t25.5 -37.5
t9.5 -46.5q0 -54 -33.5 -87.5t-85.5 -33.5q-26 0 -48 9t-38 25t-25.5 38.5t-9.5 48.5z"/>
            <glyph glyph-name="nonbreakingspace" unicode="&#xa0;" horiz-adv-x="631"
            />
            <glyph glyph-name="exclamdown" unicode="&#xa1;" horiz-adv-x="702"
                   d="M518 1395q0 -33 -13.5 -63.5t-36.5 -53.5t-54 -37t-66 -14t-66 13.5t-53.5 36.5t-35.5 54t-13 66t13.5 66t36 53.5t53 35.5t65.5 13q34 0 65 -13.5t54.5 -36.5t37 -54t13.5 -66zM350 1135q34 -39 56 -85.5t34 -102.5t16.5 -122.5t4.5 -144.5v-387q0 -78 20.5 -153
t61.5 -140h-387q42 66 63 142t21 151v387q0 78 4 144.5t16 122.5t33.5 102.5t56.5 85.5z"/>
            <glyph glyph-name="cent" unicode="&#xa2;"
                   d="M1022 1053q-63 63 -125 92.5t-125 34.5v-793h19q69 0 135.5 11t128.5 36l-133 -192q-32 -8 -65 -13.5t-69 -5.5h-16v-69q0 -45 5.5 -82.5t19.5 -71.5h-189q25 63 25 145v84q-102 13 -186 57.5t-143 112.5t-91.5 156.5t-32.5 189.5q0 104 31.5 195.5t90 165t142.5 125.5
t189 76q-3 83 -25 180h189q-10 -38 -16.5 -78t-8.5 -82q65 0 132 -6.5t138 -22.5zM633 1165q-110 -38 -170 -132.5t-60 -233.5q0 -144 56 -238t174 -145v749z"/>
            <glyph glyph-name="sterling" unicode="&#xa3;"
                   d="M123 0q101 146 150 316.5t57 377.5q-63 -2 -121.5 -13t-112.5 -34v252q59 -19 120 -28.5t126 -12.5v53q0 168 29.5 291t91.5 203.5t158 120t229 39.5q151 0 311 -68l-20 -278q-78 83 -155.5 125t-162.5 42q-76 0 -126.5 -31t-81 -96t-44.5 -164.5t-16 -236.5
q78 0 151 11.5t142 39.5v-270q-183 52 -301 55q-5 -160 -28.5 -285.5t-78.5 -222.5q108 -6 205 -6q189 0 341 26.5t276 88.5l-129 -295h-1010v0z"/>
            <glyph glyph-name="yen" unicode="&#xa5;"
                   d="M481 0q37 94 51.5 193t14.5 210v250h-328q-86 0 -151 -26v176q34 -14 71 -20.5t80 -6.5h283l-123 211h-160q-43 0 -80 -5t-71 -19v176q34 -14 71 -20.5t80 -6.5h84l-110 195q-35 58 -79 119t-100 124h344q-5 -18 -6.5 -32t-1.5 -25q0 -31 13 -71.5t40 -88.5l250 -444
l240 432q25 46 38 88t13 84q0 14 -1.5 28.5t-4.5 28.5h303q-51 -69 -91 -128.5t-69 -110.5l-114 -199h80q43 0 80 6.5t71 20.5v-176q-34 14 -71 19t-80 5h-150l-123 -211h273q43 0 80 6.5t71 20.5v-176q-65 26 -151 26h-312v-250q0 -111 15.5 -210t52.5 -193h-322v0z"/>
            <glyph glyph-name="section" unicode="&#xa7;" horiz-adv-x="1090"
                   d="M373 868q-110 54 -163.5 129.5t-53.5 178.5q0 87 32 159t92 123t147 79t198 28q60 0 120 -9t125 -26l-43 -252q-116 111 -252 111q-43 0 -77.5 -13.5t-59 -37t-38 -55.5t-13.5 -69q0 -42 15.5 -73t46 -56t76 -47t104.5 -47q70 -29 123.5 -54.5t89.5 -57.5t54.5 -76
t18.5 -111q0 -54 -10 -93t-24 -56q-6 -8 -20 -16.5t-35 -20t-48.5 -27t-60.5 -37.5q113 -44 171 -115.5t58 -185.5q0 -87 -30 -156t-88.5 -116.5t-143.5 -72.5t-195 -25q-66 0 -136.5 11t-147.5 34v311q128 -180 311 -180q43 0 77.5 12t58.5 34t37 51.5t13 64.5q0 51 -18 82
t-52.5 52.5t-84 39t-113.5 43.5q-65 26 -114 52t-81.5 60t-48.5 80t-16 111q0 51 8.5 84.5t18.5 46.5q6 7 21 16t37.5 21t51 29.5t62.5 41.5zM399 858q-32 -57 -32 -145q0 -56 18 -92.5t55.5 -63.5t96 -50t139.5 -52q26 46 39.5 84t13.5 75q0 48 -21.5 80t-63.5 58
t-103.5 50t-141.5 56z"/>
            <glyph glyph-name="dieresis" unicode="&#xa8;" horiz-adv-x="1024"
                   d="M573 1366q0 24 10 45.5t26.5 38t38.5 26t46 9.5q25 0 46.5 -9.5t37.5 -25.5t25.5 -37.5t9.5 -46.5q0 -54 -33 -87.5t-86 -33.5q-25 0 -47 9t-38.5 25t-26 38.5t-9.5 48.5zM209 1366q0 24 9.5 45.5t26 38t38.5 26t47 9.5q24 0 46 -9.5t38 -25.5t25.5 -37.5t9.5 -46.5
q0 -54 -33.5 -87.5t-85.5 -33.5q-26 0 -48 9t-38 25t-25.5 38.5t-9.5 48.5z"/>
            <glyph glyph-name="ordfeminine" unicode="&#xaa;" horiz-adv-x="700"
                   d="M152 1530q49 14 94 21.5t90 7.5q122 0 187 -57.5t65 -172.5v-344q0 -54 10 -100t33 -88h-197v106q-35 -25 -68.5 -49.5t-62.5 -50.5q-12 -5 -25.5 -6.5t-27.5 -1.5q-45 0 -84 14t-68 38.5t-46 58.5t-17 73q0 51 25 88t75.5 69t125 63t173.5 69q0 6 1 12.5t1 11.5
q0 154 -153 154q-41 0 -82.5 -13.5t-87.5 -39.5zM434 1130h-203q-28 -62 -28 -112q0 -109 145 -109q20 0 41.5 2.5t44.5 6.5v212z"/>
            <glyph glyph-name="guillemotleft" unicode="&#xab;" horiz-adv-x="1204"
                   d="M666 973q-31 -28 -60.5 -61.5t-60.5 -71.5l-238 -303l238 -301q31 -39 60.5 -73.5t60.5 -60.5h-287q0 3 1 6.5t1 6.5q0 28 -21 62.5t-59 82.5l-221 277l221 278q38 48 59 83t21 63q0 3 -1 6t-1 6h287zM1149 973q-31 -28 -59.5 -61.5t-59.5 -71.5l-239 -303l239 -301
q31 -39 59.5 -73.5t59.5 -60.5h-287q0 3 1 6.5t1 8.5q0 26 -19.5 60.5t-58.5 82.5l-223 277l223 278q39 48 58.5 82.5t19.5 60.5q0 5 -1 8.5t-1 6.5h287z"/>
            <glyph glyph-name="macron" unicode="&#xaf;" horiz-adv-x="1024"
                   d="M643 1436q42 0 79 5t69 17v-186q-35 12 -70.5 17t-77.5 5h-262q-42 0 -79 -5t-71 -17v186q32 -12 70 -17t80 -5h262z"/>
            <glyph glyph-name="acute" unicode="&#xb4;" horiz-adv-x="1024"
                   d="M791 1550l-295 -348h-131l204 348h222z"/>
            <glyph glyph-name="periodcentered" unicode="&#xb7;" horiz-adv-x="631"
                   d="M160 776q0 31 12 59t32.5 49t49 33.5t61.5 12.5q32 0 60.5 -12t49.5 -33t33.5 -49t12.5 -60q0 -34 -12.5 -63t-34 -50t-50 -33t-59.5 -12q-32 0 -60.5 12.5t-49.5 33.5t-33 50t-12 62z"/>
            <glyph glyph-name="cedilla" unicode="&#xb8;" horiz-adv-x="1024"
                   d="M557 0v-94h16q119 0 177.5 -47t58.5 -146q0 -188 -264 -188q-35 0 -101 8t-157 33v119q161 -41 256 -41q108 0 108 75q0 44 -34 61t-105 17q-11 0 -22 -1t-23 -1v205h90z"/>
            <glyph glyph-name="ordmasculine" unicode="&#xba;" horiz-adv-x="883"
                   d="M428 1561q93 -3 166 -30t123.5 -75t77 -115t26.5 -151q0 -197 -151 -311q-143 -93 -254 -93q-51 0 -104 17t-101 49q-72 46 -112 124t-40 175q0 83 25.5 153.5t73.5 123.5t116.5 87.5t153.5 45.5zM526 901q33 18 60 46t46 62.5t29.5 74t10.5 81.5q0 64 -20.5 117t-54 91
t-77.5 59.5t-92 21.5q-41 0 -77 -18t-62.5 -51t-42 -80t-15.5 -105q0 -67 21 -122t59 -94.5t90.5 -61t116.5 -21.5h8z"/>
            <glyph glyph-name="guillemotright" unicode="&#xbb;" horiz-adv-x="1204"
                   d="M55 102q31 26 59.5 60.5t59.5 73.5l240 301l-240 303q-31 38 -59.5 71.5t-59.5 61.5h287q0 -3 -1 -6.5t-1 -8.5q0 -26 20 -60.5t58 -82.5l221 -278l-221 -277q-38 -48 -58 -82.5t-20 -60.5q0 -5 1 -8.5t1 -6.5h-287zM539 102q31 26 60 60.5t60 73.5l238 301l-238 303
q-31 38 -60 71.5t-60 61.5h286q0 -3 -1 -6t-1 -6q0 -28 21 -63t59 -83l221 -278l-221 -277q-38 -48 -59 -82.5t-21 -62.5q0 -3 1 -6.5t1 -6.5h-286z"/>
            <glyph glyph-name="questiondown" unicode="&#xbf;" horiz-adv-x="1124"
                   d="M952 1395q0 -33 -13 -63.5t-35.5 -53.5t-53 -37t-66.5 -14q-35 0 -66 13.5t-53.5 36.5t-35.5 54t-13 66t13.5 66t36 53.5t53 35.5t65.5 13t65.5 -13.5t53.5 -36.5t36 -54t13 -66zM807 1118q14 -49 22.5 -89t8.5 -71q0 -33 -5.5 -53.5t-17.5 -34.5t-30.5 -23.5
t-43.5 -21.5q-22 -10 -47 -20t-52.5 -22.5t-56.5 -29t-59 -38.5q-96 -75 -96 -228q0 -67 21 -121t59 -92.5t90.5 -59.5t116.5 -21q72 0 133.5 28.5t118.5 85.5l-8 -284q-161 -37 -263 -37q-112 0 -207.5 39t-165 107.5t-108.5 160t-39 196.5q0 87 27 156t81 125.5
t134.5 103.5t187.5 91q34 13 64.5 25t55.5 27.5t45 39t34 61.5z"/>
            <glyph glyph-name="Agrave" unicode="&#xc0;" horiz-adv-x="1464"
                   d="M344 274q-31 -65 -47 -120.5t-16 -108.5q0 -11 1 -22.5t3 -22.5h-369q119 151 231 379l598 1204l580 -1249q34 -74 87 -157t124 -177h-397q6 40 6 72q0 49 -13 87t-30 77l-105 243h-555zM915 659l-186 441l-203 -441h389zM697 2001l204 -348h-131l-295 348h222z"/>
            <glyph glyph-name="Aacute" unicode="&#xc1;" horiz-adv-x="1464"
                   d="M344 274q-31 -65 -47 -120.5t-16 -108.5q0 -11 1 -22.5t3 -22.5h-369q119 151 231 379l598 1204l580 -1249q34 -74 87 -157t124 -177h-397q6 40 6 72q0 49 -13 87t-30 77l-105 243h-555zM915 659l-186 441l-203 -441h389zM1033 2001l-295 -348h-131l204 348h222z"/>
            <glyph glyph-name="Acircumflex" unicode="&#xc2;" horiz-adv-x="1464"
                   d="M344 274q-31 -65 -47 -120.5t-16 -108.5q0 -11 1 -22.5t3 -22.5h-369q119 151 231 379l598 1204l580 -1249q34 -74 87 -157t124 -177h-397q6 40 6 72q0 49 -13 87t-30 77l-105 243h-555zM915 659l-186 441l-203 -441h389zM863 2001l188 -348h-131l-166 209l-168 -209
h-129l188 348h218z"/>
            <glyph glyph-name="Atilde" unicode="&#xc3;" horiz-adv-x="1464"
                   d="M344 274q-31 -65 -47 -120.5t-16 -108.5q0 -11 1 -22.5t3 -22.5h-369q119 151 231 379l598 1204l580 -1249q34 -74 87 -157t124 -177h-397q6 40 6 72q0 49 -13 87t-30 77l-105 243h-555zM915 659l-186 441l-203 -441h389zM1055 1938q-22 -110 -68.5 -167.5t-132.5 -57.5
q-17 0 -33.5 2.5t-33.5 7.5l-84 22q-19 5 -35 9t-29 4q-34 0 -54.5 -17t-31.5 -51h-100q40 219 192 219q17 0 38.5 -4t45.5 -10l88 -25q14 -3 26 -4.5t26 -1.5q31 0 53.5 18.5t32.5 55.5h100z"/>
            <glyph glyph-name="Adieresis" unicode="&#xc4;" horiz-adv-x="1464"
                   d="M344 274q-31 -65 -47 -120.5t-16 -108.5q0 -11 1 -22.5t3 -22.5h-369q119 151 231 379l598 1204l580 -1249q34 -74 87 -157t124 -177h-397q6 40 6 72q0 49 -13 87t-30 77l-105 243h-555zM915 659l-186 441l-203 -441h389zM815 1817q0 24 10 45.5t26.5 38t38.5 26t46 9.5
q25 0 46.5 -9.5t37.5 -25.5t25.5 -37.5t9.5 -46.5q0 -54 -33 -87.5t-86 -33.5q-25 0 -47 9t-38.5 25t-26 38.5t-9.5 48.5zM451 1817q0 24 9.5 45.5t26 38t38.5 26t47 9.5q24 0 46 -9.5t38 -25.5t25.5 -37.5t9.5 -46.5q0 -54 -33.5 -87.5t-85.5 -33.5q-26 0 -48 9t-38 25
t-25.5 38.5t-9.5 48.5z"/>
            <glyph glyph-name="Aring" unicode="&#xc5;" horiz-adv-x="1464"
                   d="M915 659l-186 441l-203 -441h389zM344 274q-31 -65 -47 -120.5t-16 -108.5q0 -11 1 -22.5t3 -22.5h-369q60 75 117 169.5t114 209.5l576 1153q-49 4 -89 24.5t-68.5 52t-44 72.5t-15.5 88q0 49 18.5 92.5t51 75t75.5 50t92 18.5q50 0 93.5 -18.5t75.5 -50t50.5 -75
t18.5 -92.5q0 -92 -56.5 -155.5t-156.5 -81.5l557 -1198q35 -76 87.5 -158.5t123.5 -175.5h-397q6 40 6 72q0 49 -13 87t-30 77l-105 243h-555zM743 1886q-24 0 -45.5 -9.5t-37 -25.5t-24.5 -37.5t-9 -46.5q0 -24 9 -45.5t24.5 -37t37 -24.5t45.5 -9q25 0 46.5 9t37.5 24.5
t25.5 37t9.5 45.5q0 25 -9.5 46.5t-26 37.5t-38 25.5t-45.5 9.5z"/>
            <glyph glyph-name="AE" unicode="&#xc6;" horiz-adv-x="1796"
                   d="M834 0q37 94 52 193t15 210v308h-326l-196 -402q-29 -62 -46.5 -119.5t-17.5 -123.5q0 -24 11 -66h-406q60 54 114.5 143.5t119.5 210.5l630 1196h893l-123 -250q-75 47 -172 71t-227 24h-16v-535h479l-139 -225q-62 32 -146.5 50t-193.5 26v-564q15 0 30.5 -1t30.5 -1
q149 0 286 27.5t273 83.5l-114 -256h-811zM901 1384l-258 -524h258v524z"/>
            <glyph glyph-name="Ccedilla" unicode="&#xc7;" horiz-adv-x="1503"
                   d="M1384 98q-143 -57 -273.5 -84.5t-248.5 -27.5q-143 0 -267.5 41t-229.5 123q-138 106 -210.5 260.5t-72.5 341.5q0 192 74 351t215 271q240 195 608 195q165 0 375 -51l-2 -273q-91 66 -200.5 99.5t-229.5 33.5q-128 0 -232 -42.5t-177.5 -122.5t-114 -194.5
t-40.5 -258.5q0 -134 39 -241.5t111 -183.5t173 -116.5t226 -40.5q127 0 245 45t238 137zM868 0v-94h16q119 0 177.5 -47t58.5 -146q0 -188 -264 -188q-35 0 -101 8t-157 33v119q161 -41 256 -41q108 0 108 75q0 44 -34 61t-105 17q-11 0 -22 -1t-23 -1v205h90z"/>
            <glyph glyph-name="Egrave" unicode="&#xc8;" horiz-adv-x="1085"
                   d="M123 0q37 94 52 193t15 210v744q0 111 -15 210t-52 193h848l-121 -250q-77 50 -178 72.5t-228 22.5h-18v-535h481l-141 -225q-62 32 -146.5 50t-193.5 26v-564q15 0 30.5 -1t30.5 -1q149 0 287 27.5t275 83.5l-117 -256h-809zM486 2001l204 -348h-131l-295 348h222z"/>
            <glyph glyph-name="Eacute" unicode="&#xc9;" horiz-adv-x="1085"
                   d="M123 0q37 94 52 193t15 210v744q0 111 -15 210t-52 193h848l-121 -250q-77 50 -178 72.5t-228 22.5h-18v-535h481l-141 -225q-62 32 -146.5 50t-193.5 26v-564q15 0 30.5 -1t30.5 -1q149 0 287 27.5t275 83.5l-117 -256h-809zM822 2001l-295 -348h-131l204 348h222z"/>
            <glyph glyph-name="Ecircumflex" unicode="&#xca;" horiz-adv-x="1085"
                   d="M123 0q37 94 52 193t15 210v744q0 111 -15 210t-52 193h848l-121 -250q-77 50 -178 72.5t-228 22.5h-18v-535h481l-141 -225q-62 32 -146.5 50t-193.5 26v-564q15 0 30.5 -1t30.5 -1q149 0 287 27.5t275 83.5l-117 -256h-809zM652 2001l188 -348h-131l-166 209l-168 -209
h-129l188 348h218z"/>
            <glyph glyph-name="Edieresis" unicode="&#xcb;" horiz-adv-x="1085"
                   d="M123 0q37 94 52 193t15 210v744q0 111 -15 210t-52 193h848l-121 -250q-77 50 -178 72.5t-228 22.5h-18v-535h481l-141 -225q-62 32 -146.5 50t-193.5 26v-564q15 0 30.5 -1t30.5 -1q149 0 287 27.5t275 83.5l-117 -256h-809zM604 1817q0 24 10 45.5t26.5 38t38.5 26
t46 9.5q25 0 46.5 -9.5t37.5 -25.5t25.5 -37.5t9.5 -46.5q0 -54 -33 -87.5t-86 -33.5q-25 0 -47 9t-38.5 25t-26 38.5t-9.5 48.5zM240 1817q0 24 9.5 45.5t26 38t38.5 26t47 9.5q24 0 46 -9.5t38 -25.5t25.5 -37.5t9.5 -46.5q0 -54 -33.5 -87.5t-85.5 -33.5q-26 0 -48 9
t-38 25t-25.5 38.5t-9.5 48.5z"/>
            <glyph glyph-name="Igrave" unicode="&#xcc;" horiz-adv-x="616"
                   d="M494 1550q-38 -94 -53 -193t-15 -210v-744q0 -111 15 -210t53 -193h-371q37 94 52 193t15 210v744q0 111 -15 210t-52 193h371zM253 2001l204 -348h-131l-295 348h222z"/>
            <glyph glyph-name="Iacute" unicode="&#xcd;" horiz-adv-x="616"
                   d="M494 1550q-38 -94 -53 -193t-15 -210v-744q0 -111 15 -210t53 -193h-371q37 94 52 193t15 210v744q0 111 -15 210t-52 193h371zM589 2001l-295 -348h-131l204 348h222z"/>
            <glyph glyph-name="Icircumflex" unicode="&#xce;" horiz-adv-x="616"
                   d="M494 1550q-38 -94 -53 -193t-15 -210v-744q0 -111 15 -210t53 -193h-371q37 94 52 193t15 210v744q0 111 -15 210t-52 193h371zM419 2001l188 -348h-131l-166 209l-168 -209h-129l188 348h218z"/>
            <glyph glyph-name="Idieresis" unicode="&#xcf;" horiz-adv-x="616"
                   d="M494 1550q-38 -94 -53 -193t-15 -210v-744q0 -111 15 -210t53 -193h-371q37 94 52 193t15 210v744q0 111 -15 210t-52 193h371zM371 1817q0 24 10 45.5t26.5 38t38.5 26t46 9.5q25 0 46.5 -9.5t37.5 -25.5t25.5 -37.5t9.5 -46.5q0 -54 -33 -87.5t-86 -33.5q-25 0 -47 9
t-38.5 25t-26 38.5t-9.5 48.5zM7 1817q0 24 9.5 45.5t26 38t38.5 26t47 9.5q24 0 46 -9.5t38 -25.5t25.5 -37.5t9.5 -46.5q0 -54 -33.5 -87.5t-85.5 -33.5q-26 0 -48 9t-38 25t-25.5 38.5t-9.5 48.5z"/>
            <glyph glyph-name="Ntilde" unicode="&#xd1;" horiz-adv-x="1597"
                   d="M403 403q0 -111 14.5 -210t51.5 -193h-346q37 94 52 193t15 210v924l-184 223h395v-10q0 -29 7 -52.5t18.5 -44.5t26.5 -41.5t30 -41.5l707 -985v772q0 111 -14 210t-52 193h346q-37 -94 -52 -193t-15 -210v-762q0 -112 7.5 -207.5t27.5 -177.5h-318q-6 46 -21 87t-40 75
l-656 903v-662zM1100 1938q-22 -110 -68.5 -167.5t-132.5 -57.5q-17 0 -33.5 2.5t-33.5 7.5l-84 22q-19 5 -35 9t-29 4q-34 0 -54.5 -17t-31.5 -51h-100q40 219 192 219q17 0 38.5 -4t45.5 -10l88 -25q14 -3 26 -4.5t26 -1.5q31 0 53.5 18.5t32.5 55.5h100z"/>
            <glyph glyph-name="Ograve" unicode="&#xd2;" horiz-adv-x="1741"
                   d="M1655 784q0 -180 -64 -332t-188 -264q-112 -100 -247 -151t-288 -51q-142 0 -271 45t-241 135q-133 108 -203.5 265.5t-70.5 350.5q0 294 180 504q116 134 277 206.5t350 72.5q158 0 290 -52.5t238 -152.5q116 -112 177 -257t61 -319zM895 172q108 0 200 40t159 112.5
t105 174.5t38 226q0 116 -28 216.5t-79 180.5q-80 127 -193 192.5t-249 65.5q-108 0 -200 -41.5t-158.5 -116t-104 -179t-37.5 -230.5q0 -116 31.5 -219.5t93.5 -194.5q74 -109 184 -168t238 -59zM813 2001l204 -348h-131l-295 348h222z"/>
            <glyph glyph-name="Oacute" unicode="&#xd3;" horiz-adv-x="1741"
                   d="M1655 784q0 -180 -64 -332t-188 -264q-112 -100 -247 -151t-288 -51q-142 0 -271 45t-241 135q-133 108 -203.5 265.5t-70.5 350.5q0 294 180 504q116 134 277 206.5t350 72.5q158 0 290 -52.5t238 -152.5q116 -112 177 -257t61 -319zM895 172q108 0 200 40t159 112.5
t105 174.5t38 226q0 116 -28 216.5t-79 180.5q-80 127 -193 192.5t-249 65.5q-108 0 -200 -41.5t-158.5 -116t-104 -179t-37.5 -230.5q0 -116 31.5 -219.5t93.5 -194.5q74 -109 184 -168t238 -59zM1149 2001l-295 -348h-131l204 348h222z"/>
            <glyph glyph-name="Ocircumflex" unicode="&#xd4;" horiz-adv-x="1741"
                   d="M1655 784q0 -180 -64 -332t-188 -264q-112 -100 -247 -151t-288 -51q-142 0 -271 45t-241 135q-133 108 -203.5 265.5t-70.5 350.5q0 294 180 504q116 134 277 206.5t350 72.5q158 0 290 -52.5t238 -152.5q116 -112 177 -257t61 -319zM895 172q108 0 200 40t159 112.5
t105 174.5t38 226q0 116 -28 216.5t-79 180.5q-80 127 -193 192.5t-249 65.5q-108 0 -200 -41.5t-158.5 -116t-104 -179t-37.5 -230.5q0 -116 31.5 -219.5t93.5 -194.5q74 -109 184 -168t238 -59zM979 2001l188 -348h-131l-166 209l-168 -209h-129l188 348h218z"/>
            <glyph glyph-name="Otilde" unicode="&#xd5;" horiz-adv-x="1741"
                   d="M1655 784q0 -180 -64 -332t-188 -264q-112 -100 -247 -151t-288 -51q-142 0 -271 45t-241 135q-133 108 -203.5 265.5t-70.5 350.5q0 294 180 504q116 134 277 206.5t350 72.5q158 0 290 -52.5t238 -152.5q116 -112 177 -257t61 -319zM895 172q108 0 200 40t159 112.5
t105 174.5t38 226q0 116 -28 216.5t-79 180.5q-80 127 -193 192.5t-249 65.5q-108 0 -200 -41.5t-158.5 -116t-104 -179t-37.5 -230.5q0 -116 31.5 -219.5t93.5 -194.5q74 -109 184 -168t238 -59zM1171 1938q-22 -110 -68.5 -167.5t-132.5 -57.5q-17 0 -33.5 2.5t-33.5 7.5
l-84 22q-19 5 -35 9t-29 4q-34 0 -54.5 -17t-31.5 -51h-100q40 219 192 219q17 0 38.5 -4t45.5 -10l88 -25q14 -3 26 -4.5t26 -1.5q31 0 53.5 18.5t32.5 55.5h100z"/>
            <glyph glyph-name="Odieresis" unicode="&#xd6;" horiz-adv-x="1741"
                   d="M1655 784q0 -180 -64 -332t-188 -264q-112 -100 -247 -151t-288 -51q-142 0 -271 45t-241 135q-133 108 -203.5 265.5t-70.5 350.5q0 294 180 504q116 134 277 206.5t350 72.5q158 0 290 -52.5t238 -152.5q116 -112 177 -257t61 -319zM895 172q108 0 200 40t159 112.5
t105 174.5t38 226q0 116 -28 216.5t-79 180.5q-80 127 -193 192.5t-249 65.5q-108 0 -200 -41.5t-158.5 -116t-104 -179t-37.5 -230.5q0 -116 31.5 -219.5t93.5 -194.5q74 -109 184 -168t238 -59zM931 1817q0 24 10 45.5t26.5 38t38.5 26t46 9.5q25 0 46.5 -9.5t37.5 -25.5
t25.5 -37.5t9.5 -46.5q0 -54 -33 -87.5t-86 -33.5q-25 0 -47 9t-38.5 25t-26 38.5t-9.5 48.5zM567 1817q0 24 9.5 45.5t26 38t38.5 26t47 9.5q24 0 46 -9.5t38 -25.5t25.5 -37.5t9.5 -46.5q0 -54 -33.5 -87.5t-85.5 -33.5q-26 0 -48 9t-38 25t-25.5 38.5t-9.5 48.5z"/>
            <glyph glyph-name="Oslash" unicode="&#xd8;" horiz-adv-x="1741"
                   d="M1141 1282q-125 98 -291 98q-108 0 -200 -41t-159 -115.5t-105 -179t-38 -231.5q0 -116 29.5 -217.5t83.5 -179.5zM569 291q68 -60 148.5 -89.5t173.5 -29.5q110 0 202.5 40t160 112.5t105.5 174.5t38 226q0 133 -36 245t-106 197zM1319 1513q20 29 33 57.5t18 59.5h272
q-49 -46 -87 -85.5t-64 -74.5l-80 -100q58 -55 103 -122.5t76.5 -144t48 -160t16.5 -171.5q0 -236 -129 -438q-51 -81 -121 -145.5t-155 -109.5t-180.5 -69t-197.5 -24q-130 0 -241 31.5t-201 93.5l-55 -70q-20 -26 -32.5 -55.5t-18.5 -61.5h-277q53 50 90 89.5t62 70.5
l102 129q-219 230 -219 565q0 301 180 508q57 66 126.5 118t147 87.5t161.5 54.5t171 19q118 0 219.5 -25t194.5 -76z"/>
            <glyph glyph-name="Ugrave" unicode="&#xd9;" horiz-adv-x="1561"
                   d="M1151 172q-247 -188 -467 -188q-82 0 -164 25t-158 75q-42 26 -75 61t-56 78q-19 35 -30 70.5t-16.5 72.5t-7 74.5t-1.5 77.5v629q0 111 -14 210t-51 193h368q-37 -94 -51 -193t-14 -210v-561q0 -94 6 -161.5t35 -111.5q46 -71 127 -111t178 -40q75 0 144.5 28t125.5 80
q35 34 54 71t28 78.5t10.5 88t1.5 100.5v539q0 111 -14 210t-51 193h368q-37 -94 -51 -193t-14 -210v-744q0 -111 14 -210t51 -193h-276v172zM723 2001l204 -348h-131l-295 348h222z"/>
            <glyph glyph-name="Uacute" unicode="&#xda;" horiz-adv-x="1561"
                   d="M1151 172q-247 -188 -467 -188q-82 0 -164 25t-158 75q-42 26 -75 61t-56 78q-19 35 -30 70.5t-16.5 72.5t-7 74.5t-1.5 77.5v629q0 111 -14 210t-51 193h368q-37 -94 -51 -193t-14 -210v-561q0 -94 6 -161.5t35 -111.5q46 -71 127 -111t178 -40q75 0 144.5 28t125.5 80
q35 34 54 71t28 78.5t10.5 88t1.5 100.5v539q0 111 -14 210t-51 193h368q-37 -94 -51 -193t-14 -210v-744q0 -111 14 -210t51 -193h-276v172zM1059 2001l-295 -348h-131l204 348h222z"/>
            <glyph glyph-name="Ucircumflex" unicode="&#xdb;" horiz-adv-x="1561"
                   d="M1151 172q-247 -188 -467 -188q-82 0 -164 25t-158 75q-42 26 -75 61t-56 78q-19 35 -30 70.5t-16.5 72.5t-7 74.5t-1.5 77.5v629q0 111 -14 210t-51 193h368q-37 -94 -51 -193t-14 -210v-561q0 -94 6 -161.5t35 -111.5q46 -71 127 -111t178 -40q75 0 144.5 28t125.5 80
q35 34 54 71t28 78.5t10.5 88t1.5 100.5v539q0 111 -14 210t-51 193h368q-37 -94 -51 -193t-14 -210v-744q0 -111 14 -210t51 -193h-276v172zM889 2001l188 -348h-131l-166 209l-168 -209h-129l188 348h218z"/>
            <glyph glyph-name="Udieresis" unicode="&#xdc;" horiz-adv-x="1561"
                   d="M1151 172q-247 -188 -467 -188q-82 0 -164 25t-158 75q-42 26 -75 61t-56 78q-19 35 -30 70.5t-16.5 72.5t-7 74.5t-1.5 77.5v629q0 111 -14 210t-51 193h368q-37 -94 -51 -193t-14 -210v-561q0 -94 6 -161.5t35 -111.5q46 -71 127 -111t178 -40q75 0 144.5 28t125.5 80
q35 34 54 71t28 78.5t10.5 88t1.5 100.5v539q0 111 -14 210t-51 193h368q-37 -94 -51 -193t-14 -210v-744q0 -111 14 -210t51 -193h-276v172zM841 1817q0 24 10 45.5t26.5 38t38.5 26t46 9.5q25 0 46.5 -9.5t37.5 -25.5t25.5 -37.5t9.5 -46.5q0 -54 -33 -87.5t-86 -33.5
q-25 0 -47 9t-38.5 25t-26 38.5t-9.5 48.5zM477 1817q0 24 9.5 45.5t26 38t38.5 26t47 9.5q24 0 46 -9.5t38 -25.5t25.5 -37.5t9.5 -46.5q0 -54 -33.5 -87.5t-85.5 -33.5q-26 0 -48 9t-38 25t-25.5 38.5t-9.5 48.5z"/>
            <glyph glyph-name="germandbls" unicode="&#xdf;" horiz-adv-x="1190"
                   d="M387 270q0 -71 8 -138t25 -132h-303q29 59 43 126t14 144v654h-106l106 151v6q0 230 101 350.5t288 120.5q177 0 270 -113.5t93 -336.5q0 -66 -6 -139h-9q-86 0 -131 -35.5t-45 -98.5q0 -35 14.5 -61t41 -49t64 -47t83.5 -54q49 -31 88 -61t66 -63.5t41 -74.5t14 -95
q0 -75 -28 -137.5t-81.5 -107.5t-130.5 -70t-174 -25q-49 0 -101 8.5t-108 25.5l25 275q37 -82 95 -124t136 -42q65 0 101.5 36.5t36.5 98.5q0 37 -12 64.5t-34.5 51.5t-54.5 47t-72 50q-57 39 -101.5 73t-74.5 70t-45.5 76t-15.5 90q0 47 14.5 88t41.5 74t66 56t87 34
q5 34 6.5 65.5t1.5 59.5q0 127 -42 188.5t-130 61.5q-52 0 -84.5 -20t-50.5 -59.5t-24.5 -98.5t-6.5 -137v-826z"/>
            <glyph glyph-name="agrave" unicode="&#xe0;" horiz-adv-x="934"
                   d="M203 1049q65 20 125.5 30.5t120.5 10.5q162 0 247.5 -83t85.5 -247v-490q0 -154 58 -270h-260v154q-48 -36 -92 -72t-85 -74q-33 -12 -69 -12q-60 0 -112.5 20.5t-91 56.5t-61 84t-22.5 103q0 73 33.5 126.5t100.5 99.5t167 89.5t232 96.5q0 9 1 19t1 18q0 219 -205 219
q-54 0 -110 -19.5t-117 -56.5zM580 477h-273q-18 -45 -27.5 -84.5t-9.5 -77.5q0 -153 195 -153q26 0 54.5 2.5t60.5 7.5v305zM429 1550l204 -348h-131l-295 348h222z"/>
            <glyph glyph-name="aacute" unicode="&#xe1;" horiz-adv-x="934"
                   d="M203 1049q65 20 125.5 30.5t120.5 10.5q162 0 247.5 -83t85.5 -247v-490q0 -154 58 -270h-260v154q-48 -36 -92 -72t-85 -74q-33 -12 -69 -12q-60 0 -112.5 20.5t-91 56.5t-61 84t-22.5 103q0 73 33.5 126.5t100.5 99.5t167 89.5t232 96.5q0 9 1 19t1 18q0 219 -205 219
q-54 0 -110 -19.5t-117 -56.5zM580 477h-273q-18 -45 -27.5 -84.5t-9.5 -77.5q0 -153 195 -153q26 0 54.5 2.5t60.5 7.5v305zM765 1550l-295 -348h-131l204 348h222z"/>
            <glyph glyph-name="acircumflex" unicode="&#xe2;" horiz-adv-x="934"
                   d="M203 1049q65 20 125.5 30.5t120.5 10.5q162 0 247.5 -83t85.5 -247v-490q0 -154 58 -270h-260v154q-48 -36 -92 -72t-85 -74q-33 -12 -69 -12q-60 0 -112.5 20.5t-91 56.5t-61 84t-22.5 103q0 73 33.5 126.5t100.5 99.5t167 89.5t232 96.5q0 9 1 19t1 18q0 219 -205 219
q-54 0 -110 -19.5t-117 -56.5zM580 477h-273q-18 -45 -27.5 -84.5t-9.5 -77.5q0 -153 195 -153q26 0 54.5 2.5t60.5 7.5v305zM595 1550l188 -348h-131l-166 209l-168 -209h-129l188 348h218z"/>
            <glyph glyph-name="atilde" unicode="&#xe3;" horiz-adv-x="934"
                   d="M203 1049q65 20 125.5 30.5t120.5 10.5q162 0 247.5 -83t85.5 -247v-490q0 -154 58 -270h-260v154q-48 -36 -92 -72t-85 -74q-33 -12 -69 -12q-60 0 -112.5 20.5t-91 56.5t-61 84t-22.5 103q0 73 33.5 126.5t100.5 99.5t167 89.5t232 96.5q0 9 1 19t1 18q0 219 -205 219
q-54 0 -110 -19.5t-117 -56.5zM580 477h-273q-18 -45 -27.5 -84.5t-9.5 -77.5q0 -153 195 -153q26 0 54.5 2.5t60.5 7.5v305zM787 1487q-22 -110 -68.5 -167.5t-132.5 -57.5q-17 0 -33.5 2.5t-33.5 7.5l-84 22q-19 5 -35 9t-29 4q-34 0 -54.5 -17t-31.5 -51h-100
q40 219 192 219q17 0 38.5 -4t45.5 -10l88 -25q14 -3 26 -4.5t26 -1.5q31 0 53.5 18.5t32.5 55.5h100z"/>
            <glyph glyph-name="adieresis" unicode="&#xe4;" horiz-adv-x="934"
                   d="M203 1049q65 20 125.5 30.5t120.5 10.5q162 0 247.5 -83t85.5 -247v-490q0 -154 58 -270h-260v154q-48 -36 -92 -72t-85 -74q-33 -12 -69 -12q-60 0 -112.5 20.5t-91 56.5t-61 84t-22.5 103q0 73 33.5 126.5t100.5 99.5t167 89.5t232 96.5q0 9 1 19t1 18q0 219 -205 219
q-54 0 -110 -19.5t-117 -56.5zM580 477h-273q-18 -45 -27.5 -84.5t-9.5 -77.5q0 -153 195 -153q26 0 54.5 2.5t60.5 7.5v305zM547 1366q0 24 10 45.5t26.5 38t38.5 26t46 9.5q25 0 46.5 -9.5t37.5 -25.5t25.5 -37.5t9.5 -46.5q0 -54 -33 -87.5t-86 -33.5q-25 0 -47 9
t-38.5 25t-26 38.5t-9.5 48.5zM183 1366q0 24 9.5 45.5t26 38t38.5 26t47 9.5q24 0 46 -9.5t38 -25.5t25.5 -37.5t9.5 -46.5q0 -54 -33.5 -87.5t-85.5 -33.5q-26 0 -48 9t-38 25t-25.5 38.5t-9.5 48.5z"/>
            <glyph glyph-name="aring" unicode="&#xe5;" horiz-adv-x="934"
                   d="M203 1049q65 20 125.5 30.5t120.5 10.5q162 0 247.5 -83t85.5 -247v-490q0 -154 58 -270h-260v154q-48 -36 -92 -72t-85 -74q-33 -12 -69 -12q-60 0 -112.5 20.5t-91 56.5t-61 84t-22.5 103q0 73 33.5 126.5t100.5 99.5t167 89.5t232 96.5q0 9 1 19t1 18q0 219 -205 219
q-54 0 -110 -19.5t-117 -56.5zM580 477h-273q-18 -45 -27.5 -84.5t-9.5 -77.5q0 -153 195 -153q26 0 54.5 2.5t60.5 7.5v305zM502 1651q50 0 93.5 -18.5t75.5 -50.5t50.5 -75t18.5 -92q0 -50 -18.5 -93t-50.5 -75t-75.5 -50.5t-93.5 -18.5t-93 18.5t-75 50.5t-50 75t-18 93
q0 49 18.5 92t50.5 75t75 50.5t92 18.5zM504 1530q-24 0 -45.5 -8.5t-37.5 -24t-25 -36.5t-9 -46q0 -24 9 -45.5t25 -37.5t37.5 -25.5t45.5 -9.5q25 0 46 9.5t37 25.5t25 37.5t9 45.5q0 50 -33.5 82.5t-83.5 32.5z"/>
            <glyph glyph-name="ae" unicode="&#xe6;" horiz-adv-x="1460"
                   d="M580 492h-273q-17 -54 -27 -96t-10 -77q0 -153 197 -153q25 0 53.5 2.5t59.5 7.5v316zM203 1049q65 20 125.5 30.5t120.5 10.5q83 0 150.5 -27t115.5 -80q32 29 64 49.5t66 33t70.5 18.5t77.5 6q183 0 278 -124t95 -370v-43.5t-2 -44.5h-576q0 -164 68.5 -251t190.5 -87
q60 0 132.5 22t163.5 62l-102 -225q-130 -43 -246 -43q-62 0 -114 10.5t-95.5 34t-80.5 60t-68 87.5q-59 -43 -117 -84.5t-117 -85.5q-33 -12 -69 -12q-60 0 -112.5 20.5t-91 56.5t-61 84t-22.5 103q0 73 33.5 126.5t100.5 99.5t167 89.5t232 96.5q0 9 1 19t1 18
q0 219 -205 219q-54 0 -110 -19.5t-117 -56.5zM1217 639v18q0 295 -203 295q-209 0 -228 -313h431z"/>
            <glyph glyph-name="ccedilla" unicode="&#xe7;" horiz-adv-x="909"
                   d="M768 6q-35 -11 -71.5 -15.5t-78.5 -4.5q-125 0 -225 38.5t-170.5 108t-108.5 166t-38 213.5q0 126 42.5 232.5t119.5 183.5t186 120.5t242 43.5q51 0 104.5 -7.5t112.5 -21.5l-19 -246q-57 63 -116 94t-132 31q-71 0 -128 -26t-97 -75t-62 -119.5t-22 -158.5
q0 -98 25 -174.5t72 -129t114 -80t152 -27.5q55 0 111 12t112 37zM584 0v-94h16q119 0 177.5 -47t58.5 -146q0 -188 -264 -188q-35 0 -101 8t-157 33v119q161 -41 256 -41q108 0 108 75q0 44 -34 61t-105 17q-11 0 -22 -1t-23 -1v205h90z"/>
            <glyph glyph-name="egrave" unicode="&#xe8;" horiz-adv-x="991"
                   d="M319 508q0 -164 67.5 -251t188.5 -87q60 0 134 22t165 62l-102 -225q-130 -43 -246 -43q-106 0 -187.5 35.5t-137 105.5t-84.5 172.5t-29 237.5q0 128 31.5 230.5t88.5 174t137.5 110t178.5 38.5q181 0 276 -124t95 -370v-43.5t-2 -44.5h-574zM748 639v18q0 295 -203 295
q-209 0 -228 -313h431zM475 1550l204 -348h-131l-295 348h222z"/>
            <glyph glyph-name="eacute" unicode="&#xe9;" horiz-adv-x="991"
                   d="M319 508q0 -164 67.5 -251t188.5 -87q60 0 134 22t165 62l-102 -225q-130 -43 -246 -43q-106 0 -187.5 35.5t-137 105.5t-84.5 172.5t-29 237.5q0 128 31.5 230.5t88.5 174t137.5 110t178.5 38.5q181 0 276 -124t95 -370v-43.5t-2 -44.5h-574zM748 639v18q0 295 -203 295
q-209 0 -228 -313h431zM811 1550l-295 -348h-131l204 348h222z"/>
            <glyph glyph-name="ecircumflex" unicode="&#xea;" horiz-adv-x="991"
                   d="M319 508q0 -164 67.5 -251t188.5 -87q60 0 134 22t165 62l-102 -225q-130 -43 -246 -43q-106 0 -187.5 35.5t-137 105.5t-84.5 172.5t-29 237.5q0 128 31.5 230.5t88.5 174t137.5 110t178.5 38.5q181 0 276 -124t95 -370v-43.5t-2 -44.5h-574zM748 639v18q0 295 -203 295
q-209 0 -228 -313h431zM641 1550l188 -348h-131l-166 209l-168 -209h-129l188 348h218z"/>
            <glyph glyph-name="edieresis" unicode="&#xeb;" horiz-adv-x="991"
                   d="M319 508q0 -164 67.5 -251t188.5 -87q60 0 134 22t165 62l-102 -225q-130 -43 -246 -43q-106 0 -187.5 35.5t-137 105.5t-84.5 172.5t-29 237.5q0 128 31.5 230.5t88.5 174t137.5 110t178.5 38.5q181 0 276 -124t95 -370v-43.5t-2 -44.5h-574zM748 639v18q0 295 -203 295
q-209 0 -228 -313h431zM593 1366q0 24 10 45.5t26.5 38t38.5 26t46 9.5q25 0 46.5 -9.5t37.5 -25.5t25.5 -37.5t9.5 -46.5q0 -54 -33 -87.5t-86 -33.5q-25 0 -47 9t-38.5 25t-26 38.5t-9.5 48.5zM229 1366q0 24 9.5 45.5t26 38t38.5 26t47 9.5q24 0 46 -9.5t38 -25.5
t25.5 -37.5t9.5 -46.5q0 -54 -33.5 -87.5t-85.5 -33.5q-26 0 -48 9t-38 25t-25.5 38.5t-9.5 48.5z"/>
            <glyph glyph-name="igrave" unicode="&#xec;" horiz-adv-x="537"
                   d="M162 807q0 152 -58 268h328q-29 -59 -43 -125t-14 -143v-537q0 -78 14 -144.5t43 -125.5h-328q58 116 58 270v537zM212 1550l204 -348h-131l-295 348h222z"/>
            <glyph glyph-name="iacute" unicode="&#xed;" horiz-adv-x="537"
                   d="M162 807q0 152 -58 268h328q-29 -59 -43 -125t-14 -143v-537q0 -78 14 -144.5t43 -125.5h-328q58 116 58 270v537zM548 1550l-295 -348h-131l204 348h222z"/>
            <glyph glyph-name="icircumflex" unicode="&#xee;" horiz-adv-x="537"
                   d="M162 807q0 152 -58 268h328q-29 -59 -43 -125t-14 -143v-537q0 -78 14 -144.5t43 -125.5h-328q58 116 58 270v537zM378 1550l188 -348h-131l-166 209l-168 -209h-129l188 348h218z"/>
            <glyph glyph-name="idieresis" unicode="&#xef;" horiz-adv-x="537"
                   d="M162 807q0 152 -58 268h328q-29 -59 -43 -125t-14 -143v-537q0 -78 14 -144.5t43 -125.5h-328q58 116 58 270v537zM330 1366q0 24 10 45.5t26.5 38t38.5 26t46 9.5q25 0 46.5 -9.5t37.5 -25.5t25.5 -37.5t9.5 -46.5q0 -54 -33 -87.5t-86 -33.5q-25 0 -47 9t-38.5 25
t-26 38.5t-9.5 48.5zM-34 1366q0 24 9.5 45.5t26 38t38.5 26t47 9.5q24 0 46 -9.5t38 -25.5t25.5 -37.5t9.5 -46.5q0 -54 -33.5 -87.5t-85.5 -33.5q-26 0 -48 9t-38 25t-25.5 38.5t-9.5 48.5z"/>
            <glyph glyph-name="ntilde" unicode="&#xf1;" horiz-adv-x="1118"
                   d="M375 270q0 -78 14 -144.5t43 -125.5h-328q58 116 58 270v537q0 152 -58 268h271v-176q35 29 73 67t80 83q69 41 156 41q65 0 124.5 -25.5t96.5 -67.5q21 -24 33.5 -47t18.5 -46.5t8 -47t2 -47.5v-539q0 -78 14 -144.5t43 -125.5h-328q58 116 58 270v465q0 90 -48.5 134
t-150.5 44q-86 0 -180 -55v-588zM876 1487q-22 -110 -68.5 -167.5t-132.5 -57.5q-17 0 -33.5 2.5t-33.5 7.5l-84 22q-19 5 -35 9t-29 4q-34 0 -54.5 -17t-31.5 -51h-100q40 219 192 219q17 0 38.5 -4t45.5 -10l88 -25q14 -3 26 -4.5t26 -1.5q31 0 53.5 18.5t32.5 55.5h100z
"/>
            <glyph glyph-name="ograve" unicode="&#xf2;" horiz-adv-x="1176"
                   d="M571 1092q124 -4 221 -42.5t164 -107t102.5 -164.5t35.5 -215q0 -143 -49 -253t-152 -193q-96 -65 -180.5 -98t-159.5 -33q-68 0 -137.5 22.5t-134.5 69.5q-96 68 -148.5 178.5t-52.5 249.5q0 118 34 218.5t98 177t154.5 126t204.5 64.5zM702 150q44 26 79.5 65.5t61 88
t39 105.5t13.5 117q0 91 -27 167.5t-72 131t-103.5 85t-121.5 30.5q-54 0 -102 -26t-84 -73.5t-57 -115t-21 -150.5q0 -95 28 -173t79 -134t121.5 -87t154.5 -31h12zM531 1550l204 -348h-131l-295 348h222z"/>
            <glyph glyph-name="oacute" unicode="&#xf3;" horiz-adv-x="1176"
                   d="M571 1092q124 -4 221 -42.5t164 -107t102.5 -164.5t35.5 -215q0 -143 -49 -253t-152 -193q-96 -65 -180.5 -98t-159.5 -33q-68 0 -137.5 22.5t-134.5 69.5q-96 68 -148.5 178.5t-52.5 249.5q0 118 34 218.5t98 177t154.5 126t204.5 64.5zM702 150q44 26 79.5 65.5t61 88
t39 105.5t13.5 117q0 91 -27 167.5t-72 131t-103.5 85t-121.5 30.5q-54 0 -102 -26t-84 -73.5t-57 -115t-21 -150.5q0 -95 28 -173t79 -134t121.5 -87t154.5 -31h12zM867 1550l-295 -348h-131l204 348h222z"/>
            <glyph glyph-name="ocircumflex" unicode="&#xf4;" horiz-adv-x="1176"
                   d="M571 1092q124 -4 221 -42.5t164 -107t102.5 -164.5t35.5 -215q0 -143 -49 -253t-152 -193q-96 -65 -180.5 -98t-159.5 -33q-68 0 -137.5 22.5t-134.5 69.5q-96 68 -148.5 178.5t-52.5 249.5q0 118 34 218.5t98 177t154.5 126t204.5 64.5zM702 150q44 26 79.5 65.5t61 88
t39 105.5t13.5 117q0 91 -27 167.5t-72 131t-103.5 85t-121.5 30.5q-54 0 -102 -26t-84 -73.5t-57 -115t-21 -150.5q0 -95 28 -173t79 -134t121.5 -87t154.5 -31h12zM697 1550l188 -348h-131l-166 209l-168 -209h-129l188 348h218z"/>
            <glyph glyph-name="otilde" unicode="&#xf5;" horiz-adv-x="1176"
                   d="M571 1092q124 -4 221 -42.5t164 -107t102.5 -164.5t35.5 -215q0 -143 -49 -253t-152 -193q-96 -65 -180.5 -98t-159.5 -33q-68 0 -137.5 22.5t-134.5 69.5q-96 68 -148.5 178.5t-52.5 249.5q0 118 34 218.5t98 177t154.5 126t204.5 64.5zM702 150q44 26 79.5 65.5t61 88
t39 105.5t13.5 117q0 91 -27 167.5t-72 131t-103.5 85t-121.5 30.5q-54 0 -102 -26t-84 -73.5t-57 -115t-21 -150.5q0 -95 28 -173t79 -134t121.5 -87t154.5 -31h12zM889 1487q-22 -110 -68.5 -167.5t-132.5 -57.5q-17 0 -33.5 2.5t-33.5 7.5l-84 22q-19 5 -35 9t-29 4
q-34 0 -54.5 -17t-31.5 -51h-100q40 219 192 219q17 0 38.5 -4t45.5 -10l88 -25q14 -3 26 -4.5t26 -1.5q31 0 53.5 18.5t32.5 55.5h100z"/>
            <glyph glyph-name="odieresis" unicode="&#xf6;" horiz-adv-x="1176"
                   d="M571 1092q124 -4 221 -42.5t164 -107t102.5 -164.5t35.5 -215q0 -143 -49 -253t-152 -193q-96 -65 -180.5 -98t-159.5 -33q-68 0 -137.5 22.5t-134.5 69.5q-96 68 -148.5 178.5t-52.5 249.5q0 118 34 218.5t98 177t154.5 126t204.5 64.5zM702 150q44 26 79.5 65.5t61 88
t39 105.5t13.5 117q0 91 -27 167.5t-72 131t-103.5 85t-121.5 30.5q-54 0 -102 -26t-84 -73.5t-57 -115t-21 -150.5q0 -95 28 -173t79 -134t121.5 -87t154.5 -31h12zM649 1366q0 24 10 45.5t26.5 38t38.5 26t46 9.5q25 0 46.5 -9.5t37.5 -25.5t25.5 -37.5t9.5 -46.5
q0 -54 -33 -87.5t-86 -33.5q-25 0 -47 9t-38.5 25t-26 38.5t-9.5 48.5zM285 1366q0 24 9.5 45.5t26 38t38.5 26t47 9.5q24 0 46 -9.5t38 -25.5t25.5 -37.5t9.5 -46.5q0 -54 -33.5 -87.5t-85.5 -33.5q-26 0 -48 9t-38 25t-25.5 38.5t-9.5 48.5z"/>
            <glyph glyph-name="oslash" unicode="&#xf8;" horiz-adv-x="1176"
                   d="M895 117q-97 -65 -181 -98t-159 -33q-59 0 -116.5 15.5t-114.5 47.5l-45 -65q-17 -26 -29 -49.5t-14 -49.5h-209q29 28 55.5 61.5t54.5 71.5l80 113q-69 75 -102 167.5t-33 207.5q0 118 34 218.5t97 177t153.5 126t204.5 64.5q94 -7 166.5 -25.5t124.5 -52.5l23 35
q15 24 28 47t15 51h207q-47 -54 -73.5 -87.5t-35.5 -45.5l-59 -86q62 -65 94.5 -159t32.5 -212q0 -275 -199 -440zM752 864q-35 38 -81.5 57t-99.5 19q-54 0 -102 -26t-84 -73.5t-57 -115t-21 -150.5q0 -65 15 -125.5t43 -117.5zM455 229q94 -79 227 -79h20
q88 54 139.5 152.5t51.5 225.5q0 73 -12.5 128.5t-40.5 99.5z"/>
            <glyph glyph-name="ugrave" unicode="&#xf9;" horiz-adv-x="1118"
                   d="M743 807q0 77 -13 143t-42 125h326q-29 -59 -42.5 -125t-13.5 -143v-537q0 -78 13.5 -144.5t42.5 -125.5h-271v178q-48 -42 -92 -86t-86 -90q-28 -9 -54 -13.5t-54 -4.5q-57 0 -107 14.5t-90 40.5q-39 25 -61 53.5t-32.5 60.5t-12.5 68.5t-2 77.5v508q0 152 -58 268h328
q-29 -59 -43 -125t-14 -143v-467q0 -90 48 -133t150 -43q45 0 88.5 12.5t91.5 40.5v590zM502 1550l204 -348h-131l-295 348h222z"/>
            <glyph glyph-name="uacute" unicode="&#xfa;" horiz-adv-x="1118"
                   d="M743 807q0 77 -13 143t-42 125h326q-29 -59 -42.5 -125t-13.5 -143v-537q0 -78 13.5 -144.5t42.5 -125.5h-271v178q-48 -42 -92 -86t-86 -90q-28 -9 -54 -13.5t-54 -4.5q-57 0 -107 14.5t-90 40.5q-39 25 -61 53.5t-32.5 60.5t-12.5 68.5t-2 77.5v508q0 152 -58 268h328
q-29 -59 -43 -125t-14 -143v-467q0 -90 48 -133t150 -43q45 0 88.5 12.5t91.5 40.5v590zM838 1550l-295 -348h-131l204 348h222z"/>
            <glyph glyph-name="ucircumflex" unicode="&#xfb;" horiz-adv-x="1118"
                   d="M743 807q0 77 -13 143t-42 125h326q-29 -59 -42.5 -125t-13.5 -143v-537q0 -78 13.5 -144.5t42.5 -125.5h-271v178q-48 -42 -92 -86t-86 -90q-28 -9 -54 -13.5t-54 -4.5q-57 0 -107 14.5t-90 40.5q-39 25 -61 53.5t-32.5 60.5t-12.5 68.5t-2 77.5v508q0 152 -58 268h328
q-29 -59 -43 -125t-14 -143v-467q0 -90 48 -133t150 -43q45 0 88.5 12.5t91.5 40.5v590zM668 1550l188 -348h-131l-166 209l-168 -209h-129l188 348h218z"/>
            <glyph glyph-name="udieresis" unicode="&#xfc;" horiz-adv-x="1118"
                   d="M743 807q0 77 -13 143t-42 125h326q-29 -59 -42.5 -125t-13.5 -143v-537q0 -78 13.5 -144.5t42.5 -125.5h-271v178q-48 -42 -92 -86t-86 -90q-28 -9 -54 -13.5t-54 -4.5q-57 0 -107 14.5t-90 40.5q-39 25 -61 53.5t-32.5 60.5t-12.5 68.5t-2 77.5v508q0 152 -58 268h328
q-29 -59 -43 -125t-14 -143v-467q0 -90 48 -133t150 -43q45 0 88.5 12.5t91.5 40.5v590zM620 1366q0 24 10 45.5t26.5 38t38.5 26t46 9.5q25 0 46.5 -9.5t37.5 -25.5t25.5 -37.5t9.5 -46.5q0 -54 -33 -87.5t-86 -33.5q-25 0 -47 9t-38.5 25t-26 38.5t-9.5 48.5zM256 1366
q0 24 9.5 45.5t26 38t38.5 26t47 9.5q24 0 46 -9.5t38 -25.5t25.5 -37.5t9.5 -46.5q0 -54 -33.5 -87.5t-85.5 -33.5q-26 0 -48 9t-38 25t-25.5 38.5t-9.5 48.5z"/>
            <glyph glyph-name="ydieresis" unicode="&#xff;" horiz-adv-x="999"
                   d="M129 817q-40 93 -81.5 157t-78.5 101h355q-11 -41 -11 -69t6.5 -62t20.5 -70l186 -471l160 426q20 51 28.5 94.5t8.5 75.5q0 17 -2 36t-8 40h315q-34 -45 -60 -91.5t-47.5 -93.5t-40.5 -93.5t-38 -91.5l-221 -527q-90 -213 -162.5 -342.5t-120.5 -177.5h-272
q111 105 198 231.5t150 278.5zM562 1366q0 24 10 45.5t26.5 38t38.5 26t46 9.5q25 0 46.5 -9.5t37.5 -25.5t25.5 -37.5t9.5 -46.5q0 -54 -33 -87.5t-86 -33.5q-25 0 -47 9t-38.5 25t-26 38.5t-9.5 48.5zM198 1366q0 24 9.5 45.5t26 38t38.5 26t47 9.5q24 0 46 -9.5t38 -25.5
t25.5 -37.5t9.5 -46.5q0 -54 -33.5 -87.5t-85.5 -33.5q-26 0 -48 9t-38 25t-25.5 38.5t-9.5 48.5z"/>
            <glyph glyph-name="dotlessi" unicode="&#x131;" horiz-adv-x="537"
                   d="M162 807q0 152 -58 268h328q-29 -59 -43 -125t-14 -143v-537q0 -78 14 -144.5t43 -125.5h-328q58 116 58 270v537z"/>
            <glyph glyph-name="ring" unicode="&#x2da;" horiz-adv-x="1024"
                   d="M512 1657q50 0 93.5 -18.5t75.5 -50.5t50.5 -75t18.5 -92q0 -50 -18.5 -93t-50.5 -75t-75.5 -50.5t-93.5 -18.5t-93 18.5t-75 50.5t-50 75t-18 93q0 49 18.5 92t50.5 75t75 50.5t92 18.5zM514 1536q-24 0 -45.5 -8.5t-37.5 -24t-25 -36.5t-9 -46q0 -24 9 -45.5t25 -37.5
t37.5 -25.5t45.5 -9.5q25 0 46 9.5t37 25.5t25 37.5t9 45.5q0 50 -33.5 82.5t-83.5 32.5z"/>
            <glyph glyph-name="space" unicode=" " horiz-adv-x="631"
            />
            <glyph glyph-name="quotedbl" unicode="&#x22;" horiz-adv-x="643"
                   d="M395 1436h164v-557h-164v557zM86 1436h164v-557h-164v557z"/>
            <glyph glyph-name="numbersign" unicode="#" horiz-adv-x="1575"
                   d="M709 852l-91 -254h256l91 254h-256zM735 1460h191l-154 -436h250l156 436h190l-154 -436h291l-59 -172h-293l-90 -252h309l-61 -172h-307l-156 -434h-191l156 434h-252l-158 -434h-190l156 434h-299l61 172h297l90 252h-315l61 172h316z"/>
            <glyph glyph-name="quotesingle" unicode="'" horiz-adv-x="334"
                   d="M86 1436h164v-557h-164v557z"/>
            <glyph glyph-name="plus" unicode="+" horiz-adv-x="1706"
                   d="M768 1221h170v-527h514v-166h-514v-528h-170v528h-514v166h514v527z"/>
            <glyph glyph-name="less" unicode="&#x3c;" horiz-adv-x="1706"
                   d="M1442 1176v-185l-934 -381l934 -381v-182l-1178 483v160z"/>
            <glyph glyph-name="equal" unicode="=" horiz-adv-x="1706"
                   d="M254 487h1198v-165h-1198v165zM254 901h1198v-168h-1198v168z"/>
            <glyph glyph-name="greater" unicode="&#x3e;" horiz-adv-x="1706"
                   d="M264 1176l1178 -486v-160l-1178 -483v182l934 381l-934 381v185z"/>
            <glyph glyph-name="at" unicode="@" horiz-adv-x="2048"
                   d="M1174 283q-28 -43 -59 -74.5t-68 -52.5t-81 -31t-96 -10q-154 0 -233.5 87t-79.5 249q0 116 37 217.5t101 177t149.5 119t183.5 43.5q172 0 248 -142l55 107h154l-148 -586l-2 -12l-6 -37q0 -38 26.5 -61t69.5 -23q45 0 89.5 20t84.5 55t74.5 83t59.5 104.5t39 119
t14 126.5q0 127 -50 231.5t-140 179.5t-214 116.5t-272 41.5q-129 0 -242.5 -30t-207.5 -83.5t-168 -128.5t-125 -165t-78 -192.5t-27 -211.5q0 -157 55 -283.5t156 -216t242.5 -138t314.5 -48.5q167 0 322.5 49t292.5 142l67 -99q-302 -227 -674 -227q-217 0 -391 62.5
t-296 173t-187.5 261t-65.5 326.5q0 140 37 264.5t103.5 230.5t160 190.5t207 143.5t242.5 90.5t268 31.5q193 0 347.5 -55t262.5 -151t166 -225.5t58 -277.5q0 -80 -18.5 -160t-53.5 -152t-85 -134t-113.5 -107.5t-138.5 -71.5t-159 -26q-208 0 -208 166v4zM1233 707
q-14 86 -61.5 131t-122.5 45q-63 0 -119 -35t-98 -94.5t-66.5 -139.5t-24.5 -170q0 -99 44 -151.5t130 -52.5q46 0 88 17.5t76.5 49t60 75.5t38.5 97z"/>
            <glyph glyph-name="asciicircum" unicode="^" horiz-adv-x="2048"
                   d="M915 1460h218l495 -561h-207l-397 397l-399 -397h-207z"/>
            <glyph glyph-name="underscore" unicode="_" horiz-adv-x="1024"
                   d="M0 -311h1024v-172h-1024v172z"/>
            <glyph glyph-name="braceleft" unicode="{" horiz-adv-x="1024"
                   d="M874 1477v-177h-47q-52 0 -87.5 -8t-57.5 -31.5t-31.5 -65.5t-9.5 -110v-241q0 -78 -10 -131.5t-33.5 -89t-62.5 -57t-97 -36.5q58 -14 97 -35.5t62.5 -57t33.5 -89t10 -131.5v-240q0 -68 9 -110.5t30.5 -66t57 -32t89.5 -8.5h47v-174h-45q-128 0 -205.5 19t-119 60.5
t-55 107.5t-13.5 161v248q0 72 -12 121.5t-39.5 81t-71.5 45.5t-108 14h-43v174h43q64 0 108 14t71.5 45t39.5 80.5t12 121.5v247q0 72 5 122t16.5 84t31.5 56t50 39q23 12 49 21.5t60 16t78 9.5t103 3h45z"/>
            <glyph glyph-name="bar" unicode="|" horiz-adv-x="1024"
                   d="M424 1565h178v-2048h-178v2048z"/>
            <glyph glyph-name="braceright" unicode="}" horiz-adv-x="1024"
                   d="M152 1477h45q76 0 134.5 -4t102 -17t73 -36.5t47.5 -62.5t26 -96t8 -135v-247q0 -72 12 -121.5t39.5 -80.5t71.5 -45t108 -14h43v-174h-43q-64 0 -108 -14t-71.5 -45.5t-39.5 -81t-12 -121.5v-248q0 -74 -5.5 -123.5t-17.5 -83.5t-32 -55t-48 -37q-22 -13 -48 -22
t-60 -15t-78 -9t-102 -3h-45v174h43q52 0 88 8.5t58 32t32 66t10 110.5v240q0 78 10.5 131t34.5 89t63 57.5t97 35.5q-58 15 -97 35.5t-63 56t-34.5 89t-10.5 133.5v241q0 68 -10 110t-32 65.5t-58 31.5t-88 8h-43v177z"/>
            <glyph glyph-name="asciitilde" unicode="~" horiz-adv-x="1706"
                   d="M1530 600q-105 -72 -199 -106.5t-182 -34.5q-91 0 -191 35l-75 26q-214 74 -320 74q-81 0 -174 -37t-211 -123v187q106 72 202.5 107.5t184.5 35.5q31 0 65.5 -2t75 -9.5t88.5 -22.5t107 -42q81 -29 143 -43t107 -14q86 0 177 36.5t202 116.5v-184z"/>
            <glyph glyph-name="degree" unicode="&#xb0;" horiz-adv-x="674"
                   d="M339 1350q-39 0 -73 -14.5t-59 -40t-39.5 -59t-14.5 -71.5t14.5 -71.5t39.5 -59t59 -41t73 -15.5t72.5 14.5t58.5 39.5t39 59t14 74q0 38 -14 71.5t-39 59t-58.5 40t-72.5 14.5zM338 1460q59 0 112.5 -23.5t94 -64t64.5 -94.5t24 -115q0 -58 -23.5 -111.5t-63.5 -94
t-94.5 -65t-115.5 -24.5q-62 0 -115 22.5t-93 61.5t-62.5 93.5t-22.5 117.5q0 61 23.5 115.5t63.5 94.5t93.5 63.5t114.5 23.5z"/>
            <glyph glyph-name="bullet" unicode="&#x2022;" horiz-adv-x="1208"
                   d="M307 762q0 61 23.5 114.5t64 93.5t94.5 63.5t115 23.5q60 0 113.5 -23.5t94 -64t64 -94t23.5 -113.5t-23.5 -114t-63.5 -94.5t-94.5 -64.5t-115.5 -24q-62 0 -116 23.5t-94 64t-62.5 94.5t-22.5 115z"/>
            <glyph glyph-name="paragraph" unicode="&#xb6;" horiz-adv-x="1024"
                   d="M969 1479v-99h-117v-1380h-129v1380h-168v-1380h-131v784q-83 3 -151 29.5t-116.5 72.5t-75 108t-26.5 136q0 80 27.5 144.5t78.5 110t123 70t162 24.5h523z"/>
            <glyph glyph-name="registered" unicode="&#xae;" horiz-adv-x="1706"
                   d="M729 1047v-261h117q100 0 146 30.5t46 96.5q0 69 -47.5 101.5t-152.5 32.5h-109zM551 1159h319q175 0 263 -57t88 -168q0 -93 -48.5 -151t-136.5 -78l185 -375h-199l-164 346h-129v-346h-178v829zM853 1361q-88 0 -169 -24t-151 -66.5t-127.5 -101.5t-98 -129t-63 -149
t-22.5 -161q0 -86 23.5 -166t65.5 -150.5t100 -128t127 -99t146.5 -64.5t158.5 -23q85 0 165.5 21.5t152 61.5t130.5 96t102 125t67 149t24 168q0 136 -50 253t-136.5 203t-201 135.5t-243.5 49.5zM852 1470q101 0 195.5 -26.5t176.5 -74t150 -115t116.5 -149.5t75.5 -177
t27 -197q0 -105 -28 -201t-78 -178.5t-119.5 -149.5t-151.5 -114t-174.5 -72.5t-189.5 -25.5q-100 0 -193.5 27t-175.5 76t-150 117t-117 150.5t-76 176.5t-27 194q0 96 25.5 188.5t72.5 174.5t114 151t149 119t177.5 78t200.5 28z"/>
            <glyph glyph-name="copyright" unicode="&#xa9;" horiz-adv-x="1706"
                   d="M1040 895q-11 74 -60.5 114t-129.5 40q-49 0 -88 -22t-66.5 -64t-42 -102.5t-14.5 -129.5q0 -155 57.5 -236t163.5 -81q81 0 129.5 43.5t59.5 124.5h165q-4 -68 -32 -123t-75 -94t-111.5 -60.5t-141.5 -21.5q-92 0 -165 31t-125 88t-79.5 139t-27.5 184q0 105 28.5 189
t80.5 143t126 91t166 32q75 0 136.5 -20t106.5 -57t72 -88t33 -112zM853 1361q-89 0 -171 -23.5t-152 -66t-127 -101.5t-97 -129t-62 -149t-22 -162q0 -86 23.5 -166t65 -150.5t100 -128t128.5 -99t149.5 -64.5t164.5 -23q82 0 160 21.5t148.5 62t129.5 97t102 127t67 152
t24 171.5q0 89 -23 170.5t-64.5 151.5t-99 127t-128 97.5t-150.5 62.5t-166 22zM852 1470q102 0 196.5 -26.5t177 -74.5t150 -115.5t116 -149.5t75 -176.5t26.5 -196.5q0 -108 -28.5 -205t-78.5 -179t-119.5 -148.5t-152 -112.5t-174.5 -71t-188 -25q-100 0 -193.5 27
t-175.5 76t-150 117t-117 150.5t-76 176.5t-27 194q0 96 26 188.5t73.5 174.5t114 151t149 119t177.5 78t199 28z"/>
            <glyph glyph-name="trademark" unicode="&#x2122;" horiz-adv-x="1706"
                   d="M809 1460h170l141 -360l133 360h170v-542h-114v428l-160 -428h-59l-166 428v-428h-115v542zM225 1460h467v-94h-168v-448h-129v448h-170v94z"/>
            <glyph glyph-name="plusminus" unicode="&#xb1;" horiz-adv-x="1706"
                   d="M254 182h1198v-168h-1198v168zM768 1206h170v-334h514v-165h-514v-334h-170v334h-514v165h514v334z"/>
            <glyph glyph-name="mu" unicode="&#xb5;" horiz-adv-x="1208"
                   d="M205 1081h229l-125 -635q-12 -57 -12 -104q0 -197 182 -197q60 0 107.5 21.5t85 67t65 118t47.5 174.5l109 555h225l-145 -739q-9 -45 -15 -74.5t-6 -54.5q2 -37 17 -53.5t53 -16.5q14 0 22 0.5t13 1.5l-33 -159q-32 -8 -68.5 -12.5t-81.5 -4.5q-149 0 -149 125v15
q-42 -67 -107.5 -104.5t-146.5 -37.5q-82 0 -137.5 26t-97.5 83l-99 -506h-229z"/>
            <glyph glyph-name="logicalnot" unicode="&#xac;" horiz-adv-x="1706"
                   d="M254 862h1198v-502h-166v336h-1032v166z"/>
            <glyph glyph-name="divide" unicode="&#xf7;" horiz-adv-x="1706"
                   d="M854 368q28 0 53 -11t44 -29.5t29.5 -44t10.5 -53.5t-10.5 -52.5t-29.5 -43t-44 -29t-53 -10.5q-29 0 -53.5 10.5t-43.5 29t-29.5 43t-10.5 52.5t11 53.5t29.5 44t43.5 29.5t53 11zM254 694h1198v-166h-1198v166zM854 1128q28 0 53 -11t44 -30t29.5 -44.5t10.5 -53.5
t-10.5 -52.5t-29.5 -43t-44 -29t-53 -10.5q-29 0 -53.5 10.5t-43.5 28.5t-29.5 42.5t-10.5 53.5q0 28 11 53.5t29.5 44.5t43.5 30t53 11z"/>
            <glyph glyph-name="Scaron" unicode="&#x160;" horiz-adv-x="1067"
                   d="M367 2001l168 -209l166 209h131l-188 -348h-218l-188 348h129zM188 383q53 -100 129.5 -151.5t176.5 -51.5q49 0 89.5 14.5t69 41t44.5 63t16 80.5q0 60 -22 102.5t-61 76.5t-93.5 65t-118.5 69q-74 44 -128.5 86t-90.5 89.5t-54 104.5t-18 130q0 97 36 181.5t99 147
t149 98.5t187 36q60 0 128.5 -13t145.5 -41l-10 -270q-49 62 -115 93.5t-145 31.5q-52 0 -94.5 -15.5t-72.5 -44t-46 -68t-16 -87.5q0 -49 16.5 -87t48.5 -70.5t78.5 -63.5t106.5 -66q63 -37 125.5 -74.5t119.5 -93.5q51 -49 78 -117t27 -153q0 -101 -36 -182.5
t-104.5 -138.5t-169 -88t-229.5 -31q-65 0 -128 11.5t-126 33.5z"/>
            <glyph glyph-name="Zcaron" unicode="&#x17d;" horiz-adv-x="1214"
                   d="M440 2001l168 -209l166 209h131l-188 -348h-218l-188 348h129zM748 1374q-19 0 -38.5 1t-37.5 1q-196 0 -348.5 -38.5t-270.5 -118.5l121 331h926l-678 -1360q28 -2 55 -2h53q99 0 188.5 7.5t169.5 24t152.5 44t137.5 66.5l-125 -330h-1006z"/>
            <glyph glyph-name="scaron" unicode="&#x161;" horiz-adv-x="868"
                   d="M266 1550l168 -209l166 209h131l-188 -348h-218l-188 348h129zM117 315q62 -99 135.5 -147.5t148.5 -48.5q32 0 58.5 10t45.5 27.5t29.5 42.5t10.5 55q0 40 -15.5 68t-44 51.5t-67.5 46t-86 51.5q-102 63 -151.5 134t-49.5 165q0 70 28.5 129t81.5 102t128 67t168 24
q54 0 106.5 -11t108.5 -32l-2 -207q-107 106 -228 106q-72 0 -113.5 -38t-41.5 -101q0 -40 15 -68t42 -50.5t64 -43t81 -45.5q53 -31 92.5 -63t66 -68.5t39.5 -78t13 -91.5q0 -71 -29 -129t-84 -100t-134 -65t-179 -23q-59 0 -121 10t-131 29z"/>
            <glyph glyph-name="zcaron" unicode="&#x17e;" horiz-adv-x="877"
                   d="M270 1550l168 -209l166 209h131l-188 -348h-218l-188 348h129zM492 932q-28 2 -54 3t-51 1q-96 0 -170.5 -15t-136.5 -51l39 205h676l-433 -923q26 -4 51 -4.5t48 -0.5q97 0 180 21t156 68l-62 -236h-680z"/>
            <glyph glyph-name="uni00AD" unicode="&#xad;" horiz-adv-x="764"
                   d="M530 649q44 0 81 6.5t71 20.5v-252q-34 14 -71 20.5t-81 6.5h-299q-84 0 -151 -27v252q34 -14 71 -20.5t80 -6.5h299z"/>
            <glyph glyph-name="twosuperior" unicode="&#xb2;" horiz-adv-x="834"
                   d="M285 733q171 0 288.5 12t180.5 39v-163h-740q122 134 216.5 243t159 195t97.5 149.5t33 106.5q0 57 -37 88t-106 31q-32 0 -59 -10.5t-46.5 -29.5t-30 -46t-10.5 -60q0 -17 3.5 -38t9.5 -46l-144 82q-2 6 -2 13.5v13.5q0 52 22 97t61 78t91.5 52t114.5 19
q67 0 121.5 -17.5t93 -49t59.5 -75t21 -94.5q0 -52 -28.5 -111t-80.5 -130t-125 -157t-163 -192z"/>
            <glyph glyph-name="threesuperior" unicode="&#xb3;" horiz-adv-x="834"
                   d="M487 1159q50 -10 89.5 -32.5t67 -54.5t42 -73t14.5 -88q0 -68 -25.5 -123t-72.5 -95t-114 -61.5t-150 -21.5q-160 0 -279 78l99 168q35 -69 86.5 -102t124.5 -33q39 0 72.5 13.5t57.5 37.5t38 58t14 75q0 75 -58.5 118.5t-160.5 43.5q-28 0 -62 -6l238 381
q-191 0 -299.5 -13t-140.5 -53v174h663z"/>
            <glyph glyph-name="onesuperior" unicode="&#xb9;" horiz-adv-x="831"
                   d="M297 621q25 57 35 116t10 125v504h-119l271 203v-707q0 -66 10 -125t35 -116h-242z"/>
            <glyph glyph-name="onequarter" unicode="&#xbc;" horiz-adv-x="1931"
                   d="M285 682q23 53 32 108t9 117v469h-113l260 191v-660q0 -62 9 -117t32 -108h-229zM717 164q-47 -87 -60 -178h-219q44 60 75.5 107.5t49.5 82.5l651 1210q22 41 36 86t22 93h221q-45 -62 -76.5 -109.5t-50.5 -81.5zM1724 186q0 -25 0.5 -48.5t5 -46.5t14.5 -45.5t28 -45.5
h-228q32 45 39.5 89.5t7.5 96.5v113h-411v127q32 23 63.5 53.5t63.5 65.5l161 184q30 33 103 139h168q-10 -31 -12.5 -66t-2.5 -77v-322q39 0 78 4t76 13v-137q-37 8 -75 12t-79 4v-113zM1591 403v308l-272 -308h272z"/>
            <glyph glyph-name="onehalf" unicode="&#xbd;" horiz-adv-x="1931"
                   d="M285 682q23 53 32 108t9 117v469h-113l260 191v-660q0 -62 9 -117t32 -108h-229zM717 164q-47 -87 -60 -178h-219q44 60 75.5 107.5t49.5 82.5l651 1210q22 41 36 86t22 93h221q-45 -62 -76.5 -109.5t-50.5 -81.5zM1407 106q165 0 277 11t174 37v-154h-709
q117 126 207.5 228t152 182t93.5 138.5t32 98.5q0 54 -35.5 82.5t-101.5 28.5q-63 0 -101 -36.5t-38 -96.5q0 -35 12 -80l-137 76q-2 6 -2 12v12q0 49 21 91.5t58 73.5t87.5 49t109.5 18q63 0 115 -17t88.5 -46.5t57 -70t20.5 -88.5q0 -49 -27.5 -104t-77.5 -121
t-120 -145.5t-156 -178.5z"/>
            <glyph glyph-name="threequarters" unicode="&#xbe;" horiz-adv-x="1931"
                   d="M465 1186q96 -20 149.5 -82t53.5 -152q0 -63 -24 -114.5t-69 -87.5t-109 -56t-144 -20q-76 0 -142.5 17t-122.5 54l95 156q34 -63 82 -94t116 -31q38 0 70 12.5t55 35t36 54.5t13 70q0 69 -56 109.5t-153 40.5q-12 0 -26 -0.5t-31 -13.5l225 366q-90 -1 -161 -3.5
t-123 -9.5t-86 -19.5t-50 -31.5v164h635zM717 164q-47 -87 -60 -178h-219q44 60 75.5 107.5t49.5 82.5l651 1210q22 41 36 86t22 93h221q-45 -62 -76.5 -109.5t-50.5 -81.5zM1724 186q0 -25 0.5 -48.5t5 -46.5t14.5 -45.5t28 -45.5h-228q32 45 39.5 89.5t7.5 96.5v113h-411
v127q32 23 63.5 53.5t63.5 65.5l161 184q30 33 103 139h168q-10 -31 -12.5 -66t-2.5 -77v-322q39 0 78 4t76 13v-137q-37 8 -75 12t-79 4v-113zM1591 403v308l-272 -308h272z"/>
            <glyph glyph-name="Eth" unicode="&#xd0;" horiz-adv-x="1411"
                   d="M459 145q138 0 260 64q78 40 140.5 98t106 129.5t66.5 154.5t23 173q0 126 -42 235t-120.5 192.5t-191.5 138t-255 71.5v-539h136q43 0 80 6.5t71 20.5v-205q-68 27 -151 27h-136v-566h13zM141 0q37 94 52.5 193t15.5 210v308h-57q-85 0 -152 -27v205q34 -14 71 -20.5
t81 -6.5h57v285q0 111 -15.5 210t-52.5 193h183q147 0 275 -14.5t245 -60.5q111 -45 200.5 -116t151.5 -162t95.5 -198t33.5 -223q0 -112 -25.5 -213t-74 -187t-118 -155t-157.5 -117q-57 -32 -118 -52t-128 -31.5t-141 -16t-155 -4.5h-267z"/>
            <glyph glyph-name="Yacute" unicode="&#xdd;" horiz-adv-x="1147"
                   d="M803 1321q26 45 38.5 91.5t12.5 88.5q0 28 -6 49h356q-52 -72 -92 -131.5t-68 -107.5l-346 -602v-306q0 -111 14.5 -210t51.5 -193h-369q37 94 51.5 193t14.5 210v306l-355 598q-38 66 -82.5 127t-95.5 116h391q-5 -18 -6.5 -32t-1.5 -25q0 -31 13 -71.5t41 -88.5
l223 -397zM852 2001l-295 -348h-131l204 348h222z"/>
            <glyph glyph-name="Thorn" unicode="&#xde;" horiz-adv-x="1143"
                   d="M426 440q183 7 277 94.5t94 249.5q0 180 -85.5 264.5t-265.5 84.5h-20v-693zM190 1147q0 111 -15 210t-52 193h371q-52 -134 -64 -272h43q144 0 254.5 -30t185.5 -88.5t113.5 -144t38.5 -196.5q0 -106 -32.5 -190.5t-95.5 -144t-154 -91t-208 -31.5q-35 0 -72 3.5
t-77 9.5q0 -201 68 -375h-371q37 94 52 193t15 210v744z"/>
            <glyph glyph-name="eth" unicode="&#xf0;" horiz-adv-x="1176"
                   d="M895 106q-96 -60 -180.5 -90t-161.5 -30q-99 0 -185.5 35.5t-150 99t-100.5 151t-37 191.5q0 124 47.5 231.5t134.5 182.5q34 29 67.5 49t63.5 32t55.5 17.5t43.5 5.5h10.5t9.5 -2l246 -80l-201 299l-182 -57q-40 -13 -74 -29t-63 -39l-52 166q8 -2 14.5 -2h14.5
q29 0 60 6.5t65 16.5l137 38q-56 84 -111 146.5t-114 105.5h362v-18q0 -87 58 -172l196 61q42 13 76 30t62 40l51 -168q-8 0 -14.5 1t-14.5 1q-29 0 -59 -5.5t-64 -14.5l-162 -52l93 -131q56 -80 103 -153t81.5 -146t54 -147.5t19.5 -157.5q0 -133 -48.5 -234.5
t-150.5 -177.5zM702 147q90 48 140.5 140t50.5 213q0 83 -28.5 172t-84.5 192q-48 6 -92 6q-186 0 -282.5 -94t-96.5 -270q0 -84 23 -151t66.5 -114t106 -72.5t140.5 -25.5q14 0 28 1t29 3z"/>
            <glyph glyph-name="yacute" unicode="&#xfd;" horiz-adv-x="999"
                   d="M129 817q-40 93 -81.5 157t-78.5 101h355q-11 -41 -11 -69t6.5 -62t20.5 -70l186 -471l160 426q20 51 28.5 94.5t8.5 75.5q0 17 -2 36t-8 40h315q-34 -45 -60 -91.5t-47.5 -93.5t-40.5 -93.5t-38 -91.5l-221 -527q-90 -213 -162.5 -342.5t-120.5 -177.5h-272
q111 105 198 231.5t150 278.5zM780 1550l-295 -348h-131l204 348h222z"/>
            <glyph glyph-name="thorn" unicode="&#xfe;" horiz-adv-x="1139"
                   d="M160 1212q0 155 -58 271q75 15 154 32t166 35q-23 -66 -36 -169t-13 -240v-269q42 51 80.5 89.5t77 65t77.5 39.5t82 13q75 0 141.5 -36t116.5 -102t79.5 -160.5t29.5 -211.5q0 -120 -32.5 -219t-87.5 -170.5t-128.5 -111t-155.5 -39.5q-71 0 -137 31.5t-143 91.5v-224
q0 -77 13 -144t42 -126h-326q58 116 58 270v1284zM373 231q42 -26 82 -39.5t82 -13.5q65 0 119 26.5t93 75t60.5 118t21.5 155.5q0 81 -19.5 146t-55.5 110.5t-85.5 69.5t-109.5 24q-94 0 -188 -72v-600z"/>
            <glyph glyph-name="afii10023" unicode="&#x401;" horiz-adv-x="1085"
                   d="M123 0q37 94 52 193t15 210v744q0 111 -15 210t-52 193h848l-121 -250q-77 50 -178 72.5t-228 22.5h-18v-535h481l-141 -225q-62 32 -146.5 50t-193.5 26v-564q15 0 30.5 -1t30.5 -1q149 0 287 27.5t275 83.5l-117 -256h-809zM604 1817q0 24 10 45.5t26.5 38t38.5 26
t46 9.5q25 0 46.5 -9.5t37.5 -25.5t25.5 -37.5t9.5 -46.5q0 -54 -33 -87.5t-86 -33.5q-25 0 -47 9t-38.5 25t-26 38.5t-9.5 48.5zM240 1817q0 24 9.5 45.5t26 38t38.5 26t47 9.5q24 0 46 -9.5t38 -25.5t25.5 -37.5t9.5 -46.5q0 -54 -33.5 -87.5t-85.5 -33.5q-26 0 -48 9
t-38 25t-25.5 38.5t-9.5 48.5z"/>
            <glyph glyph-name="afii10051" unicode="&#x402;" horiz-adv-x="1513"
                   d="M662 862q43 38 86 62t84.5 38t82 19.5t78.5 5.5q97 0 178 -39t139 -115t90 -189t32 -261q0 -79 -12 -161.5t-36 -161t-61.5 -148t-88 -121.5t-115.5 -82.5t-144 -30.5q-5 0 -21.5 0.5t-40.5 2.5t-53.5 6t-60.5 12q120 61 195.5 131t117.5 152.5t57 181.5t15 219
q0 124 -24.5 205.5t-63.5 129t-87 66.5t-94 19q-84 0 -145.5 -20.5t-107.5 -43.5v-336q0 -111 15 -210t52 -193h-371q38 94 53 193t15 210v977q-74 -2 -131.5 -8t-106.5 -17t-94 -28t-94 -41l70 264h1048l-100 -260q-41 25 -77.5 42t-77 27.5t-89 15.5t-112.5 5v-518z"/>
            <glyph glyph-name="afii10052" unicode="&#x403;" horiz-adv-x="983"
                   d="M426 403q0 -111 15 -210t53 -193h-371q37 94 52 193t15 210v744q0 111 -15 210t-52 193h883l-121 -250q-78 50 -179 72.5t-231 22.5h-49v-992zM832 2001l-295 -348h-131l204 348h222z"/>
            <glyph glyph-name="afii10053" unicode="&#x404;" horiz-adv-x="1503"
                   d="M358 688q7 -124 49 -219t113.5 -159.5t169.5 -98t217 -33.5q127 0 245 45t239 137l-7 -262q-143 -57 -273.5 -84.5t-248.5 -27.5q-143 0 -267.5 41t-229.5 123q-138 106 -210.5 260.5t-72.5 341.5q0 192 74 351t215 271q240 195 608 195q165 0 375 -51l-2 -273
q-91 66 -200.5 99.5t-229.5 33.5q-116 0 -212.5 -35.5t-168.5 -101.5t-117.5 -161.5t-58.5 -215.5h763l-120 -250q-39 25 -83.5 39.5t-95.5 22t-109 10t-122 2.5h-240z"/>
            <glyph glyph-name="afii10054" unicode="&#x405;" horiz-adv-x="1067"
                   d="M188 383q53 -100 129.5 -151.5t176.5 -51.5q49 0 89.5 14.5t69 41t44.5 63t16 80.5q0 60 -22 102.5t-61 76.5t-93.5 65t-118.5 69q-74 44 -128.5 86t-90.5 89.5t-54 104.5t-18 130q0 97 36 181.5t99 147t149 98.5t187 36q60 0 128.5 -13t145.5 -41l-10 -270
q-49 62 -115 93.5t-145 31.5q-52 0 -94.5 -15.5t-72.5 -44t-46 -68t-16 -87.5q0 -49 16.5 -87t48.5 -70.5t78.5 -63.5t106.5 -66q63 -37 125.5 -74.5t119.5 -93.5q51 -49 78 -117t27 -153q0 -101 -36 -182.5t-104.5 -138.5t-169 -88t-229.5 -31q-65 0 -128 11.5t-126 33.5z
"/>
            <glyph glyph-name="afii10055" unicode="&#x406;" horiz-adv-x="616"
                   d="M494 1550q-38 -94 -53 -193t-15 -210v-744q0 -111 15 -210t53 -193h-371q37 94 52 193t15 210v744q0 111 -15 210t-52 193h371z"/>
            <glyph glyph-name="afii10056" unicode="&#x407;" horiz-adv-x="616"
                   d="M494 1550q-38 -94 -53 -193t-15 -210v-744q0 -111 15 -210t53 -193h-371q37 94 52 193t15 210v744q0 111 -15 210t-52 193h371zM371 1817q0 24 10 45.5t26.5 38t38.5 26t46 9.5q25 0 46.5 -9.5t37.5 -25.5t25.5 -37.5t9.5 -46.5q0 -54 -33 -87.5t-86 -33.5q-25 0 -47 9
t-38.5 25t-26 38.5t-9.5 48.5zM7 1817q0 24 9.5 45.5t26 38t38.5 26t47 9.5q24 0 46 -9.5t38 -25.5t25.5 -37.5t9.5 -46.5q0 -54 -33.5 -87.5t-85.5 -33.5q-26 0 -48 9t-38 25t-25.5 38.5t-9.5 48.5z"/>
            <glyph glyph-name="afii10057" unicode="&#x408;" horiz-adv-x="750"
                   d="M629 1550q-37 -94 -51.5 -193t-14.5 -210v-854q0 -76 -3 -142t-13.5 -124t-31.5 -109t-58 -96q-57 -69 -135.5 -106.5t-163.5 -37.5q-10 0 -20 0.5t-21 2.5l-148 18q90 45 154 92.5t106 106.5q54 78 75.5 202.5t21.5 302.5v951h-29q-81 0 -157 -8.5t-150 -26.5l65 231
h574z"/>
            <glyph glyph-name="afii10058" unicode="&#x409;" horiz-adv-x="2028"
                   d="M1004 0q37 94 52 193t15 210v953h-356q0 -281 -14.5 -491.5t-45 -363t-76.5 -252t-108.5 -158t-142 -82t-176.5 -23.5q-29 0 -61.5 2.5t-84.5 13.5l-6 195q25 -10 57.5 -18.5t69.5 -8.5q56 0 104.5 16t88.5 61t70.5 126.5t51.5 212.5t32 318.5t11 445.5q0 18 -1.5 45.5
t-3.5 56t-5 55t-6 43.5h903q-37 -94 -51 -193t-14 -210v-234q27 9 56.5 15t59 9t57 4t50.5 1q84 0 163 -27.5t139.5 -84t97 -142t36.5 -201.5q0 -94 -29 -182t-93.5 -155.5t-167.5 -108.5t-251 -41h-421zM1307 141q7 -1 19.5 -1.5t26.5 -0.5h27h19q71 0 127.5 21t96 62
t60.5 102t21 141q0 93 -21 154t-56.5 97.5t-82.5 51t-100 14.5q-11 0 -29 -1t-37.5 -3t-38.5 -4.5t-32 -5.5v-627z"/>
            <glyph glyph-name="afii10059" unicode="&#x40a;" horiz-adv-x="1966"
                   d="M1245 864q56 16 116.5 22.5t106.5 6.5q85 0 163.5 -24.5t139.5 -76t97.5 -130.5t36.5 -187q0 -87 -29.5 -172t-94 -152.5t-167.5 -109t-250 -41.5h-422q37 94 52.5 193t15.5 210v285h-584v-285q0 -111 15 -210t53 -193h-371q37 94 52 193t15 210v744q0 111 -15 210
t-52 193h371q-38 -94 -53 -193t-15 -210v-264h584v264q0 111 -15.5 210t-52.5 193h371q-37 -94 -52.5 -193t-15.5 -210v-283zM1245 141q7 -1 20 -1.5t27 -0.5h26.5h18.5q72 0 128.5 22t95.5 62.5t60 99t21 130.5q0 85 -20.5 139.5t-56 85.5t-83 43t-100.5 12q-11 0 -28.5 -1
t-37.5 -3t-39 -4.5t-32 -5.5v-578z"/>
            <glyph glyph-name="afii10060" unicode="&#x40b;" horiz-adv-x="1556"
                   d="M662 862q66 44 115 69t89 37.5t73.5 15.5t68.5 3q48 0 91.5 -10.5t80.5 -27t66.5 -37t49.5 -40.5q45 -44 73 -114.5t28 -182.5v-172q0 -111 15 -210t52 -193h-370q37 94 52 193t15 210v168q0 60 -21.5 105t-57.5 75t-83 45t-98 15q-29 0 -61.5 -6.5t-64.5 -16.5t-61 -23
t-52 -26v-336q0 -111 15 -210t52 -193h-371q38 94 53 193t15 210v977q-74 -2 -131.5 -8t-106.5 -17t-94 -28t-94 -41l70 264h1048l-100 -260q-41 25 -77.5 42t-77 27.5t-89 15.5t-112.5 5v-518z"/>
            <glyph glyph-name="afii10061" unicode="&#x40c;" horiz-adv-x="1360"
                   d="M893 2025l-295 -348h-131l204 348h222zM494 1550q-38 -94 -53 -193t-15 -210v-275l418 504q37 45 55.5 84t18.5 74v16h415q-167 -122 -272 -250l-369 -440l443 -567q66 -85 130.5 -159t135.5 -134h-416v16q0 50 -23 107t-71 117l-465 587v-424q0 -111 15 -210t53 -193
h-371q37 94 52 193t15 210v744q0 111 -15 210t-52 193h371z"/>
            <glyph glyph-name="afii10062" unicode="&#x40e;" horiz-adv-x="1452"
                   d="M604 1968q2 -37 8 -69.5t20 -57t40 -39t69 -14.5t68.5 14.5t40 39t19.5 57t8 69.5l159 2q-11 -148 -81.5 -218.5t-213.5 -70.5q-142 0 -215 70.5t-84 218.5zM844 381q-56 -109 -117 -206t-135 -175h-285q50 41 91.5 85t77.5 92t67.5 100t62.5 110l-383 793
q-53 109 -109 202t-134 168h442q-6 -45 -6 -82q0 -65 13.5 -148t57.5 -177l248 -522l318 645q21 43 27.5 92t6.5 86q0 53 -20 106h416q-131 -146 -252 -409z"/>
            <glyph glyph-name="afii10145" unicode="&#x40f;" horiz-adv-x="1507"
                   d="M123 0q37 94 52 193t15 210v744q0 111 -15 210t-52 193h371q-38 -94 -53 -193t-15 -210v-952h655v952q0 111 -15 210t-52 193h370q-37 -94 -51 -193t-14 -210v-744q0 -111 14 -210t51 -193h-507v-143q0 -47 9.5 -87t31.5 -77h-328q41 72 41 164v143h-508z"/>
            <glyph glyph-name="afii10017" unicode="&#x410;" horiz-adv-x="1464"
                   d="M344 274q-31 -65 -47 -120.5t-16 -108.5q0 -11 1 -22.5t3 -22.5h-369q119 151 231 379l598 1204l580 -1249q34 -74 87 -157t124 -177h-397q6 40 6 72q0 49 -13 87t-30 77l-105 243h-555zM915 659l-186 441l-203 -441h389z"/>
            <glyph glyph-name="afii10018" unicode="&#x411;" horiz-adv-x="1147"
                   d="M426 1395v-482q56 19 116.5 24t106.5 5q84 0 163 -27.5t139.5 -84t97 -142t36.5 -201.5q0 -94 -29 -182t-93.5 -155.5t-167.5 -108.5t-250 -41h-422q37 94 52 193t15 210v744q0 111 -15 210t-52 193h870l-121 -250q-38 25 -69.5 43t-67 29.5t-80 17t-108.5 5.5h-121z
M426 141q7 -1 20 -1.5t27 -0.5h26.5h18.5q72 0 128.5 21t95.5 62t60 102t21 141q0 93 -20.5 154t-56 97.5t-83 51t-100.5 14.5q-11 0 -28.5 -1t-37.5 -3t-39 -4.5t-32 -5.5v-627z"/>
            <glyph glyph-name="afii10019" unicode="&#x412;" horiz-adv-x="1128"
                   d="M123 0q37 94 52 193t15 210v744q0 111 -15 210t-52 193h260q136 0 233.5 -15t159.5 -50q102 -59 155.5 -144t53.5 -184q0 -108 -56.5 -194t-164.5 -140q287 -160 287 -397q0 -95 -40 -173t-117 -134.5t-190.5 -87.5t-261.5 -31h-319zM426 836q70 10 126 37.5t95 68.5
t59.5 93t20.5 112q0 54 -21.5 100.5t-61 81t-95 54.5t-123.5 20v-567zM426 141q14 -2 26.5 -2h24.5q72 0 129.5 22t98 61t62 93t21.5 119q0 64 -25.5 124t-72.5 108.5t-114 82.5t-150 46v-654z"/>
            <glyph glyph-name="afii10020" unicode="&#x413;" horiz-adv-x="1014"
                   d="M426 403q0 -111 15 -210t53 -193h-371q37 94 52 193t15 210v744q0 111 -15 210t-52 193h883l-121 -250q-78 50 -179 72.5t-231 22.5h-49v-992z"/>
            <glyph glyph-name="afii10021" unicode="&#x414;" horiz-adv-x="1462"
                   d="M215 0q0 -91 22 -166t60 -141h-297v502h111q85 69 146.5 155t104 182t69 200t41 209t20 209.5t6.5 201.5q0 104 -17 198h822q-38 -94 -52 -193t-14 -210v-952h205v-502h-297q38 66 60 141t22 166h-1012zM719 1356q-5 -72 -9.5 -163t-14.5 -191.5t-28.5 -208t-52.5 -212
t-87 -203.5t-130 -183h604v1161h-282z"/>
            <glyph glyph-name="afii10022" unicode="&#x415;" horiz-adv-x="1085"
                   d="M123 0q37 94 52 193t15 210v744q0 111 -15 210t-52 193h848l-121 -250q-77 50 -178 72.5t-228 22.5h-18v-535h481l-141 -225q-62 32 -146.5 50t-193.5 26v-564q15 0 30.5 -1t30.5 -1q149 0 287 27.5t275 83.5l-117 -256h-809z"/>
            <glyph glyph-name="afii10024" unicode="&#x416;" horiz-adv-x="1991"
                   d="M883 827l-383 -587q-41 -60 -67.5 -117t-26.5 -107v-16h-406q71 60 135.5 134t130.5 159l381 567l-307 440q-53 63 -120 125.5t-152 124.5h405v-16q0 -35 22.5 -74t51.5 -84l336 -504v275q0 111 -15.5 210t-52.5 193h361q-38 -94 -53 -193t-15 -210v-275l336 504
q29 45 51.5 84t22.5 74v16h405q-85 -62 -152.5 -124.5t-119.5 -125.5l-308 -440l381 -567q66 -85 130.5 -159t136.5 -134h-406v16q0 50 -27 107t-67 117l-383 587v-424q0 -111 15 -210t53 -193h-361q37 94 52.5 193t15.5 210v424z"/>
            <glyph glyph-name="afii10025" unicode="&#x417;" horiz-adv-x="1116"
                   d="M1026 453q0 -104 -34.5 -190t-100.5 -147.5t-162 -95.5t-219 -34q-61 0 -112.5 5.5t-99.5 15.5t-95 24t-99 30l-6 258q33 -24 75.5 -50t94 -48t112 -36.5t128.5 -14.5q54 0 106.5 17.5t93.5 52t66 85.5t25 119q0 73 -25 124t-64.5 83.5t-87.5 47t-94 14.5
q-35 0 -60.5 -3.5t-46 -9t-37.5 -13.5t-34 -17l-69 217h139q89 0 154 18t108 51t63.5 79t20.5 102q0 57 -19 102t-54.5 76t-85 47t-109.5 16q-48 0 -99 -12.5t-99 -34.5t-90 -53t-71 -68l-8 256q88 54 180.5 76.5t188.5 22.5q112 0 200.5 -28.5t149.5 -82.5t93 -130.5
t32 -172.5q0 -54 -15.5 -101.5t-42.5 -88t-63 -72.5t-78 -55q47 -21 92 -50.5t80 -74t56.5 -107t21.5 -149.5z"/>
            <glyph glyph-name="afii10026" unicode="&#x418;" horiz-adv-x="1487"
                   d="M1298 403q0 -111 15.5 -210t52.5 -193h-346q37 94 51 193t14 210v625l-673 -799q15 -116 59 -229h-346q37 94 51 193t14 210v744q0 111 -15 210t-52 193h346q-37 -94 -51.5 -193t-14.5 -210v-641l674 799q-8 65 -22 125t-37 120h346q-37 -94 -51.5 -193t-14.5 -210v-744z
"/>
            <glyph glyph-name="afii10027" unicode="&#x419;" horiz-adv-x="1487"
                   d="M1298 403q0 -111 15.5 -210t52.5 -193h-346q37 94 51 193t14 210v625l-673 -799q15 -116 59 -229h-346q37 94 51 193t14 210v744q0 111 -15 210t-52 193h346q-37 -94 -51.5 -193t-14.5 -210v-641l674 799q-8 65 -22 125t-37 120h346q-37 -94 -51.5 -193t-14.5 -210v-744z
M612 1968q2 -37 8 -69.5t20.5 -57t40.5 -39t69 -14.5t68.5 14.5t39.5 39t19.5 57t7.5 69.5l159 2q-11 -148 -81.5 -218.5t-212.5 -70.5q-143 0 -215.5 70.5t-83.5 218.5z"/>
            <glyph glyph-name="afii10028" unicode="&#x41a;" horiz-adv-x="1360"
                   d="M494 1550q-38 -94 -53 -193t-15 -210v-275l418 504q37 45 55.5 84t18.5 74v16h415q-167 -122 -272 -250l-369 -440l443 -567q66 -85 130.5 -159t135.5 -134h-416v16q0 50 -23 107t-71 117l-465 587v-424q0 -111 15 -210t53 -193h-371q37 94 52 193t15 210v744
q0 111 -15 210t-52 193h371z"/>
            <glyph glyph-name="afii10029" unicode="&#x41b;" horiz-adv-x="1495"
                   d="M715 1356q0 -281 -14.5 -491.5t-45 -363t-76.5 -252t-108.5 -158t-142 -82t-176.5 -23.5q-29 0 -61.5 2.5t-84.5 13.5l-6 195q25 -10 57.5 -18.5t69.5 -8.5q56 0 104.5 16t88.5 61t70.5 126.5t51.5 212.5t32 318.5t11 445.5q0 18 -1.5 45.5t-3.5 56t-5 55t-6 43.5h903
q-37 -94 -51 -193t-14 -210v-744q0 -111 14 -210t51 -193h-368q37 94 52 193t15 210v953h-356z"/>
            <glyph glyph-name="afii10030" unicode="&#x41c;" horiz-adv-x="1905"
                   d="M436 403q0 -111 14.5 -210t51.5 -193h-369q37 94 51.5 193t14.5 210v983l-162 164h362q2 -43 23 -75.5t49 -67.5l481 -616l486 616q29 37 48.5 69t22.5 74h344q-69 -57 -108 -156.5t-39 -236.5v-754q0 -111 14 -210t52 -193h-371q37 94 52 193t15 210v707l-520 -643
l-512 645v-709z"/>
            <glyph glyph-name="afii10031" unicode="&#x41d;" horiz-adv-x="1507"
                   d="M1081 1147q0 111 -15 210t-52 193h370q-37 -94 -51 -193t-14 -210v-744q0 -111 14 -210t51 -193h-370q37 94 52 193t15 210v285h-655v-285q0 -111 15 -210t53 -193h-371q37 94 52 193t15 210v744q0 111 -15 210t-52 193h371q-38 -94 -53 -193t-15 -210v-264h655v264z"/>
            <glyph glyph-name="afii10032" unicode="&#x41e;" horiz-adv-x="1741"
                   d="M1655 784q0 -180 -64 -332t-188 -264q-112 -100 -247 -151t-288 -51q-142 0 -271 45t-241 135q-133 108 -203.5 265.5t-70.5 350.5q0 294 180 504q116 134 277 206.5t350 72.5q158 0 290 -52.5t238 -152.5q116 -112 177 -257t61 -319zM895 172q108 0 200 40t159 112.5
t105 174.5t38 226q0 116 -28 216.5t-79 180.5q-80 127 -193 192.5t-249 65.5q-108 0 -200 -41.5t-158.5 -116t-104 -179t-37.5 -230.5q0 -116 31.5 -219.5t93.5 -194.5q74 -109 184 -168t238 -59z"/>
            <glyph glyph-name="afii10033" unicode="&#x41f;" horiz-adv-x="1507"
                   d="M1384 1550q-37 -94 -51 -193t-14 -210v-744q0 -111 14 -210t51 -193h-368q37 94 52 193t15 210v953h-657v-953q0 -111 15 -210t53 -193h-371q37 94 52 193t15 210v744q0 111 -15 210t-52 193h1261z"/>
            <glyph glyph-name="afii10034" unicode="&#x420;" horiz-adv-x="1143"
                   d="M426 713q183 6 277 94t94 250q0 180 -85 264t-266 84h-20v-692zM420 1550q146 0 245 -15.5t150 -41.5q127 -65 188.5 -163.5t61.5 -237.5q0 -106 -32.5 -190.5t-95.5 -144t-154 -91t-208 -31.5q-70 0 -149 12v-244q0 -111 15 -210t53 -193h-371q37 94 52 193t15 210v744
q0 111 -15 210t-52 193h297z"/>
            <glyph glyph-name="afii10035" unicode="&#x421;" horiz-adv-x="1503"
                   d="M1384 98q-143 -57 -273.5 -84.5t-248.5 -27.5q-143 0 -267.5 41t-229.5 123q-138 106 -210.5 260.5t-72.5 341.5q0 192 74 351t215 271q240 195 608 195q165 0 375 -51l-2 -273q-91 66 -200.5 99.5t-229.5 33.5q-128 0 -232 -42.5t-177.5 -122.5t-114 -194.5
t-40.5 -258.5q0 -134 39 -241.5t111 -183.5t173 -116.5t226 -40.5q127 0 245 45t238 137z"/>
            <glyph glyph-name="afii10036" unicode="&#x422;" horiz-adv-x="1204"
                   d="M481 1380q-148 -5 -268 -25.5t-219 -68.5l69 264h1172l-100 -260q-82 50 -185 70t-233 20v-977q0 -111 15 -210t52 -193h-370q37 94 52 193t15 210v977z"/>
            <glyph glyph-name="afii10037" unicode="&#x423;" horiz-adv-x="1452"
                   d="M844 381q-56 -109 -117 -206t-135 -175h-285q50 41 91.5 85t77.5 92t67.5 100t62.5 110l-383 793q-53 109 -109 202t-134 168h442q-6 -45 -6 -82q0 -65 13.5 -148t57.5 -177l248 -522l318 645q21 43 27.5 92t6.5 86q0 53 -20 106h416q-131 -146 -252 -409z"/>
            <glyph glyph-name="afii10038" unicode="&#x424;" horiz-adv-x="1616"
                   d="M993 1550q-23 -57 -37 -115t-22 -120q71 -8 144 -25.5t141 -46.5t127 -70.5t103 -97.5t69.5 -128t25.5 -161q0 -91 -24 -165t-66 -131.5t-100 -100t-125.5 -72t-142.5 -47t-152 -24.5q6 -65 21 -126t38 -120h-370q23 59 37 120t22 126q-73 7 -146.5 24t-141 46t-126.5 71
t-102.5 100t-68.5 132t-25 167q0 85 24.5 154.5t67 125.5t101 99t126 73.5t141.5 49.5t148 27q-15 122 -57 235h370zM338 786q0 -90 27 -158.5t74.5 -117t112 -78t138.5 -41.5v783q-74 -12 -138.5 -40t-112 -75.5t-74.5 -115t-27 -157.5zM1278 786q0 90 -27.5 157t-75 114
t-112 75t-137.5 39v-780q73 12 137.5 41.5t112 78t75 117t27.5 158.5z"/>
            <glyph glyph-name="afii10039" unicode="&#x425;" horiz-adv-x="1325"
                   d="M1104 291q45 -74 106.5 -148t139.5 -143h-459q18 46 18 84q0 78 -49 158l-203 331l-161 -258q-57 -91 -85 -166.5t-28 -132.5v-16h-410q87 80 170 181t158 225l234 380l-285 461q-114 187 -240 303h414q-3 -12 -3.5 -22.5t-0.5 -18.5q0 -13 4.5 -35.5t15 -52.5t27 -66.5
t41.5 -76.5l162 -270l174 295q35 61 52 119.5t17 111.5v16h365q-82 -105 -141 -188.5t-95 -144.5l-245 -418z"/>
            <glyph glyph-name="afii10040" unicode="&#x426;" horiz-adv-x="1536"
                   d="M123 0q37 94 52 193t15 210v744q0 111 -15 210t-52 193h371q-38 -94 -53 -193t-15 -210v-952h657v952q0 111 -15 210t-52 193h368q-37 -94 -51 -193t-14 -210v-952h205v-502h-297q38 66 60 141t22 166h-1186z"/>
            <glyph glyph-name="afii10041" unicode="&#x427;" horiz-adv-x="1311"
                   d="M885 688q-66 -44 -115.5 -69t-89 -37.5t-73.5 -15.5t-68 -3q-48 0 -91.5 10.5t-81 27t-67 37t-49.5 40.5q-23 22 -41 50t-31.5 64t-20.5 81.5t-7 101.5v172q0 111 -15.5 210t-52.5 193h371q-38 -94 -53 -193t-15 -210v-168q0 -60 21.5 -105t57.5 -75t83 -45t98 -15
q29 0 61.5 6.5t64.5 16.5t61.5 23t52.5 26v336q0 111 -15.5 210t-52.5 193h371q-37 -94 -52.5 -193t-15.5 -210v-776q2 -102 18 -193t50 -178h-371q34 87 51 178t17 193v317z"/>
            <glyph glyph-name="afii10042" unicode="&#x428;" horiz-adv-x="2273"
                   d="M1849 1147q0 111 -15 210t-52 193h370q-37 -94 -52 -193t-15 -210v-744q0 -111 15 -210t52 -193h-2029q37 94 52 193t15 210v744q0 111 -15 210t-52 193h371q-38 -94 -53 -193t-15 -210v-952h594v952q0 111 -15.5 210t-52.5 193h371q-37 -94 -52.5 -193t-15.5 -210v-952
h594v952z"/>
            <glyph glyph-name="afii10043" unicode="&#x429;" horiz-adv-x="2302"
                   d="M123 0q37 94 52 193t15 210v744q0 111 -15 210t-52 193h371q-38 -94 -53 -193t-15 -210v-952h594v952q0 111 -15.5 210t-52.5 193h371q-37 -94 -52.5 -193t-15.5 -210v-952h594v952q0 111 -15 210t-52 193h368q-37 -94 -51 -193t-14 -210v-952h205v-502h-297
q38 66 60 141t22 166h-1952z"/>
            <glyph glyph-name="afii10044" unicode="&#x42a;" horiz-adv-x="1456"
                   d="M735 913q56 19 116.5 24t106.5 5q85 0 163.5 -27.5t139.5 -84t97.5 -142t36.5 -201.5q0 -94 -29.5 -182t-94 -155.5t-167.5 -108.5t-250 -41h-424q37 94 52.5 193t15.5 210v992h-49q-65 0 -110 -5.5t-80.5 -17t-67.5 -29.5t-70 -43l-121 250h801q-37 -94 -53.5 -193
t-14.5 -210zM735 141q7 -1 20 -1.5t27 -0.5h26.5h18.5q72 0 128.5 21t96 62t60.5 102t21 141q0 93 -21 154t-56.5 97.5t-83 51t-100.5 14.5q-11 0 -28.5 -1t-37.5 -3t-39 -4.5t-32 -5.5v-627z"/>
            <glyph glyph-name="afii10045" unicode="&#x42b;" horiz-adv-x="1698"
                   d="M426 913q56 19 116.5 24t106.5 5q84 0 163 -27.5t139.5 -84t97 -142t36.5 -201.5q0 -94 -29 -182t-93.5 -155.5t-167.5 -108.5t-250 -41h-422q37 94 52 193t15 210v744q0 111 -15 210t-52 193h371q-38 -94 -53 -193t-15 -210v-234zM1577 1550q-37 -94 -52.5 -193
t-15.5 -210v-744q0 -111 15.5 -210t52.5 -193h-371q37 94 52.5 193t15.5 210v744q0 111 -15.5 210t-52.5 193h371zM426 141q7 -1 20 -1.5t27 -0.5h26.5h18.5q72 0 128.5 21t95.5 62t60 102t21 141q0 93 -20.5 154t-56 97.5t-83 51t-100.5 14.5q-11 0 -28.5 -1t-37.5 -3
t-39 -4.5t-32 -5.5v-627z"/>
            <glyph glyph-name="afii10046" unicode="&#x42c;" horiz-adv-x="1147"
                   d="M426 913q56 19 116.5 24t106.5 5q84 0 163 -27.5t139.5 -84t97 -142t36.5 -201.5q0 -94 -29 -182t-93.5 -155.5t-167.5 -108.5t-250 -41h-422q37 94 52 193t15 210v744q0 111 -15 210t-52 193h371q-38 -94 -53 -193t-15 -210v-234zM426 141q7 -1 20 -1.5t27 -0.5h26.5
h18.5q72 0 128.5 21t95.5 62t60 102t21 141q0 93 -20.5 154t-56 97.5t-83 51t-100.5 14.5q-11 0 -28.5 -1t-37.5 -3t-39 -4.5t-32 -5.5v-627z"/>
            <glyph glyph-name="afii10047" unicode="&#x42d;" horiz-adv-x="1503"
                   d="M905 688q-65 0 -122.5 -2.5t-108.5 -10t-95.5 -22t-82.5 -39.5l-121 250h764q-14 120 -59.5 215.5t-117.5 161.5t-168 101.5t-212 35.5q-121 0 -230 -33.5t-200 -99.5l-2 273q208 51 374 51q367 0 609 -195q140 -112 214 -271t74 -351q0 -187 -72.5 -341.5t-209.5 -260.5
q-211 -164 -498 -164q-118 0 -248.5 27.5t-273.5 84.5l-6 262q120 -92 238 -137t245 -45q119 0 217 33.5t169.5 98t113.5 159.5t49 219h-240z"/>
            <glyph glyph-name="afii10048" unicode="&#x42e;" horiz-adv-x="2355"
                   d="M2269 784q0 -180 -64 -332t-188 -264q-111 -100 -246 -151t-288 -51q-143 0 -272 45t-240 135q-118 94 -186.5 227t-84.5 295h-274v-285q0 -111 15 -210t53 -193h-371q37 94 52 193t15 210v744q0 111 -15 210t-52 193h371q-38 -94 -53 -193t-15 -210v-264h274
q29 231 177 403q57 67 127 119t149.5 87.5t167.5 54t182 18.5q158 0 290 -52.5t239 -152.5q115 -112 176 -257t61 -319zM1509 172q108 0 200 40t159 112.5t105 174.5t38 226q0 116 -27.5 216.5t-78.5 180.5q-81 127 -194 192.5t-249 65.5q-108 0 -199.5 -41.5t-158 -116
t-104 -179t-37.5 -230.5q0 -116 31.5 -219.5t92.5 -194.5q75 -109 184.5 -168t237.5 -59z"/>
            <glyph glyph-name="afii10049" unicode="&#x42f;" horiz-adv-x="1243"
                   d="M819 1405q-86 -1 -153.5 -23t-114.5 -62t-71.5 -96t-24.5 -124q0 -66 24 -122t70.5 -98.5t114.5 -71t155 -40.5v637zM819 715q-123 -181 -224.5 -315t-179 -223t-130 -133t-76.5 -44h-229q157 167 292 344t250 367q-156 54 -235.5 152.5t-79.5 234.5q0 230 163.5 341
t493.5 111h258q-37 -94 -52 -193t-15 -210v-744q0 -111 15 -210t52 -193h-370q37 94 52 193t15 210v312z"/>
            <glyph glyph-name="afii10065" unicode="&#x430;" horiz-adv-x="934"
                   d="M203 1049q65 20 125.5 30.5t120.5 10.5q162 0 247.5 -83t85.5 -247v-490q0 -154 58 -270h-260v154q-48 -36 -92 -72t-85 -74q-33 -12 -69 -12q-60 0 -112.5 20.5t-91 56.5t-61 84t-22.5 103q0 73 33.5 126.5t100.5 99.5t167 89.5t232 96.5q0 9 1 19t1 18q0 219 -205 219
q-54 0 -110 -19.5t-117 -56.5zM580 477h-273q-18 -45 -27.5 -84.5t-9.5 -77.5q0 -153 195 -153q26 0 54.5 2.5t60.5 7.5v305z"/>
            <glyph glyph-name="afii10066" unicode="&#x431;" horiz-adv-x="1122"
                   d="M932 1321q-25 -9 -50.5 -15t-60.5 -12.5t-84 -14.5t-121 -22q-184 -35 -274.5 -147.5t-103.5 -298.5q34 48 74 98t86.5 90t100.5 65.5t117 25.5q105 0 184 -37.5t132.5 -106.5t80.5 -166.5t27 -216.5q0 -117 -31.5 -222t-92.5 -184t-150 -125t-203 -46q-112 0 -201 45
t-150.5 129.5t-94.5 206t-33 274.5q0 203 33.5 349t102.5 244.5t174 153.5t249 76q96 14 172.5 34.5t116.5 51.5v-229zM291 780q0 -129 9.5 -226.5t27 -168.5t42.5 -118t55.5 -75t66.5 -39.5t75 -11.5q66 0 113.5 35.5t77.5 93t44.5 130t14.5 147.5q0 65 -13 131.5
t-44.5 120t-84 87.5t-132.5 34q-79 0 -144 -40t-108 -100z"/>
            <glyph glyph-name="afii10067" unicode="&#x432;" horiz-adv-x="961"
                   d="M113 0q26 65 37.5 133t11.5 146v512q0 77 -11.5 145t-37.5 133h295q87 0 166 -13t139 -44t95.5 -83t35.5 -130q0 -37 -14.5 -71t-39 -62.5t-58 -51t-70.5 -36.5q52 -20 94.5 -48t72.5 -62t46 -73t16 -80q0 -65 -26 -122.5t-82.5 -100.5t-144 -67.5t-210.5 -24.5h-315z
M375 586q118 14 178.5 64.5t60.5 131.5q0 76 -62 121t-177 45v-362zM375 117h57q53 0 95 15t71.5 42t45 64t15.5 81q0 49 -20 90.5t-57 72.5t-89.5 48.5t-117.5 18.5v-432z"/>
            <glyph glyph-name="afii10068" unicode="&#x433;" horiz-adv-x="819"
                   d="M162 807q0 80 -15 145.5t-43 122.5h756l-100 -203q-39 25 -77.5 39t-83 21t-96.5 8.5t-116 1.5h-12v-672q0 -78 14 -144.5t43 -125.5h-328q58 116 58 270v537z"/>
            <glyph glyph-name="afii10069" unicode="&#x434;" horiz-adv-x="1126"
                   d="M197 0q0 -63 16 -116t45 -99h-258v369h82q52 44 90 101t64.5 121t43 133t26 138t13 135t3.5 125q0 50 -4 93.5t-9 74.5h662q-26 -65 -36.5 -136t-10.5 -148v-637h161v-369h-258q28 46 44 99t16 116h-690zM510 922q-4 -50 -7 -110.5t-9.5 -127t-18.5 -136t-33.5 -138
t-54 -134t-80.5 -122.5h404v768h-201z"/>
            <glyph glyph-name="afii10070" unicode="&#x435;" horiz-adv-x="991"
                   d="M319 508q0 -164 67.5 -251t188.5 -87q60 0 134 22t165 62l-102 -225q-130 -43 -246 -43q-106 0 -187.5 35.5t-137 105.5t-84.5 172.5t-29 237.5q0 128 31.5 230.5t88.5 174t137.5 110t178.5 38.5q181 0 276 -124t95 -370v-43.5t-2 -44.5h-574zM748 639v18q0 295 -203 295
q-209 0 -228 -313h431z"/>
            <glyph glyph-name="afii10072" unicode="&#x436;" horiz-adv-x="1352"
                   d="M829 1075q-12 -41 -21.5 -76.5t-16 -74.5t-10 -85.5t-3.5 -107.5v-125l228 332q23 32 39 66t18 71h305q-68 -54 -109 -94t-63 -66l-235 -305l249 -436q62 -99 158 -174h-340q0 46 -10.5 85.5t-26.5 68.5l-213 415v-299q0 -154 58 -270h-320q29 59 43 125.5t14 144.5v299
l-213 -415q-15 -29 -25.5 -68.5t-10.5 -85.5h-340q49 38 87.5 81.5t69.5 92.5l250 436l-235 305q-22 26 -63 66t-109 94h305q2 -37 18 -71t39 -66l227 -332v125q0 61 -3.5 107.5t-10 85.5t-16 74.5t-21.5 76.5h307z"/>
            <glyph glyph-name="afii10073" unicode="&#x437;" horiz-adv-x="901"
                   d="M819 317q0 -82 -33 -144t-91.5 -103.5t-138 -62.5t-171.5 -21q-88 0 -160 15.5t-137 41.5l-8 225q25 -27 59 -51.5t73 -43t80.5 -29.5t80.5 -11q43 0 82.5 11t68.5 33.5t46.5 56.5t17.5 79t-16 77.5t-41.5 53.5t-57.5 31t-65 10q-36 0 -77.5 -7t-70.5 -19l-45 153h115
q58 0 100.5 13.5t70 37.5t41 56.5t13.5 71.5q0 75 -48.5 117t-131.5 42q-71 0 -139.5 -35.5t-120.5 -97.5l-6 205q30 18 68.5 31t79 21.5t81 13t76.5 4.5q171 0 263.5 -72.5t92.5 -206.5q0 -48 -18.5 -86.5t-48 -67.5t-64.5 -49t-68 -32q45 -7 89 -26t79.5 -51t57.5 -77.5
t22 -106.5z"/>
            <glyph glyph-name="afii10074" unicode="&#x438;" horiz-adv-x="1167"
                   d="M162 807q0 152 -58 268h328q-29 -59 -43 -125t-14 -143v-401l413 485q-12 100 -53 184h328q-29 -59 -43 -125t-14 -143v-537q0 -78 14 -144.5t43 -125.5h-328q58 116 58 270v416l-416 -487q6 -56 19 -105t36 -94h-328q58 116 58 270v537z"/>
            <glyph glyph-name="afii10075" unicode="&#x439;" horiz-adv-x="1167"
                   d="M162 807q0 152 -58 268h328q-29 -59 -43 -125t-14 -143v-401l413 485q-12 100 -53 184h328q-29 -59 -43 -125t-14 -143v-537q0 -78 14 -144.5t43 -125.5h-328q58 116 58 270v416l-416 -487q6 -56 19 -105t36 -94h-328q58 116 58 270v537zM449 1518q2 -37 7.5 -70
t20 -57.5t40.5 -39t69 -14.5t68.5 14.5t39.5 39t19.5 57.5t7.5 70l160 2q-11 -149 -82 -219t-213 -70q-143 0 -215.5 70t-83.5 219z"/>
            <glyph glyph-name="afii10076" unicode="&#x43a;" horiz-adv-x="1008"
                   d="M426 1075q-12 -41 -21.5 -76.5t-16 -74.5t-10 -85.5t-3.5 -107.5v-125l268 332q54 66 57 137h328q-68 -54 -111 -94t-65 -66l-246 -305l271 -436q31 -49 69.5 -92.5t87.5 -81.5h-368q2 6 2 13v14q0 65 -39 127l-254 415v-299q0 -78 14 -144.5t43 -125.5h-328
q58 116 58 270v535q0 154 -58 270h322z"/>
            <glyph glyph-name="afii10077" unicode="&#x43b;" horiz-adv-x="1118"
                   d="M1014 1075q-58 -116 -58 -268v-537q0 -154 58 -270h-328q29 59 43 126t14 144v652h-241q-6 -176 -16 -313.5t-28 -241t-45.5 -176t-69 -117.5t-98 -65.5t-132.5 -20.5q-51 0 -80 6t-53 12v166q48 -27 98 -27q78 0 122.5 53t67 156t28 253.5t5.5 344.5q0 28 -4.5 58
t-9.5 65h727z"/>
            <glyph glyph-name="afii10078" unicode="&#x43c;" horiz-adv-x="1464"
                   d="M1303 270q0 -78 14 -144.5t43 -125.5h-328q58 116 58 270v465l-357 -448l-358 450v-467q0 -78 14 -144.5t43 -125.5h-328q58 116 58 270v682l-109 123h289q2 -29 17.5 -51t35.5 -47l338 -438l334 438q22 26 36.5 48t16.5 50h291q-51 -38 -79.5 -110t-28.5 -166v-529z"/>
            <glyph glyph-name="afii10079" unicode="&#x43d;" horiz-adv-x="1167"
                   d="M793 807q0 152 -58 268h328q-29 -59 -43 -125t-14 -143v-537q0 -78 14 -144.5t43 -125.5h-328q58 116 58 270v244h-418v-244q0 -78 14 -144.5t43 -125.5h-328q58 116 58 270v537q0 152 -58 268h328q-29 -59 -43 -125t-14 -143v-160h418v160z"/>
            <glyph glyph-name="afii10080" unicode="&#x43e;" horiz-adv-x="1176"
                   d="M571 1092q124 -4 221 -42.5t164 -107t102.5 -164.5t35.5 -215q0 -143 -49 -253t-152 -193q-96 -65 -180.5 -98t-159.5 -33q-68 0 -137.5 22.5t-134.5 69.5q-96 68 -148.5 178.5t-52.5 249.5q0 118 34 218.5t98 177t154.5 126t204.5 64.5zM702 150q44 26 79.5 65.5t61 88
t39 105.5t13.5 117q0 91 -27 167.5t-72 131t-103.5 85t-121.5 30.5q-54 0 -102 -26t-84 -73.5t-57 -115t-21 -150.5q0 -95 28 -173t79 -134t121.5 -87t154.5 -31h12z"/>
            <glyph glyph-name="afii10081" unicode="&#x43f;" horiz-adv-x="1147"
                   d="M1042 1075q-57 -117 -57 -268v-537q0 -78 14 -144.5t43 -125.5h-327q29 59 43 126t14 144v652h-397v-652q0 -78 14 -144.5t43 -125.5h-328q58 116 58 270v537q0 152 -58 268h938z"/>
            <glyph glyph-name="afii10082" unicode="&#x440;" horiz-adv-x="1139"
                   d="M375 872q42 51 80.5 89.5t77 65t77.5 39.5t82 13q75 0 141.5 -36t116.5 -102t79.5 -160.5t29.5 -211.5q0 -120 -32.5 -219t-87.5 -170.5t-128.5 -111t-155.5 -39.5q-71 0 -137 31.5t-143 91.5v-224q0 -77 14 -144t43 -126h-328q58 116 58 270v879q0 80 -15 145.5
t-43 122.5h271v-203zM375 231q42 -26 82 -39.5t82 -13.5q65 0 119.5 26.5t93.5 75t60.5 118t21.5 155.5q0 81 -20 146t-55.5 110.5t-85.5 69.5t-110 24q-94 0 -188 -72v-600z"/>
            <glyph glyph-name="afii10083" unicode="&#x441;" horiz-adv-x="909"
                   d="M768 6q-35 -11 -71.5 -15.5t-78.5 -4.5q-125 0 -225 38.5t-170.5 108t-108.5 166t-38 213.5q0 126 42.5 232.5t119.5 183.5t186 120.5t242 43.5q51 0 104.5 -7.5t112.5 -21.5l-19 -246q-57 63 -116 94t-132 31q-71 0 -128 -26t-97 -75t-62 -119.5t-22 -158.5
q0 -98 25 -174.5t72 -129t114 -80t152 -27.5q55 0 111 12t112 37z"/>
            <glyph glyph-name="afii10084" unicode="&#x442;" horiz-adv-x="975"
                   d="M997 1075l-79 -203q-39 25 -81.5 39t-85.5 21t-83 8.5t-74 1.5v-672q0 -78 14 -144.5t43 -125.5h-327q29 59 43 125.5t14 144.5v672q-47 0 -96 -3t-97.5 -10.5t-95.5 -21t-90 -35.5l57 203h938z"/>
            <glyph glyph-name="afii10085" unicode="&#x443;" horiz-adv-x="999"
                   d="M129 817q-40 93 -81.5 157t-78.5 101h355q-11 -41 -11 -69t6.5 -62t20.5 -70l186 -471l160 426q20 51 28.5 94.5t8.5 75.5q0 17 -2 36t-8 40h315q-34 -45 -60 -91.5t-47.5 -93.5t-40.5 -93.5t-38 -91.5l-221 -527q-90 -213 -162.5 -342.5t-120.5 -177.5h-272
q111 105 198 231.5t150 278.5z"/>
            <glyph glyph-name="afii10086" unicode="&#x444;" horiz-adv-x="1548"
                   d="M672 1212q0 155 -58 271l312 67q-25 -81 -37 -183t-12 -226v-269q30 51 58 89.5t57.5 65t63.5 39.5t77 13q74 0 135.5 -35.5t106 -103t69 -165.5t24.5 -222q0 -120 -27.5 -217t-76.5 -165t-117.5 -105t-150.5 -37q-36 0 -68 11.5t-60 29.5t-51 40t-40 42v-230
q0 -75 13 -141t42 -123h-318q29 59 43.5 124.5t14.5 145.5v224q-17 -20 -40 -42t-51 -40t-60.5 -29.5t-67.5 -11.5q-83 0 -151.5 37t-117.5 105t-76.5 165t-27.5 217q0 124 24.5 222t69 165.5t106 103t136.5 35.5q43 0 76.5 -13t63.5 -39.5t57.5 -65t58.5 -89.5v340z
M877 231q32 -31 64 -42t58 -11q66 0 113.5 26.5t79 75t46.5 118t15 155.5q0 81 -13.5 146t-41 110.5t-71 69.5t-103.5 24q-24 0 -42.5 -4.5t-35 -13.5t-33 -22.5t-36.5 -31.5v-600zM672 831q-20 18 -37 31.5t-33.5 22.5t-35 13.5t-42.5 4.5q-60 0 -103 -24t-71 -69.5
t-41.5 -110.5t-13.5 -146q0 -86 15 -155.5t46.5 -118t79.5 -75t113 -26.5q26 0 58.5 11t64.5 42v600z"/>
            <glyph glyph-name="afii10087" unicode="&#x445;" horiz-adv-x="977"
                   d="M176 881q-37 60 -74.5 108t-81.5 86h357q-5 -21 -6.5 -38t-1.5 -31q0 -23 6.5 -47t21.5 -50l117 -194l98 151q26 41 39 80t13 74q0 11 -1.5 24.5t-5.5 30.5h322q-48 -45 -90.5 -100t-87.5 -123l-187 -287l211 -346q41 -65 84 -119.5t92 -99.5h-350q6 21 6 45
q0 57 -41 125l-131 223l-131 -209q-15 -23 -22.5 -48t-7.5 -48q0 -17 2.5 -38.5t7.5 -49.5h-338q56 59 100 113.5t78 105.5l219 320z"/>
            <glyph glyph-name="afii10088" unicode="&#x446;" horiz-adv-x="1147"
                   d="M104 0q58 116 58 268v537q0 154 -58 270h328q-29 -59 -43 -125.5t-14 -144.5v-651h397v651q0 77 -14 144t-43 126h327q-29 -59 -43 -125.5t-14 -144.5v-651h182v-369h-258q35 46 54.5 99t19.5 116h-879z"/>
            <glyph glyph-name="afii10089" unicode="&#x447;" horiz-adv-x="1065"
                   d="M690 805q0 78 -14 144.5t-43 125.5h328q-58 -116 -58 -270v-535q0 -154 58 -270h-328q29 59 43 126t14 144v258q-71 -59 -155 -149q-36 -22 -73.5 -31.5t-82.5 -9.5q-65 0 -123.5 25t-95.5 67q-22 25 -34.5 49t-19 48.5t-8.5 49t-2 50.5v178q0 78 -14 144.5t-43 125.5
h328q-58 -116 -58 -270v-113q0 -90 48.5 -134t150.5 -44q88 0 182 55v236z"/>
            <glyph glyph-name="afii10090" unicode="&#x448;" horiz-adv-x="1692"
                   d="M104 0q58 116 58 268v537q0 154 -58 270h320q-29 -59 -43 -125.5t-14 -144.5v-651h376v651q0 77 -14 144t-43 126h320q-58 -116 -58 -270v-651h377v651q0 77 -14 144t-43 126h319q-29 -59 -43 -125.5t-14 -144.5v-537q0 -77 14 -143t43 -125h-1483v0z"/>
            <glyph glyph-name="afii10091" unicode="&#x449;" horiz-adv-x="1712"
                   d="M104 0q58 116 58 268v537q0 154 -58 270h320q-29 -59 -43 -125.5t-14 -144.5v-651h376v651q0 77 -14 144t-43 126h320q-58 -116 -58 -270v-651h377v651q0 77 -14 144t-43 126h319q-29 -59 -43 -125.5t-14 -144.5v-651h162v-369h-258q35 46 54 99t19 116h-1403v0z"/>
            <glyph glyph-name="afii10092" unicode="&#x44a;" horiz-adv-x="1147"
                   d="M328 0q26 65 37.5 133t11.5 146v663q-34 0 -67 -2t-66.5 -9t-69 -21t-74.5 -38l-100 203h639q-28 -65 -38.5 -133t-10.5 -145v-189q18 8 36.5 15.5t39.5 13t45.5 9t56.5 3.5q58 0 115 -20t102 -59.5t72.5 -99.5t27.5 -140q0 -69 -25.5 -129.5t-77 -105t-130.5 -70
t-186 -25.5h-338zM590 119q9 -2 25.5 -2h37.5q94 0 147.5 47t53.5 158q0 64 -16 103.5t-40 62t-53 30.5t-55 8q-32 0 -51.5 -4.5t-48.5 -13.5v-389z"/>
            <glyph glyph-name="afii10093" unicode="&#x44b;" horiz-adv-x="1444"
                   d="M1069 807q0 77 -14 143t-43 125h327q-29 -59 -43 -125t-14 -143v-537q0 -78 14 -144.5t43 -125.5h-327q29 59 43 126t14 144v537zM113 0q26 65 37.5 133t11.5 146v518q0 77 -11.5 145t-37.5 133h311q-28 -65 -38.5 -133t-10.5 -145v-189q18 8 36.5 15.5t39.5 13t45.5 9
t56.5 3.5q58 0 115 -20t102 -59.5t72.5 -99.5t27.5 -140q0 -69 -25.5 -129.5t-77 -105t-130.5 -70t-186 -25.5h-338zM375 119q9 -2 25.5 -2h37.5q94 0 147.5 47t53.5 158q0 64 -16 103.5t-40 62t-53 30.5t-55 8q-32 0 -51.5 -4.5t-48.5 -13.5v-389z"/>
            <glyph glyph-name="afii10094" unicode="&#x44c;" horiz-adv-x="932"
                   d="M113 0q26 65 37.5 133t11.5 146v518q0 77 -11.5 145t-37.5 133h311q-28 -65 -38.5 -133t-10.5 -145v-189q18 8 36.5 15.5t39.5 13t45.5 9t56.5 3.5q58 0 115 -20t102 -59.5t72.5 -99.5t27.5 -140q0 -69 -25.5 -129.5t-77 -105t-130.5 -70t-186 -25.5h-338zM375 119
q9 -2 25.5 -2h37.5q94 0 147.5 47t53.5 158q0 64 -16 103.5t-40 62t-53 30.5t-55 8q-32 0 -51.5 -4.5t-48.5 -13.5v-389z"/>
            <glyph glyph-name="afii10095" unicode="&#x44d;" horiz-adv-x="934"
                   d="M68 197q27 -12 51 -22t47 -17t46.5 -11t51.5 -4q76 0 138.5 22t108.5 65t74.5 107t37.5 148q-53 -1 -97.5 -3.5t-83.5 -9.5t-74 -20.5t-69 -35.5l-100 202h426q-6 76 -30.5 136t-64.5 102t-93.5 64t-119.5 22q-72 0 -131 -31t-116 -94l-19 246q59 14 112.5 21.5
t104.5 7.5q133 0 242 -43.5t186 -120.5t119.5 -183.5t42.5 -232.5q0 -117 -38.5 -213.5t-111 -166t-177 -108t-236.5 -38.5q-66 0 -122 8t-91 14z"/>
            <glyph glyph-name="afii10096" unicode="&#x44e;" horiz-adv-x="1688"
                   d="M1083 1092q124 -4 221 -42.5t164 -107t102.5 -164.5t35.5 -215q0 -143 -49 -253t-152 -193q-96 -65 -180.5 -98t-159.5 -33q-68 0 -137.5 22.5t-134.5 69.5q-91 63 -143 165t-58 230h-217v-203q0 -78 14 -144.5t43 -125.5h-328q58 116 58 270v537q0 152 -58 268h328
q-29 -59 -43 -125t-14 -143v-201h223q13 98 52.5 181t102 146t146 104t184.5 55zM1214 150q44 26 79.5 65.5t61 88t39 105.5t13.5 117q0 91 -27 167.5t-72 131t-103.5 85t-121.5 30.5q-54 0 -102 -26t-84 -73.5t-57 -115t-21 -150.5q0 -95 28 -173t79 -134t121.5 -87
t154.5 -31h12z"/>
            <glyph glyph-name="afii10097" unicode="&#x44f;" horiz-adv-x="911"
                   d="M537 948q-63 0 -106 -12t-70 -35.5t-38.5 -58.5t-11.5 -82q0 -46 11.5 -82.5t38 -63.5t69.5 -44.5t107 -24.5v403zM537 494q-90 -125 -158 -217.5t-117 -154t-81 -92t-50 -30.5h-207q115 116 212.5 237.5t182.5 251.5q-229 79 -229 269q0 159 118.5 235t360.5 76h230
q-26 -65 -37.5 -133t-11.5 -145v-512q0 -78 11.5 -146t37.5 -133h-312q26 65 38 133t12 146v215z"/>
            <glyph glyph-name="afii10071" unicode="&#x451;" horiz-adv-x="991"
                   d="M319 508q0 -164 67.5 -251t188.5 -87q60 0 134 22t165 62l-102 -225q-130 -43 -246 -43q-106 0 -187.5 35.5t-137 105.5t-84.5 172.5t-29 237.5q0 128 31.5 230.5t88.5 174t137.5 110t178.5 38.5q181 0 276 -124t95 -370v-43.5t-2 -44.5h-574zM748 639v18q0 295 -203 295
q-209 0 -228 -313h431zM593 1366q0 24 10 45.5t26.5 38t38.5 26t46 9.5q25 0 46.5 -9.5t37.5 -25.5t25.5 -37.5t9.5 -46.5q0 -54 -33 -87.5t-86 -33.5q-25 0 -47 9t-38.5 25t-26 38.5t-9.5 48.5zM229 1366q0 24 9.5 45.5t26 38t38.5 26t47 9.5q24 0 46 -9.5t38 -25.5
t25.5 -37.5t9.5 -46.5q0 -54 -33.5 -87.5t-85.5 -33.5q-26 0 -48 9t-38 25t-25.5 38.5t-9.5 48.5z"/>
            <glyph glyph-name="afii10099" unicode="&#x452;" horiz-adv-x="1112"
                   d="M961 188q0 -77 -5.5 -146.5t-23.5 -134t-53 -126t-93 -123.5h-192q49 54 79.5 109t47 114t22 123.5t5.5 136.5v512q0 90 -48.5 134t-150.5 44q-88 0 -182 -55v-506q0 -78 14 -144.5t43 -125.5h-328q58 116 58 270v879h-4q-42 0 -79 -5t-71 -18v168q32 -12 70 -17t80 -5h2
q-11 117 -56 211l322 67q-38 -117 -47 -278h164q42 0 78.5 5t68.5 17v-168q-34 13 -69.5 18t-77.5 5h-168v-332q35 29 74 67t81 83q35 21 73 31t83 10q65 0 123.5 -25.5t95.5 -67.5q21 -24 34 -48.5t19.5 -49t8.5 -49t2 -49.5v-531z"/>
            <glyph glyph-name="afii10100" unicode="&#x453;" horiz-adv-x="819"
                   d="M162 807q0 80 -15 145.5t-43 122.5h756l-100 -203q-39 25 -77.5 39t-83 21t-96.5 8.5t-116 1.5h-12v-672q0 -78 14 -144.5t43 -125.5h-328q58 116 58 270v537zM791 1550l-295 -348h-131l204 348h222z"/>
            <glyph glyph-name="afii10101" unicode="&#x454;" horiz-adv-x="934"
                   d="M852 8q-35 -6 -91 -14t-122 -8q-132 0 -236.5 38.5t-177 108t-111 166t-38.5 213.5q0 126 42.5 232.5t119.5 183.5t186 120.5t242 43.5q51 0 104.5 -7.5t112.5 -21.5l-19 -246q-57 63 -116 94t-132 31q-65 0 -119 -22t-93.5 -64t-64 -102t-30.5 -136h426l-100 -202
q-35 22 -69.5 35.5t-73.5 20.5t-83.5 9.5t-97.5 3.5q9 -84 37.5 -148t74.5 -107t108.5 -65t138.5 -22q27 0 51 4t47 11t47 17t51 22l-14 -189v0z"/>
            <glyph glyph-name="afii10102" unicode="&#x455;" horiz-adv-x="868"
                   d="M117 315q62 -99 135.5 -147.5t148.5 -48.5q32 0 58.5 10t45.5 27.5t29.5 42.5t10.5 55q0 40 -15.5 68t-44 51.5t-67.5 46t-86 51.5q-102 63 -151.5 134t-49.5 165q0 70 28.5 129t81.5 102t128 67t168 24q54 0 106.5 -11t108.5 -32l-2 -207q-107 106 -228 106
q-72 0 -113.5 -38t-41.5 -101q0 -40 15 -68t42 -50.5t64 -43t81 -45.5q53 -31 92.5 -63t66 -68.5t39.5 -78t13 -91.5q0 -71 -29 -129t-84 -100t-134 -65t-179 -23q-59 0 -121 10t-131 29z"/>
            <glyph glyph-name="afii10103" unicode="&#x456;" horiz-adv-x="537"
                   d="M115 1382q0 32 12 60t32.5 49t48.5 33t60 12t60 -12t49 -33t33 -49t12 -60t-12 -60t-33 -48.5t-49 -32.5t-60 -12t-59.5 12t-48.5 33t-33 48.5t-12 59.5zM162 807q0 152 -58 268h328q-29 -59 -43 -125t-14 -143v-537q0 -78 14 -144.5t43 -125.5h-328q58 116 58 270v537z
"/>
            <glyph glyph-name="afii10104" unicode="&#x457;" horiz-adv-x="537"
                   d="M162 807q0 152 -58 268h328q-29 -59 -43 -125t-14 -143v-537q0 -78 14 -144.5t43 -125.5h-328q58 116 58 270v537zM330 1366q0 24 10 45.5t26.5 38t38.5 26t46 9.5q25 0 46.5 -9.5t37.5 -25.5t25.5 -37.5t9.5 -46.5q0 -54 -33 -87.5t-86 -33.5q-25 0 -47 9t-38.5 25
t-26 38.5t-9.5 48.5zM-34 1366q0 24 9.5 45.5t26 38t38.5 26t47 9.5q24 0 46 -9.5t38 -25.5t25.5 -37.5t9.5 -46.5q0 -54 -33.5 -87.5t-85.5 -33.5q-26 0 -48 9t-38 25t-25.5 38.5t-9.5 48.5z"/>
            <glyph glyph-name="afii10105" unicode="&#x458;" horiz-adv-x="502"
                   d="M102 1382q0 32 12 60t33 49t49 33t60 12t60 -12t49 -33t33 -49t12 -60t-12 -60t-33 -48.5t-49 -32.5t-60 -12t-60 12t-49 33t-33 48.5t-12 59.5zM362 188q0 -77 -5.5 -146.5t-23.5 -134t-52.5 -126t-92.5 -123.5h-192q49 54 79.5 109t47 114t22 123.5t5.5 136.5v666
q0 152 -58 268h328q-58 -116 -58 -268v-619z"/>
            <glyph glyph-name="afii10106" unicode="&#x459;" horiz-adv-x="1495"
                   d="M938 608q18 8 36.5 15.5t39.5 13t45.5 9t56.5 3.5q58 0 115 -20t102 -59.5t73 -99.5t28 -140q0 -69 -25.5 -129.5t-77.5 -105t-131 -70t-186 -25.5h-338q26 65 37.5 133t11.5 146v235h-350v-244q0 -78 14 -144.5t43 -125.5h-328q58 116 58 270v537q0 152 -58 268h328
q-29 -59 -43 -125t-14 -143v-160h350v160q0 77 -14 143t-43 125h327q-29 -59 -43 -125t-14 -143v-199zM938 119q9 -2 25.5 -2h37.5q94 0 147.5 47t53.5 158q0 64 -16 103.5t-40 62t-53 30.5t-55 8q-32 0 -51.5 -4.5t-48.5 -13.5v-389z"/>
            <glyph glyph-name="afii10107" unicode="&#x45a;" horiz-adv-x="1534"
                   d="M707 0q57 117 57 270v652h-242q-5 -176 -15 -313.5t-28 -241t-46 -176t-69.5 -117.5t-98 -65.5t-132.5 -20.5q-50 0 -79 6t-54 12v166q49 -27 98 -27q78 0 122.5 53t67 156t28.5 253.5t6 344.5q0 28 -5 58t-10 65h727q-29 -59 -43 -125t-14 -143v-199q18 8 36.5 15.5
t39.5 13t45.5 9t56.5 3.5q58 0 115 -20t102 -59.5t73 -99.5t28 -140q0 -69 -25.5 -129.5t-77.5 -105t-131 -70t-186 -25.5h-346zM977 119q9 -2 25.5 -2h37.5q94 0 147.5 47t53.5 158q0 64 -16 103.5t-40 62t-53 30.5t-55 8q-32 0 -51.5 -4.5t-48.5 -13.5v-389z"/>
            <glyph glyph-name="afii10108" unicode="&#x45b;" horiz-adv-x="1112"
                   d="M535 1272q42 0 78.5 5t68.5 17v-168q-34 13 -69.5 18t-77.5 5h-168v-332q35 29 74 67t81 83q35 21 73 31t83 10q65 0 123.5 -25.5t95.5 -67.5q21 -24 34 -48.5t19.5 -49t8.5 -49t2 -49.5v-449q0 -78 14 -144.5t43 -125.5h-328q58 116 58 270v383q0 90 -48.5 134
t-150.5 44q-88 0 -182 -55v-506q0 -78 14 -144.5t43 -125.5h-328q58 116 58 270v879h-4q-42 0 -79 -5t-71 -18v168q32 -12 70 -17t80 -5h2q-11 117 -56 211l322 67q-38 -117 -47 -278h164z"/>
            <glyph glyph-name="afii10109" unicode="&#x45c;" horiz-adv-x="1008"
                   d="M426 1075q-12 -41 -21.5 -76.5t-16 -74.5t-10 -85.5t-3.5 -107.5v-125l268 332q54 66 57 137h328q-68 -54 -111 -94t-65 -66l-246 -305l271 -436q31 -49 69.5 -92.5t87.5 -81.5h-368q2 6 2 13v14q0 65 -39 127l-254 415v-299q0 -78 14 -144.5t43 -125.5h-328
q58 116 58 270v535q0 154 -58 270h322zM861 1550l-295 -348h-131l204 348h222z"/>
            <glyph glyph-name="afii10110" unicode="&#x45e;" horiz-adv-x="999"
                   d="M129 817q-40 93 -81.5 157t-78.5 101h355q-11 -41 -11 -69t6.5 -62t20.5 -70l186 -471l160 426q20 51 28.5 94.5t8.5 75.5q0 17 -2 36t-8 40h315q-34 -45 -60 -91.5t-47.5 -93.5t-40.5 -93.5t-38 -91.5l-221 -527q-90 -213 -162.5 -342.5t-120.5 -177.5h-272
q111 105 198 231.5t150 278.5zM375 1518q2 -37 7.5 -70t20 -57.5t40.5 -39t69 -14.5t68.5 14.5t39.5 39t19.5 57.5t7.5 70l160 2q-11 -148 -82.5 -218.5t-212.5 -70.5q-142 0 -215 70t-84 219z"/>
            <glyph glyph-name="afii10193" unicode="&#x45f;" horiz-adv-x="1147"
                   d="M104 0q58 116 58 268v537q0 154 -58 270h328q-29 -59 -43 -125.5t-14 -144.5v-651h397v651q0 77 -14 144t-43 126h327q-29 -59 -43 -125.5t-14 -144.5v-537q0 -151 57 -268h-368v-100q0 -63 31 -115h-263q31 52 31 115v100h-369z"/>
            <glyph glyph-name="afii10050" unicode="&#x490;" horiz-adv-x="1014"
                   d="M426 403q0 -111 15 -210t53 -193h-371q37 94 52 193t15 210v744q0 111 -15 210t-52 193h665q0 91 -21.5 166t-59.5 142h297v-558q-39 25 -76.5 43t-80 29.5t-93.5 17t-115 5.5h-213v-992z"/>
            <glyph glyph-name="afii10098" unicode="&#x491;" horiz-adv-x="819"
                   d="M162 807q0 80 -15 145.5t-43 122.5h469q0 63 -19 116t-54 99h258v-418q-35 18 -69 31t-72.5 22t-84.5 13t-104 4h-53v-672q0 -78 14 -144.5t43 -125.5h-328q58 116 58 270v537z"/>
            <glyph glyph-name="afii61352" unicode="&#x2116;" horiz-adv-x="2417"
                   d="M403 403q0 -111 14.5 -210t51.5 -193h-346q37 94 52 193t15 210v924l-184 223h395v-10q0 -29 7 -52.5t18.5 -44.5t26.5 -41.5t30 -41.5l625 -985v772q0 111 -14 210t-52 193h347q-38 -94 -53 -193t-15 -210v-762q0 -112 7.5 -207.5t27.5 -177.5h-318q-6 46 -21 87t-40 75
l-574 903v-662zM1911 1356q100 -4 178.5 -35.5t133 -87t83.5 -133t29 -174.5q0 -115 -39.5 -204t-124.5 -157q-155 -104 -275 -104q-55 0 -111.5 17.5t-109.5 56.5q-78 55 -121 144t-43 202q0 96 28 177.5t80 143.5t126 102t166 52zM2017 610q59 42 94 117.5t35 169.5
q0 70 -20.5 128.5t-53.5 100.5t-75 65t-86 23q-38 0 -72.5 -19t-61 -55t-42 -87t-15.5 -115q0 -75 22 -136t60.5 -103.5t91 -65.5t113.5 -23h10zM1511 387h824v-168h-824v168z"/>
            <glyph glyph-name="brokenbar" unicode="&#xa6;" horiz-adv-x="1024"
                   d="M424 408h178v-758h-178v758zM424 1432h178v-758h-178v758z"/>
            <glyph glyph-name="multiply" unicode="&#xd7;" horiz-adv-x="1706"
                   d="M403 1188l459 -459l461 459l117 -117l-459 -461l459 -458l-117 -119l-461 461l-459 -461l-116 119l458 458l-458 461z"/>
            <glyph glyph-name="currency" unicode="&#xa4;" horiz-adv-x="1208"
                   d="M134 1348l205 -205q57 40 124 62t142 22q72 0 139 -22t124 -62l206 205l117 -117l-205 -206q40 -57 62 -124t22 -139q0 -74 -22.5 -141t-62.5 -124l206 -205l-117 -119l-206 206q-57 -40 -124 -62t-141 -22q-75 0 -142 21.5t-124 60.5l-203 -204l-116 119l202 202
q-39 57 -60.5 125t-21.5 143q0 74 22 140.5t62 123.5l-204 205zM308 762q0 -61 22.5 -115t62.5 -94.5t94 -64t116 -23.5q61 0 115.5 24t94.5 64.5t63.5 94.5t23.5 114t-23.5 113.5t-64 94t-94 64t-113.5 23.5q-61 0 -115 -23.5t-94.5 -63.5t-64 -93.5t-23.5 -114.5z"/>
            </font>
</defs>
</svg>
